<?xml version="1.0" standalone="yes"?>

<svg version="1.1" viewBox="0.0 0.0 960.0 720.0" fill="none" stroke="none" stroke-linecap="square" stroke-miterlimit="10" xmlns="http://www.w3.org/2000/svg" xmlns:xlink="http://www.w3.org/1999/xlink"><clipPath id="p.0"><path d="m0 0l960.0 0l0 720.0l-960.0 0l0 -720.0z" clip-rule="nonzero"></path></clipPath><g clip-path="url(#p.0)"><path fill="#ffffff" d="m0 0l960.0 0l0 720.0l-960.0 0z" fill-rule="nonzero"></path><path stroke="#cfd4d4" stroke-width="5.333333333333333" stroke-linejoin="round" stroke-linecap="butt" d="m48.0 703.16846l864.0 0" fill-rule="nonzero"></path><path stroke="#cc0202" stroke-width="6.0" stroke-linejoin="round" stroke-linecap="butt" d="m48.0 57.6l864.0 0" fill-rule="nonzero"></path><path stroke="#cc0202" stroke-width="6.0" stroke-linejoin="round" stroke-linecap="butt" d="m48.0 508.61l864.0 0" fill-rule="nonzero"></path><path fill="#cc0202" d="m125.953125 174.82278l-15.09375 0l-6.0 -15.609375l-27.46875 0l-5.671875 15.609375l-14.71875 0l26.765625 -68.71875l14.671875 0l27.515625 68.71875zm-25.546875 -27.1875l-9.46875 -25.5l-9.28125 25.5l18.75 0zm78.09375 27.1875l-13.171875 0l0 -25.40625q0 -8.0625 -0.84375 -10.421875q-0.84375 -2.375 -2.75 -3.6875q-1.890625 -1.3125 -4.5625 -1.3125q-3.421875 0 -6.140625 1.875q-2.71875 1.875 -3.734375 4.96875q-1.0 3.09375 -1.0 11.4375l0 22.546875l-13.171875 0l0 -49.78125l12.234375 0l0 7.3125q6.515625 -8.4375 16.40625 -8.4375q4.359375 0 7.96875 1.578125q3.609375 1.5625 5.453125 4.0q1.859375 2.4375 2.578125 5.53125q0.734375 3.09375 0.734375 8.859375l0 30.9375zm39.703125 0l0 -68.71875l13.875 0l0 68.71875l-13.875 0zm72.28125 0l-13.171875 0l0 -25.40625q0 -8.0625 -0.84375 -10.421875q-0.84375 -2.375 -2.75 -3.6875q-1.890625 -1.3125 -4.5625 -1.3125q-3.421875 0 -6.140625 1.875q-2.71875 1.875 -3.734375 4.96875q-1.0 3.09375 -1.0 11.4375l0 22.546875l-13.171875 0l0 -49.78125l12.234375 0l0 7.3125q6.515625 -8.4375 16.40625 -8.4375q4.359375 0 7.96875 1.578125q3.609375 1.5625 5.453125 4.0q1.859375 2.4375 2.578125 5.53125q0.734375 3.09375 0.734375 8.859375l0 30.9375zm36.1875 -49.78125l0 10.5l-9.0 0l0 20.0625q0 6.09375 0.25 7.109375q0.265625 1.0 1.171875 1.65625q0.921875 0.65625 2.234375 0.65625q1.828125 0 5.296875 -1.265625l1.125 10.21875q-4.59375 1.96875 -10.40625 1.96875q-3.5625 0 -6.421875 -1.1875q-2.859375 -1.203125 -4.203125 -3.09375q-1.328125 -1.90625 -1.84375 -5.140625q-0.421875 -2.296875 -0.421875 -9.28125l0 -21.703125l-6.046875 0l0 -10.5l6.046875 0l0 -9.890625l13.21875 -7.6875l0 17.578125l9.0 0zm21.75 49.78125l-13.171875 0l0 -49.78125l12.234375 0l0 7.078125q3.140625 -5.015625 5.640625 -6.609375q2.515625 -1.59375 5.703125 -1.59375q4.5 0 8.671875 2.484375l-4.078125 11.484375q-3.328125 -2.15625 -6.1875 -2.15625q-2.765625 0 -4.6875 1.53125q-1.921875 1.515625 -3.03125 5.5q-1.09375 3.984375 -1.09375 16.6875l0 15.375zm21.703125 -25.59375q0 -6.5625 3.234375 -12.703125q3.234375 -6.140625 9.15625 -9.375q5.9375 -3.234375 13.25 -3.234375q11.296875 0 18.515625 7.34375q7.21875 7.328125 7.21875 18.53125q0 11.296875 -7.296875 18.734375q-7.28125 7.421875 -18.34375 7.421875q-6.84375 0 -13.0625 -3.09375q-6.203125 -3.09375 -9.4375 -9.0625q-3.234375 -5.984375 -3.234375 -14.5625zm13.5 0.703125q0 7.40625 3.515625 11.34375q3.515625 3.9375 8.671875 3.9375q5.15625 0 8.640625 -3.9375q3.5 -3.9375 3.5 -11.4375q0 -7.3125 -3.5 -11.25q-3.484375 -3.9375 -8.640625 -3.9375q-5.15625 0 -8.671875 3.9375q-3.515625 3.9375 -3.515625 11.34375zm93.84375 24.890625l-12.234375 0l0 -7.3125q-3.046875 4.265625 -7.203125 6.359375q-4.140625 2.078125 -8.359375 2.078125q-8.578125 0 -14.703125 -6.90625q-6.109375 -6.921875 -6.109375 -19.296875q0 -12.65625 5.953125 -19.234375q5.953125 -6.59375 15.046875 -6.59375q8.34375 0 14.4375 6.9375l0 -24.75l13.171875 0l0 68.71875zm-35.15625 -25.96875q0 7.96875 2.203125 11.53125q3.1875 5.15625 8.90625 5.15625q4.546875 0 7.734375 -3.859375q3.1875 -3.875 3.1875 -11.5625q0 -8.578125 -3.09375 -12.34375q-3.09375 -3.78125 -7.921875 -3.78125q-4.6875 0 -7.859375 3.734375q-3.15625 3.71875 -3.15625 11.125zm80.90625 25.96875l0 -7.453125q-2.71875 3.984375 -7.15625 6.28125q-4.421875 2.296875 -9.34375 2.296875q-5.015625 0 -9.0 -2.203125q-3.984375 -2.203125 -5.765625 -6.1875q-1.78125 -3.984375 -1.78125 -11.015625l0 -31.5l13.171875 0l0 22.875q0 10.5 0.71875 12.875q0.734375 2.359375 2.65625 3.75q1.921875 1.375 4.875 1.375q3.375 0 6.046875 -1.84375q2.671875 -1.859375 3.65625 -4.59375q0.984375 -2.75 0.984375 -13.4375l0 -21.0l13.171875 0l0 49.78125l-12.234375 0zm69.28125 -35.0625l-12.984375 2.34375q-0.65625 -3.890625 -2.984375 -5.859375q-2.3125 -1.96875 -6.015625 -1.96875q-4.921875 0 -7.859375 3.40625q-2.921875 3.390625 -2.921875 11.359375q0 8.859375 2.96875 12.515625q2.984375 3.65625 8.0 3.65625q3.75 0 6.140625 -2.125q2.390625 -2.140625 3.375 -7.34375l12.9375 2.203125q-2.015625 8.90625 -7.734375 13.453125q-5.71875 4.546875 -15.328125 4.546875q-10.921875 0 -17.421875 -6.890625q-6.484375 -6.890625 -6.484375 -19.078125q0 -12.328125 6.515625 -19.1875q6.515625 -6.875 17.625 -6.875q9.09375 0 14.453125 3.921875q5.375 3.90625 7.71875 11.921875zm32.8125 -14.71875l0 10.5l-9.0 0l0 20.0625q0 6.09375 0.25 7.109375q0.265625 1.0 1.171875 1.65625q0.921875 0.65625 2.234375 0.65625q1.828125 0 5.296875 -1.265625l1.125 10.21875q-4.59375 1.96875 -10.40625 1.96875q-3.5625 0 -6.421875 -1.1875q-2.859375 -1.203125 -4.203125 -3.09375q-1.328125 -1.90625 -1.84375 -5.140625q-0.421875 -2.296875 -0.421875 -9.28125l0 -21.703125l-6.046875 0l0 -10.5l6.046875 0l0 -9.890625l13.21875 -7.6875l0 17.578125l9.0 0zm9.140625 -6.75l0 -12.1875l13.171875 0l0 12.1875l-13.171875 0zm0 56.53125l0 -49.78125l13.171875 0l0 49.78125l-13.171875 0zm23.625 -25.59375q0 -6.5625 3.234375 -12.703125q3.234375 -6.140625 9.15625 -9.375q5.9375 -3.234375 13.25 -3.234375q11.296875 0 18.515625 7.34375q7.21875 7.328125 7.21875 18.53125q0 11.296875 -7.296875 18.734375q-7.28125 7.421875 -18.34375 7.421875q-6.84375 0 -13.0625 -3.09375q-6.203125 -3.09375 -9.4375 -9.0625q-3.234375 -5.984375 -3.234375 -14.5625zm13.5 0.703125q0 7.40625 3.515625 11.34375q3.515625 3.9375 8.671875 3.9375q5.15625 0 8.640625 -3.9375q3.5 -3.9375 3.5 -11.4375q0 -7.3125 -3.5 -11.25q-3.484375 -3.9375 -8.640625 -3.9375q-5.15625 0 -8.671875 3.9375q-3.515625 3.9375 -3.515625 11.34375zm93.46875 24.890625l-13.171875 0l0 -25.40625q0 -8.0625 -0.84375 -10.421875q-0.84375 -2.375 -2.75 -3.6875q-1.890625 -1.3125 -4.5625 -1.3125q-3.421875 0 -6.140625 1.875q-2.71875 1.875 -3.734375 4.96875q-1.0 3.09375 -1.0 11.4375l0 22.546875l-13.171875 0l0 -49.78125l12.234375 0l0 7.3125q6.515625 -8.4375 16.40625 -8.4375q4.359375 0 7.96875 1.578125q3.609375 1.5625 5.453125 4.0q1.859375 2.4375 2.578125 5.53125q0.734375 3.09375 0.734375 8.859375l0 30.9375zm62.859375 -49.78125l0 10.5l-9.0 0l0 20.0625q0 6.09375 0.25 7.109375q0.265625 1.0 1.171875 1.65625q0.921875 0.65625 2.234375 0.65625q1.828125 0 5.296875 -1.265625l1.125 10.21875q-4.59375 1.96875 -10.40625 1.96875q-3.5625 0 -6.421875 -1.1875q-2.859375 -1.203125 -4.203125 -3.09375q-1.328125 -1.90625 -1.84375 -5.140625q-0.421875 -2.296875 -0.421875 -9.28125l0 -21.703125l-6.046875 0l0 -10.5l6.046875 0l0 -9.890625l13.21875 -7.6875l0 17.578125l9.0 0zm6.09375 24.1875q0 -6.5625 3.234375 -12.703125q3.234375 -6.140625 9.15625 -9.375q5.9375 -3.234375 13.25 -3.234375q11.296875 0 18.515625 7.34375q7.21875 7.328125 7.21875 18.53125q0 11.296875 -7.296875 18.734375q-7.28125 7.421875 -18.34375 7.421875q-6.84375 0 -13.0625 -3.09375q-6.203125 -3.09375 -9.4375 -9.0625q-3.234375 -5.984375 -3.234375 -14.5625zm13.5 0.703125q0 7.40625 3.515625 11.34375q3.515625 3.9375 8.671875 3.9375q5.15625 0 8.640625 -3.9375q3.5 -3.9375 3.5 -11.4375q0 -7.3125 -3.5 -11.25q-3.484375 -3.9375 -8.640625 -3.9375q-5.15625 0 -8.671875 3.9375q-3.515625 3.9375 -3.515625 11.34375z" fill-rule="nonzero"></path><path fill="#cc0202" d="m63.984375 285.2134l0 -68.71875l22.265625 0q12.65625 0 16.5 1.03125q5.90625 1.546875 9.890625 6.734375q3.984375 5.171875 3.984375 13.375q0 6.328125 -2.296875 10.640625q-2.296875 4.3125 -5.84375 6.78125q-3.53125 2.453125 -7.1875 3.25q-4.96875 0.984375 -14.390625 0.984375l-9.046875 0l0 25.921875l-13.875 0zm13.875 -57.09375l0 19.5l7.59375 0q8.203125 0 10.96875 -1.078125q2.765625 -1.078125 4.328125 -3.375q1.578125 -2.296875 1.578125 -5.34375q0 -3.75 -2.203125 -6.1875q-2.203125 -2.4375 -5.578125 -3.046875q-2.484375 -0.46875 -9.984375 -0.46875l-6.703125 0zm43.828125 7.3125l14.015625 0l11.90625 35.34375l11.625 -35.34375l13.640625 0l-17.578125 47.90625l-3.140625 8.671875q-1.734375 4.359375 -3.3125 6.65625q-1.5625 2.296875 -3.609375 3.71875q-2.03125 1.4375 -5.015625 2.234375q-2.96875 0.796875 -6.71875 0.796875q-3.796875 0 -7.453125 -0.796875l-1.171875 -10.3125q3.09375 0.609375 5.578125 0.609375q4.59375 0 6.796875 -2.703125q2.203125 -2.6875 3.375 -6.859375l-18.9375 -49.921875zm82.453125 0l0 10.5l-9.0 0l0 20.0625q0 6.09375 0.25 7.109375q0.265625 1.0 1.171875 1.65625q0.921875 0.65625 2.234375 0.65625q1.828125 0 5.296875 -1.265625l1.125 10.21875q-4.59375 1.96875 -10.40625 1.96875q-3.5625 0 -6.421875 -1.1875q-2.859375 -1.203125 -4.203125 -3.09375q-1.328125 -1.90625 -1.84375 -5.140625q-0.421875 -2.296875 -0.421875 -9.28125l0 -21.703125l-6.046875 0l0 -10.5l6.046875 0l0 -9.890625l13.21875 -7.6875l0 17.578125l9.0 0zm22.265625 -18.9375l0 25.265625q6.375 -7.453125 15.234375 -7.453125q4.546875 0 8.203125 1.6875q3.65625 1.6875 5.5 4.3125q1.859375 2.625 2.53125 5.8125q0.6875 3.1875 0.6875 9.890625l0 29.203125l-13.171875 0l0 -26.296875q0 -7.828125 -0.75 -9.9375q-0.75 -2.109375 -2.65625 -3.34375q-1.890625 -1.25 -4.75 -1.25q-3.28125 0 -5.859375 1.59375q-2.578125 1.59375 -3.78125 4.8125q-1.1875 3.203125 -1.1875 9.484375l0 24.9375l-13.171875 0l0 -68.71875l13.171875 0zm42.46875 43.125q0 -6.5625 3.234375 -12.703125q3.234375 -6.140625 9.15625 -9.375q5.9375 -3.234375 13.25 -3.234375q11.296875 0 18.515625 7.34375q7.21875 7.328125 7.21875 18.53125q0 11.296875 -7.296875 18.734375q-7.28125 7.421875 -18.34375 7.421875q-6.84375 0 -13.0625 -3.09375q-6.203125 -3.09375 -9.4375 -9.0625q-3.234375 -5.984375 -3.234375 -14.5625zm13.5 0.703125q0 7.40625 3.515625 11.34375q3.515625 3.9375 8.671875 3.9375q5.15625 0 8.640625 -3.9375q3.5 -3.9375 3.5 -11.4375q0 -7.3125 -3.5 -11.25q-3.484375 -3.9375 -8.640625 -3.9375q-5.15625 0 -8.671875 3.9375q-3.515625 3.9375 -3.515625 11.34375zm93.46875 24.890625l-13.171875 0l0 -25.40625q0 -8.0625 -0.84375 -10.421875q-0.84375 -2.375 -2.75 -3.6875q-1.890625 -1.3125 -4.5625 -1.3125q-3.421875 0 -6.140625 1.875q-2.71875 1.875 -3.734375 4.96875q-1.0 3.09375 -1.0 11.4375l0 22.546875l-13.171875 0l0 -49.78125l12.234375 0l0 7.3125q6.515625 -8.4375 16.40625 -8.4375q4.359375 0 7.96875 1.578125q3.609375 1.5625 5.453125 4.0q1.859375 2.4375 2.578125 5.53125q0.734375 3.09375 0.734375 8.859375l0 30.9375z" fill-rule="nonzero"></path><path fill="#5b595a" d="m56.90625 587.1674l17.59375 -45.8125l6.53125 0l18.75 45.8125l-6.90625 0l-5.34375 -13.875l-19.15625 0l-5.03125 13.875l-6.4375 0zm13.21875 -18.8125l15.53125 0l-4.78125 -12.6875q-2.1875 -5.78125 -3.25 -9.5q-0.875 4.40625 -2.46875 8.75l-5.03125 13.4375zm30.8125 18.8125l0 -4.5625l21.125 -24.25q-3.59375 0.1875 -6.34375 0.1875l-13.53125 0l0 -4.5625l27.125 0l0 3.71875l-17.96875 21.0625l-3.46875 3.84375q3.78125 -0.28125 7.09375 -0.28125l15.34375 0l0 4.84375l-29.375 0zm56.625 -4.09375q-3.125 2.65625 -6.015625 3.75q-2.890625 1.09375 -6.203125 1.09375q-5.46875 0 -8.40625 -2.671875q-2.9375 -2.671875 -2.9375 -6.828125q0 -2.4375 1.109375 -4.453125q1.109375 -2.015625 2.90625 -3.234375q1.796875 -1.21875 4.046875 -1.84375q1.65625 -0.4375 5.0 -0.84375q6.8125 -0.8125 10.03125 -1.9375q0.03125 -1.15625 0.03125 -1.46875q0 -3.4375 -1.59375 -4.84375q-2.15625 -1.90625 -6.40625 -1.90625q-3.96875 0 -5.859375 1.390625q-1.890625 1.390625 -2.796875 4.921875l-5.5 -0.75q0.75 -3.53125 2.46875 -5.703125q1.71875 -2.171875 4.96875 -3.34375q3.25 -1.171875 7.53125 -1.171875q4.25 0 6.90625 1.0q2.65625 1.0 3.90625 2.515625q1.25 1.515625 1.75 3.828125q0.28125 1.4375 0.28125 5.1875l0 7.5q0 7.84375 0.359375 9.921875q0.359375 2.078125 1.421875 3.984375l-5.875 0q-0.875 -1.75 -1.125 -4.09375zm-0.46875 -12.5625q-3.0625 1.25 -9.1875 2.125q-3.46875 0.5 -4.90625 1.125q-1.4375 0.625 -2.21875 1.828125q-0.78125 1.203125 -0.78125 2.671875q0 2.25 1.703125 3.75q1.703125 1.5 4.984375 1.5q3.25 0 5.78125 -1.421875q2.53125 -1.421875 3.71875 -3.890625q0.90625 -1.90625 0.90625 -5.625l0 -2.0625zm14.28125 16.65625l0 -45.8125l5.625 0l0 45.8125l-5.625 0zm37.0625 -10.6875l5.8125 0.71875q-1.375 5.09375 -5.09375 7.90625q-3.71875 2.8125 -9.5 2.8125q-7.28125 0 -11.546875 -4.484375q-4.265625 -4.484375 -4.265625 -12.578125q0 -8.375 4.3125 -13.0q4.3125 -4.625 11.1875 -4.625q6.65625 0 10.875 4.53125q4.21875 4.53125 4.21875 12.75q0 0.5 -0.03125 1.5l-24.75 0q0.3125 5.46875 3.09375 8.375q2.78125 2.90625 6.9375 2.90625q3.09375 0 5.28125 -1.625q2.1875 -1.625 3.46875 -5.1875zm-18.46875 -9.09375l18.53125 0q-0.375 -4.1875 -2.125 -6.28125q-2.6875 -3.25 -6.96875 -3.25q-3.875 0 -6.515625 2.59375q-2.640625 2.59375 -2.921875 6.9375zm54.0625 9.09375l5.8125 0.71875q-1.375 5.09375 -5.09375 7.90625q-3.71875 2.8125 -9.5 2.8125q-7.28125 0 -11.546875 -4.484375q-4.265625 -4.484375 -4.265625 -12.578125q0 -8.375 4.3125 -13.0q4.3125 -4.625 11.1875 -4.625q6.65625 0 10.875 4.53125q4.21875 4.53125 4.21875 12.75q0 0.5 -0.03125 1.5l-24.75 0q0.3125 5.46875 3.09375 8.375q2.78125 2.90625 6.9375 2.90625q3.09375 0 5.28125 -1.625q2.1875 -1.625 3.46875 -5.1875zm-18.46875 -9.09375l18.53125 0q-0.375 -4.1875 -2.125 -6.28125q-2.6875 -3.25 -6.96875 -3.25q-3.875 0 -6.515625 2.59375q-2.640625 2.59375 -2.921875 6.9375zm49.59375 19.78125l0 -45.8125l17.1875 0q5.25 0 8.421875 1.390625q3.171875 1.390625 4.96875 4.28125q1.796875 2.890625 1.796875 6.046875q0 2.9375 -1.59375 5.53125q-1.59375 2.59375 -4.8125 4.1875q4.15625 1.21875 6.390625 4.15625q2.234375 2.9375 2.234375 6.9375q0 3.21875 -1.359375 5.984375q-1.359375 2.765625 -3.359375 4.265625q-2.0 1.5 -5.015625 2.265625q-3.015625 0.765625 -7.390625 0.765625l-17.46875 0zm6.0625 -26.5625l9.90625 0q4.03125 0 5.78125 -0.53125q2.3125 -0.6875 3.484375 -2.28125q1.171875 -1.59375 1.171875 -4.0q0 -2.28125 -1.09375 -4.015625q-1.09375 -1.734375 -3.125 -2.375q-2.03125 -0.640625 -6.96875 -0.640625l-9.15625 0l0 13.84375zm0 21.15625l11.40625 0q2.9375 0 4.125 -0.21875q2.09375 -0.375 3.5 -1.25q1.40625 -0.875 2.3125 -2.546875q0.90625 -1.671875 0.90625 -3.859375q0 -2.5625 -1.3125 -4.453125q-1.3125 -1.890625 -3.640625 -2.65625q-2.328125 -0.765625 -6.703125 -0.765625l-10.59375 0l0 15.75zm34.0625 -11.1875q0 -9.21875 5.125 -13.65625q4.28125 -3.6875 10.4375 -3.6875q6.84375 0 11.1875 4.484375q4.34375 4.484375 4.34375 12.390625q0 6.40625 -1.921875 10.078125q-1.921875 3.671875 -5.59375 5.703125q-3.671875 2.03125 -8.015625 2.03125q-6.96875 0 -11.265625 -4.46875q-4.296875 -4.46875 -4.296875 -12.875zm5.78125 0q0 6.375 2.78125 9.546875q2.78125 3.171875 7.0 3.171875q4.1875 0 6.96875 -3.1875q2.78125 -3.1875 2.78125 -9.71875q0 -6.15625 -2.796875 -9.328125q-2.796875 -3.171875 -6.953125 -3.171875q-4.21875 0 -7.0 3.15625q-2.78125 3.15625 -2.78125 9.53125zm29.65625 6.6875l5.5625 -0.875q0.46875 3.34375 2.609375 5.125q2.140625 1.78125 5.984375 1.78125q3.875 0 5.75 -1.578125q1.875 -1.578125 1.875 -3.703125q0 -1.90625 -1.65625 -3.0q-1.15625 -0.75 -5.75 -1.90625q-6.1875 -1.5625 -8.578125 -2.703125q-2.390625 -1.140625 -3.625 -3.15625q-1.234375 -2.015625 -1.234375 -4.453125q0 -2.21875 1.015625 -4.109375q1.015625 -1.890625 2.765625 -3.140625q1.3125 -0.96875 3.578125 -1.640625q2.265625 -0.671875 4.859375 -0.671875q3.90625 0 6.859375 1.125q2.953125 1.125 4.359375 3.046875q1.40625 1.921875 1.9375 5.140625l-5.5 0.75q-0.375 -2.5625 -2.171875 -4.0q-1.796875 -1.4375 -5.078125 -1.4375q-3.875 0 -5.53125 1.28125q-1.65625 1.28125 -1.65625 3.0q0 1.09375 0.6875 1.96875q0.6875 0.90625 2.15625 1.5q0.84375 0.3125 4.96875 1.4375q5.96875 1.59375 8.328125 2.609375q2.359375 1.015625 3.703125 2.953125q1.34375 1.9375 1.34375 4.8125q0 2.8125 -1.640625 5.296875q-1.640625 2.484375 -4.734375 3.84375q-3.09375 1.359375 -7.0 1.359375q-6.46875 0 -9.859375 -2.6875q-3.390625 -2.6875 -4.328125 -7.96875zm46.53125 4.875l0.8125 4.96875q-2.375 0.5 -4.25 0.5q-3.0625 0 -4.75 -0.96875q-1.6875 -0.96875 -2.375 -2.546875q-0.6875 -1.578125 -0.6875 -6.640625l0 -19.09375l-4.125 0l0 -4.375l4.125 0l0 -8.21875l5.59375 -3.375l0 11.59375l5.65625 0l0 4.375l-5.65625 0l0 19.40625q0 2.40625 0.296875 3.09375q0.296875 0.6875 0.96875 1.09375q0.671875 0.40625 1.921875 0.40625q0.9375 0 2.46875 -0.21875zm5.4375 5.03125l0 -33.1875l5.0625 0l0 5.03125q1.9375 -3.53125 3.578125 -4.65625q1.640625 -1.125 3.609375 -1.125q2.84375 0 5.78125 1.8125l-1.9375 5.21875q-2.0625 -1.21875 -4.125 -1.21875q-1.84375 0 -3.3125 1.109375q-1.46875 1.109375 -2.09375 3.078125q-0.9375 3.0 -0.9375 6.5625l0 17.375l-5.625 0zm19.28125 -16.59375q0 -9.21875 5.125 -13.65625q4.28125 -3.6875 10.4375 -3.6875q6.84375 0 11.1875 4.484375q4.34375 4.484375 4.34375 12.390625q0 6.40625 -1.921875 10.078125q-1.921875 3.671875 -5.59375 5.703125q-3.671875 2.03125 -8.015625 2.03125q-6.96875 0 -11.265625 -4.46875q-4.296875 -4.46875 -4.296875 -12.875zm5.78125 0q0 6.375 2.78125 9.546875q2.78125 3.171875 7.0 3.171875q4.1875 0 6.96875 -3.1875q2.78125 -3.1875 2.78125 -9.71875q0 -6.15625 -2.796875 -9.328125q-2.796875 -3.171875 -6.953125 -3.171875q-4.21875 0 -7.0 3.15625q-2.78125 3.15625 -2.78125 9.53125zm54.625 5.90625l5.8125 0.71875q-1.375 5.09375 -5.09375 7.90625q-3.71875 2.8125 -9.5 2.8125q-7.28125 0 -11.546875 -4.484375q-4.265625 -4.484375 -4.265625 -12.578125q0 -8.375 4.3125 -13.0q4.3125 -4.625 11.1875 -4.625q6.65625 0 10.875 4.53125q4.21875 4.53125 4.21875 12.75q0 0.5 -0.03125 1.5l-24.75 0q0.3125 5.46875 3.09375 8.375q2.78125 2.90625 6.9375 2.90625q3.09375 0 5.28125 -1.625q2.1875 -1.625 3.46875 -5.1875zm-18.46875 -9.09375l18.53125 0q-0.375 -4.1875 -2.125 -6.28125q-2.6875 -3.25 -6.96875 -3.25q-3.875 0 -6.515625 2.59375q-2.640625 2.59375 -2.921875 6.9375zm31.34375 19.78125l0 -33.1875l5.03125 0l0 4.65625q1.5625 -2.4375 4.15625 -3.921875q2.59375 -1.484375 5.90625 -1.484375q3.6875 0 6.046875 1.53125q2.359375 1.53125 3.328125 4.28125q3.9375 -5.8125 10.25 -5.8125q4.9375 0 7.59375 2.734375q2.65625 2.734375 2.65625 8.421875l0 22.78125l-5.59375 0l0 -20.90625q0 -3.375 -0.546875 -4.859375q-0.546875 -1.484375 -1.984375 -2.390625q-1.4375 -0.90625 -3.375 -0.90625q-3.5 0 -5.8125 2.328125q-2.3125 2.328125 -2.3125 7.453125l0 19.28125l-5.625 0l0 -21.5625q0 -3.75 -1.375 -5.625q-1.375 -1.875 -4.5 -1.875q-2.375 0 -4.390625 1.25q-2.015625 1.25 -2.921875 3.65625q-0.90625 2.40625 -0.90625 6.9375l0 17.21875l-5.625 0z" fill-rule="nonzero"></path><path fill="#000000" d="m748.773 685.0008l0 -1.609375l5.765625 0l0 5.046875q-1.328125 1.0625 -2.75 1.59375q-1.40625 0.53125 -2.890625 0.53125q-2.0 0 -3.640625 -0.859375q-1.625 -0.859375 -2.46875 -2.484375q-0.828125 -1.625 -0.828125 -3.625q0 -1.984375 0.828125 -3.703125q0.828125 -1.71875 2.390625 -2.546875q1.5625 -0.84375 3.59375 -0.84375q1.46875 0 2.65625 0.484375q1.203125 0.46875 1.875 1.328125q0.671875 0.84375 1.03125 2.21875l-1.625 0.4375q-0.3125 -1.03125 -0.765625 -1.625q-0.453125 -0.59375 -1.296875 -0.953125q-0.84375 -0.359375 -1.875 -0.359375q-1.234375 0 -2.140625 0.375q-0.890625 0.375 -1.453125 1.0q-0.546875 0.609375 -0.84375 1.34375q-0.53125 1.25 -0.53125 2.734375q0 1.8125 0.625 3.046875q0.640625 1.21875 1.828125 1.8125q1.203125 0.59375 2.546875 0.59375q1.171875 0 2.28125 -0.453125q1.109375 -0.453125 1.6875 -0.953125l0 -2.53125l-4.0 0zm8.089539 5.328125l0 -13.59375l2.71875 0l3.21875 9.625q0.4375 1.34375 0.640625 2.015625q0.234375 -0.75 0.734375 -2.1875l3.25 -9.453125l2.421875 0l0 13.59375l-1.734375 0l0 -11.390625l-3.953125 11.390625l-1.625 0l-3.9375 -11.578125l0 11.578125l-1.734375 0zm24.525208 -13.59375l1.796875 0l0 7.84375q0 2.0625 -0.46875 3.265625q-0.453125 1.203125 -1.671875 1.96875q-1.203125 0.75 -3.171875 0.75q-1.90625 0 -3.125 -0.65625q-1.21875 -0.65625 -1.734375 -1.90625q-0.515625 -1.25 -0.515625 -3.421875l0 -7.84375l1.796875 0l0 7.84375q0 1.765625 0.328125 2.609375q0.328125 0.84375 1.125 1.296875q0.8125 0.453125 1.96875 0.453125q1.984375 0 2.828125 -0.890625q0.84375 -0.90625 0.84375 -3.46875l0 -7.84375zm9.1875 6.96875q0 -3.390625 1.8125 -5.296875q1.828125 -1.921875 4.703125 -1.921875q1.875 0 3.390625 0.90625q1.515625 0.890625 2.296875 2.5q0.796875 1.609375 0.796875 3.65625q0 2.0625 -0.84375 3.703125q-0.828125 1.625 -2.359375 2.46875q-1.53125 0.84375 -3.296875 0.84375q-1.921875 0 -3.4375 -0.921875q-1.5 -0.9375 -2.28125 -2.53125q-0.78125 -1.609375 -0.78125 -3.40625zm1.859375 0.03125q0 2.453125 1.3125 3.875q1.328125 1.40625 3.3125 1.40625q2.03125 0 3.34375 -1.421875q1.3125 -1.4375 1.3125 -4.0625q0 -1.65625 -0.5625 -2.890625q-0.546875 -1.234375 -1.640625 -1.921875q-1.078125 -0.6875 -2.421875 -0.6875q-1.90625 0 -3.28125 1.3125q-1.375 1.3125 -1.375 4.390625zm19.417664 2.984375l1.640625 0.21875q-0.265625 1.6875 -1.375 2.65625q-1.109375 0.953125 -2.734375 0.953125q-2.015625 0 -3.25 -1.3125q-1.21875 -1.328125 -1.21875 -3.796875q0 -1.59375 0.515625 -2.78125q0.53125 -1.203125 1.609375 -1.796875q1.09375 -0.609375 2.359375 -0.609375q1.609375 0 2.625 0.8125q1.015625 0.8125 1.3125 2.3125l-1.625 0.25q-0.234375 -1.0 -0.828125 -1.5q-0.59375 -0.5 -1.421875 -0.5q-1.265625 0 -2.0625 0.90625q-0.78125 0.90625 -0.78125 2.859375q0 1.984375 0.765625 2.890625q0.765625 0.890625 1.984375 0.890625q0.984375 0 1.640625 -0.59375q0.65625 -0.609375 0.84375 -1.859375zm6.546875 2.109375l0.234375 1.484375q-0.703125 0.140625 -1.265625 0.140625q-0.90625 0 -1.40625 -0.28125q-0.5 -0.296875 -0.703125 -0.75q-0.203125 -0.46875 -0.203125 -1.984375l0 -5.65625l-1.234375 0l0 -1.3125l1.234375 0l0 -2.4375l1.65625 -1.0l0 3.4375l1.6875 0l0 1.3125l-1.6875 0l0 5.75q0 0.71875 0.078125 0.921875q0.09375 0.203125 0.296875 0.328125q0.203125 0.125 0.578125 0.125q0.265625 0 0.734375 -0.078125zm15.022827 -0.109375l0 1.609375l-8.984375 0q-0.015625 -0.609375 0.1875 -1.15625q0.34375 -0.921875 1.09375 -1.8125q0.765625 -0.890625 2.1875 -2.0625q2.21875 -1.8125 3.0 -2.875q0.78125 -1.0625 0.78125 -2.015625q0 -0.984375 -0.71875 -1.671875q-0.703125 -0.6875 -1.84375 -0.6875q-1.203125 0 -1.9375 0.734375q-0.71875 0.71875 -0.71875 2.0l-1.71875 -0.171875q0.171875 -1.921875 1.328125 -2.921875q1.15625 -1.015625 3.09375 -1.015625q1.953125 0 3.09375 1.09375q1.140625 1.078125 1.140625 2.6875q0 0.8125 -0.34375 1.609375q-0.328125 0.78125 -1.109375 1.65625q-0.765625 0.859375 -2.5625 2.390625q-1.5 1.265625 -1.9375 1.71875q-0.421875 0.4375 -0.703125 0.890625l6.671875 0zm1.5944824 -1.953125l1.765625 -0.15625q0.1875 1.28125 0.890625 1.9375q0.71875 0.640625 1.71875 0.640625q1.203125 0 2.03125 -0.90625q0.84375 -0.90625 0.84375 -2.421875q0 -1.421875 -0.8125 -2.25q-0.796875 -0.828125 -2.09375 -0.828125q-0.796875 0 -1.453125 0.375q-0.640625 0.359375 -1.015625 0.953125l-1.578125 -0.203125l1.328125 -7.0l6.765625 0l0 1.609375l-5.4375 0l-0.734375 3.640625q1.234375 -0.84375 2.578125 -0.84375q1.78125 0 3.0 1.234375q1.234375 1.234375 1.234375 3.171875q0 1.84375 -1.078125 3.1875q-1.3125 1.65625 -3.578125 1.65625q-1.859375 0 -3.03125 -1.03125q-1.171875 -1.046875 -1.34375 -2.765625zm10.203857 -0.515625l0 -1.6875l5.125 0l0 1.6875l-5.125 0zm15.1657715 2.46875l0 1.609375l-8.984375 0q-0.015625 -0.609375 0.1875 -1.15625q0.34375 -0.921875 1.09375 -1.8125q0.765625 -0.890625 2.1875 -2.0625q2.21875 -1.8125 3.0 -2.875q0.78125 -1.0625 0.78125 -2.015625q0 -0.984375 -0.71875 -1.671875q-0.703125 -0.6875 -1.84375 -0.6875q-1.203125 0 -1.9375 0.734375q-0.71875 0.71875 -0.71875 2.0l-1.71875 -0.171875q0.171875 -1.921875 1.328125 -2.921875q1.15625 -1.015625 3.09375 -1.015625q1.953125 0 3.09375 1.09375q1.140625 1.078125 1.140625 2.6875q0 0.8125 -0.34375 1.609375q-0.328125 0.78125 -1.109375 1.65625q-0.765625 0.859375 -2.5625 2.390625q-1.5 1.265625 -1.9375 1.71875q-0.421875 0.4375 -0.703125 0.890625l6.671875 0zm10.266357 -8.65625l-1.65625 0.125q-0.21875 -0.984375 -0.640625 -1.421875q-0.671875 -0.71875 -1.65625 -0.71875q-0.8125 0 -1.40625 0.4375q-0.796875 0.578125 -1.25 1.6875q-0.453125 1.09375 -0.46875 3.140625q0.609375 -0.921875 1.46875 -1.359375q0.875 -0.453125 1.828125 -0.453125q1.671875 0 2.84375 1.234375q1.171875 1.234375 1.171875 3.171875q0 1.28125 -0.546875 2.390625q-0.546875 1.09375 -1.515625 1.6875q-0.96875 0.578125 -2.1875 0.578125q-2.09375 0 -3.40625 -1.53125q-1.3125 -1.546875 -1.3125 -5.0625q0 -3.953125 1.453125 -5.734375q1.265625 -1.5625 3.421875 -1.5625q1.609375 0 2.625 0.90625q1.03125 0.890625 1.234375 2.484375zm-6.8125 5.859375q0 0.859375 0.359375 1.65625q0.375 0.78125 1.03125 1.203125q0.65625 0.40625 1.375 0.40625q1.0625 0 1.8125 -0.84375q0.765625 -0.859375 0.765625 -2.328125q0 -1.40625 -0.75 -2.21875q-0.75 -0.8125 -1.890625 -0.8125q-1.125 0 -1.921875 0.8125q-0.78125 0.8125 -0.78125 2.125zm9.422607 4.40625l0 -1.90625l1.90625 0l0 1.90625q0 1.046875 -0.375 1.6875q-0.375 0.65625 -1.171875 1.0l-0.46875 -0.71875q0.53125 -0.21875 0.78125 -0.671875q0.25 -0.453125 0.28125 -1.296875l-0.953125 0zm18.241577 -1.609375l0 1.609375l-8.984375 0q-0.015625 -0.609375 0.1875 -1.15625q0.34375 -0.921875 1.09375 -1.8125q0.765625 -0.890625 2.1875 -2.0625q2.21875 -1.8125 3.0 -2.875q0.78125 -1.0625 0.78125 -2.015625q0 -0.984375 -0.71875 -1.671875q-0.703125 -0.6875 -1.84375 -0.6875q-1.203125 0 -1.9375 0.734375q-0.71875 0.71875 -0.71875 2.0l-1.71875 -0.171875q0.171875 -1.921875 1.328125 -2.921875q1.15625 -1.015625 3.09375 -1.015625q1.953125 0 3.09375 1.09375q1.140625 1.078125 1.140625 2.6875q0 0.8125 -0.34375 1.609375q-0.328125 0.78125 -1.109375 1.65625q-0.765625 0.859375 -2.5625 2.390625q-1.5 1.265625 -1.9375 1.71875q-0.421875 0.4375 -0.703125 0.890625l6.671875 0zm1.5944824 -5.09375q0 -2.421875 0.5 -3.890625q0.5 -1.46875 1.46875 -2.265625q0.984375 -0.796875 2.46875 -0.796875q1.09375 0 1.921875 0.4375q0.828125 0.4375 1.359375 1.28125q0.546875 0.828125 0.84375 2.015625q0.3125 1.1875 0.3125 3.21875q0 2.390625 -0.5 3.859375q-0.484375 1.46875 -1.46875 2.28125q-0.96875 0.796875 -2.46875 0.796875q-1.96875 0 -3.078125 -1.40625q-1.359375 -1.703125 -1.359375 -5.53125zm1.71875 0q0 3.34375 0.78125 4.453125q0.796875 1.109375 1.9375 1.109375q1.15625 0 1.9375 -1.109375q0.78125 -1.125 0.78125 -4.453125q0 -3.359375 -0.78125 -4.46875q-0.78125 -1.109375 -1.953125 -1.109375q-1.15625 0 -1.828125 0.984375q-0.875 1.234375 -0.875 4.59375zm14.953857 6.703125l-1.671875 0l0 -10.640625q-0.59375 0.578125 -1.578125 1.15625q-0.984375 0.5625 -1.765625 0.859375l0 -1.625q1.40625 -0.65625 2.453125 -1.59375q1.046875 -0.9375 1.484375 -1.8125l1.078125 0l0 13.65625zm12.860107 -1.609375l0 1.609375l-8.984375 0q-0.015625 -0.609375 0.1875 -1.15625q0.34375 -0.921875 1.09375 -1.8125q0.765625 -0.890625 2.1875 -2.0625q2.21875 -1.8125 3.0 -2.875q0.78125 -1.0625 0.78125 -2.015625q0 -0.984375 -0.71875 -1.671875q-0.703125 -0.6875 -1.84375 -0.6875q-1.203125 0 -1.9375 0.734375q-0.71875 0.71875 -0.71875 2.0l-1.71875 -0.171875q0.171875 -1.921875 1.328125 -2.921875q1.15625 -1.015625 3.09375 -1.015625q1.953125 0 3.09375 1.09375q1.140625 1.078125 1.140625 2.6875q0 0.8125 -0.34375 1.609375q-0.328125 0.78125 -1.109375 1.65625q-0.765625 0.859375 -2.5625 2.390625q-1.5 1.265625 -1.9375 1.71875q-0.421875 0.4375 -0.703125 0.890625l6.671875 0z" fill-rule="nonzero"></path></g></svg>

