<?xml version="1.0" encoding="UTF-8" standalone="no"?>
<!-- Generator: Adobe Illustrator 15.0.0, SVG Export Plug-In . SVG Version: 6.00 Build 0)  -->

<svg
   xmlns:dc="http://purl.org/dc/elements/1.1/"
   xmlns:cc="http://creativecommons.org/ns#"
   xmlns:rdf="http://www.w3.org/1999/02/22-rdf-syntax-ns#"
   xmlns:svg="http://www.w3.org/2000/svg"
   xmlns="http://www.w3.org/2000/svg"
   xmlns:sodipodi="http://sodipodi.sourceforge.net/DTD/sodipodi-0.dtd"
   xmlns:inkscape="http://www.inkscape.org/namespaces/inkscape"
   version="1.1"
   id="Layer_1"
   x="0px"
   y="0px"
   width="490.70401"
   height="195.11328"
   viewBox="0 0 490.70401 195.11328"
   enable-background="new 0 0 792 612"
   xml:space="preserve"
   inkscape:version="0.48.2 r9819"
   sodipodi:docname="shirt-logo.svg"
   inkscape:export-filename="C:\cygwin\home\Owner\shirt.png"
   inkscape:export-xdpi="300"
   inkscape:export-ydpi="300"><metadata
   id="metadata3401"><rdf:RDF><cc:Work
       rdf:about=""><dc:format>image/svg+xml</dc:format><dc:type
         rdf:resource="http://purl.org/dc/dcmitype/StillImage" /><dc:title></dc:title></cc:Work></rdf:RDF></metadata><defs
   id="defs3399">
	
	
</defs><sodipodi:namedview
   pagecolor="#ffffff"
   bordercolor="#666666"
   borderopacity="1"
   objecttolerance="10"
   gridtolerance="10"
   guidetolerance="10"
   inkscape:pageopacity="0"
   inkscape:pageshadow="2"
   inkscape:window-width="1280"
   inkscape:window-height="752"
   id="namedview3397"
   showgrid="false"
   inkscape:zoom="1.9019608"
   inkscape:cx="394.59643"
   inkscape:cy="17.32964"
   inkscape:window-x="0"
   inkscape:window-y="0"
   inkscape:window-maximized="1"
   inkscape:current-layer="Layer_1"
   fit-margin-top="0"
   fit-margin-left="0"
   fit-margin-right="0"
   fit-margin-bottom="0" />






<g
   id="g3468"
   transform="translate(-1.40357,-4.0307904)"><g
     transform="matrix(2,0,0,2,-810.38443,-450.43793)"
     id="g3307">
	<path
   id="path3309"
   d="m 422.657,286.751 c 0.688,-1.008 1.038,-2.24 1.038,-3.661 0,-0.93 -0.264,-1.772 -0.778,-2.499 -0.517,-0.731 -1.296,-1.376 -2.306,-1.916 -1.027,-0.547 -2.366,-1.025 -3.977,-1.418 -1.402,-0.34 -2.463,-0.62 -3.246,-0.848 -0.799,-0.238 -1.44,-0.543 -1.915,-0.904 -0.492,-0.375 -0.744,-0.868 -0.744,-1.461 0,-0.651 0.339,-1.197 1.007,-1.625 0.645,-0.417 1.467,-0.626 2.441,-0.626 0.943,0 1.707,0.162 2.262,0.481 0.554,0.313 1.04,0.742 1.45,1.267 0.479,0.606 0.911,1.065 1.28,1.37 0.354,0.286 0.793,0.431 1.297,0.431 0.709,0 1.26,-0.181 1.637,-0.542 0.383,-0.364 0.567,-0.817 0.567,-1.394 0,-0.523 -0.184,-1.069 -0.546,-1.626 -0.368,-0.558 -0.913,-1.079 -1.623,-1.542 -0.714,-0.468 -1.615,-0.844 -2.681,-1.121 -1.073,-0.281 -2.301,-0.422 -3.644,-0.422 -1.713,0 -3.191,0.279 -4.393,0.827 -1.199,0.547 -2.121,1.288 -2.735,2.204 -0.612,0.913 -0.921,1.894 -0.921,2.916 0,1.15 0.333,2.125 0.992,2.91 0.663,0.789 1.564,1.434 2.682,1.922 1.128,0.49 2.613,0.965 4.407,1.41 1.609,0.387 2.787,0.8 3.499,1.231 0.738,0.448 1.114,1.166 1.114,2.137 0,0.647 -0.36,1.226 -1.069,1.716 -0.691,0.482 -1.59,0.729 -2.67,0.729 -1.318,0 -2.376,-0.243 -3.145,-0.714 -0.768,-0.47 -1.434,-1.195 -1.985,-2.146 -0.259,-0.476 -0.538,-0.851 -0.821,-1.108 -0.27,-0.247 -0.666,-0.371 -1.188,-0.371 -0.6,0 -1.082,0.19 -1.469,0.577 -0.392,0.391 -0.58,0.848 -0.58,1.394 0,0.845 0.316,1.697 0.938,2.537 0.627,0.843 1.615,1.559 2.938,2.128 1.33,0.571 2.949,0.857 4.811,0.857 1.955,0 3.637,-0.266 5,-0.791 1.35,-0.523 2.384,-1.298 3.076,-2.309 z"
   inkscape:connector-curvature="0"
   style="fill:#2b3990" />
	<path
   id="path3311"
   d="m 460.055,260.862 c -1.709,0 -3.071,0.221 -4.049,0.654 -0.961,0.429 -1.654,1.121 -2.057,2.054 -0.406,0.951 -0.615,2.254 -0.615,3.876 v 1.713 h -1.384 c -1.692,0 -2.513,0.574 -2.513,1.759 0,0.529 0.191,0.947 0.59,1.28 0.398,0.331 0.98,0.5 1.73,0.5 h 1.576 v 14.079 c 0,1.006 0.239,1.775 0.709,2.294 0.475,0.525 1.053,0.776 1.767,0.776 0.739,0 1.354,-0.258 1.823,-0.776 0.469,-0.519 0.709,-1.292 0.709,-2.294 v -14.079 h 1.422 c 0.916,0 1.642,-0.116 2.158,-0.338 0.485,-0.209 0.722,-0.708 0.722,-1.521 0,-1.13 -0.942,-1.68 -2.88,-1.68 h -1.422 v -1.386 c 0,-1.056 0.141,-1.883 0.416,-2.461 0.293,-0.603 0.95,-0.911 1.951,-0.911 0.353,0 0.789,0.042 1.294,0.117 0.493,0.076 0.843,0.114 1.04,0.114 0.403,0 0.745,-0.156 1.044,-0.481 0.302,-0.324 0.448,-0.703 0.448,-1.164 0.001,-1.411 -1.507,-2.125 -4.479,-2.125 z"
   inkscape:connector-curvature="0"
   style="fill:#2b3990" />
	<path
   id="path3313"
   d="m 478.371,287.357 c 0,-0.465 -0.161,-0.859 -0.475,-1.176 -0.318,-0.314 -0.664,-0.47 -1.057,-0.47 -0.283,0 -0.688,0.054 -1.207,0.159 -0.535,0.114 -0.967,0.171 -1.282,0.171 -0.601,0 -1.046,-0.159 -1.319,-0.457 -0.269,-0.299 -0.435,-0.687 -0.496,-1.156 -0.061,-0.445 -0.088,-1.089 -0.088,-1.915 v -9.815 h 1.113 c 1.019,0 1.809,-0.138 2.344,-0.411 0.516,-0.26 0.768,-0.708 0.768,-1.369 0,-0.512 -0.184,-0.936 -0.546,-1.263 -0.366,-0.331 -0.909,-0.497 -1.62,-0.497 h -2.059 v -3.72 c 0,-0.876 -0.048,-1.561 -0.143,-2.032 -0.09,-0.455 -0.301,-0.835 -0.646,-1.154 -0.514,-0.477 -1.094,-0.718 -1.725,-0.718 -0.448,0 -0.862,0.107 -1.227,0.32 -0.364,0.213 -0.647,0.491 -0.843,0.831 -0.194,0.331 -0.316,0.73 -0.356,1.19 -0.048,0.476 -0.068,1.147 -0.068,1.984 v 3.298 h -0.709 c -0.761,0 -1.348,0.166 -1.74,0.497 -0.389,0.33 -0.579,0.746 -0.579,1.263 0,0.518 0.181,0.935 0.555,1.273 0.372,0.333 0.925,0.506 1.649,0.506 h 0.824 v 10.241 c 0,1.613 0.131,2.92 0.39,3.882 0.255,0.94 0.798,1.686 1.617,2.219 0.825,0.54 2.059,0.808 3.671,0.808 1.708,0 3.033,-0.223 3.936,-0.66 0.887,-0.427 1.318,-1.027 1.318,-1.829 z"
   inkscape:connector-curvature="0"
   style="fill:#2b3990" />
	<path
   id="path3315"
   d="m 504.193,285.788 4.305,-12.617 c 0.391,-1.073 0.59,-1.886 0.59,-2.406 0,-0.554 -0.221,-1.04 -0.653,-1.451 -0.438,-0.408 -0.96,-0.62 -1.55,-0.62 -0.596,0 -1.057,0.133 -1.364,0.401 -0.316,0.275 -0.542,0.596 -0.677,0.951 -0.139,0.368 -0.325,0.988 -0.555,1.833 l -3.602,12.199 -3.248,-11.369 c -0.32,-1.093 -0.571,-1.861 -0.748,-2.296 -0.171,-0.419 -0.472,-0.815 -0.898,-1.184 -0.417,-0.356 -1.01,-0.537 -1.758,-0.537 -0.736,0 -1.324,0.181 -1.74,0.537 -0.427,0.369 -0.718,0.752 -0.869,1.146 -0.161,0.411 -0.407,1.198 -0.74,2.333 l -3.25,11.372 -3.559,-12.201 c -0.344,-1.181 -0.668,-2.024 -0.971,-2.506 -0.282,-0.451 -0.842,-0.681 -1.663,-0.681 -0.617,0 -1.145,0.216 -1.569,0.638 -0.427,0.429 -0.636,0.896 -0.636,1.434 0,0.434 0.212,1.244 0.628,2.406 l 4.266,12.619 c 0.116,0.334 0.275,0.785 0.48,1.356 0.203,0.563 0.438,1.055 0.701,1.459 0.259,0.399 0.584,0.71 0.969,0.923 0.385,0.215 0.858,0.319 1.411,0.319 1.078,0 1.839,-0.343 2.263,-1.026 0.441,-0.715 0.859,-1.79 1.24,-3.197 l 3.037,-10.699 3.136,10.696 c 0.253,0.918 0.494,1.672 0.71,2.248 0.211,0.556 0.537,1.032 0.978,1.413 0.431,0.378 1.034,0.565 1.795,0.565 0.736,0 1.321,-0.175 1.74,-0.53 0.423,-0.356 0.739,-0.767 0.938,-1.226 0.203,-0.467 0.494,-1.242 0.863,-2.302 z"
   inkscape:connector-curvature="0"
   style="fill:#2b3990" />
	<path
   id="path3317"
   d="m 530.508,285.803 c -0.33,-1.084 -0.498,-2.135 -0.498,-3.137 0.012,-1.054 0.021,-2.015 0.028,-2.873 0.007,-0.864 0.01,-1.91 0.01,-3.145 0,-1.925 -0.27,-3.491 -0.809,-4.653 -0.53,-1.148 -1.451,-1.997 -2.739,-2.532 -1.299,-0.534 -3.12,-0.806 -5.408,-0.806 -2.047,0 -3.776,0.28 -5.142,0.837 -1.363,0.555 -2.374,1.27 -3.012,2.12 -0.637,0.847 -0.958,1.729 -0.958,2.622 0,0.559 0.197,1 0.602,1.358 0.402,0.357 0.891,0.536 1.447,0.536 0.614,0 1.012,-0.103 1.184,-0.309 0.194,-0.235 0.537,-0.725 1.014,-1.463 0.492,-0.76 1.094,-1.34 1.781,-1.721 0.693,-0.381 1.732,-0.575 3.084,-0.575 1.59,0 2.66,0.346 3.181,1.024 0.509,0.668 0.8,1.721 0.865,3.129 l 0.005,0.104 -0.1,0.029 c -1.078,0.313 -2.115,0.589 -3.082,0.822 -0.941,0.224 -2.088,0.476 -3.409,0.743 -1.399,0.286 -2.167,0.448 -2.486,0.521 -1.562,0.336 -2.804,1.013 -3.694,2.005 -0.887,0.986 -1.338,2.198 -1.338,3.6 0,1.037 0.273,2.013 0.812,2.904 0.537,0.889 1.314,1.603 2.312,2.119 0.999,0.523 2.179,0.786 3.501,0.786 1.453,0 2.785,-0.245 3.951,-0.73 1.178,-0.492 2.41,-1.235 3.665,-2.209 l 0.115,-0.092 0.077,0.124 c 0.581,0.949 1.139,1.684 1.657,2.182 0.499,0.481 1.007,0.726 1.51,0.726 0.606,0 1.159,-0.211 1.643,-0.634 0.482,-0.419 0.718,-0.871 0.718,-1.376 -10e-4,-0.297 -0.164,-0.978 -0.487,-2.036 z m -5.37,-5.662 c 0,1.841 -0.246,3.189 -0.731,4.002 -0.422,0.736 -1.092,1.346 -1.992,1.814 -0.895,0.465 -1.886,0.699 -2.943,0.699 -1.006,0 -1.834,-0.293 -2.461,-0.874 -0.631,-0.583 -0.949,-1.3 -0.949,-2.129 0,-0.809 0.275,-1.451 0.818,-1.906 0.527,-0.439 1.088,-0.741 1.672,-0.89 0.564,-0.152 1.595,-0.382 3.064,-0.699 1.464,-0.314 2.591,-0.613 3.348,-0.894 l 0.175,-0.065 v 0.942 z"
   inkscape:connector-curvature="0"
   style="fill:#2b3990" />
	<path
   id="path3319"
   d="m 546.867,269.51 c -1.017,-0.543 -2.082,-0.816 -3.161,-0.816 -1.069,0 -1.934,0.27 -2.569,0.799 -0.648,0.544 -1.29,1.357 -1.91,2.418 l -0.225,0.387 -0.018,-0.448 c -0.037,-1.051 -0.243,-1.851 -0.612,-2.379 -0.358,-0.517 -0.96,-0.777 -1.786,-0.777 -1.639,0 -2.435,1.118 -2.435,3.422 v 14.662 c 0,1.016 0.237,1.791 0.702,2.305 0.458,0.508 1.055,0.766 1.773,0.766 0.73,0 1.34,-0.254 1.814,-0.759 0.477,-0.505 0.719,-1.281 0.719,-2.312 v -4.399 c 0,-1.581 0.051,-2.938 0.15,-4.037 0.106,-1.101 0.295,-2.065 0.57,-2.875 0.275,-0.815 0.671,-1.443 1.178,-1.862 0.879,-0.729 2.176,-0.851 3.973,-0.274 0.902,0.291 1.236,0.354 1.358,0.354 0.478,0 0.93,-0.201 1.349,-0.594 0.42,-0.396 0.623,-0.884 0.623,-1.495 10e-4,-0.872 -0.485,-1.553 -1.493,-2.086 z"
   inkscape:connector-curvature="0"
   style="fill:#2b3990" />
	<path
   id="path3321"
   d="m 567.531,286.046 c 0.359,-0.614 0.541,-1.158 0.541,-1.605 0,-0.504 -0.148,-0.882 -0.457,-1.152 -0.307,-0.275 -0.721,-0.416 -1.226,-0.416 -0.468,0 -0.827,0.108 -1.072,0.319 -0.664,0.623 -1.19,1.103 -1.601,1.465 -0.411,0.362 -0.871,0.703 -1.365,1.026 -0.498,0.317 -1.02,0.558 -1.551,0.708 -0.528,0.151 -1.119,0.226 -1.76,0.226 -0.959,0 -1.85,-0.238 -2.645,-0.713 -0.796,-0.472 -1.443,-1.187 -1.92,-2.114 -0.477,-0.929 -0.726,-2.012 -0.738,-3.223 l -0.002,-0.132 h 10.436 c 1.348,0 2.405,-0.19 3.145,-0.574 0.707,-0.366 1.066,-1.193 1.066,-2.459 0,-1.396 -0.365,-2.796 -1.084,-4.145 -0.719,-1.347 -1.816,-2.465 -3.261,-3.318 -1.443,-0.851 -3.204,-1.28 -5.229,-1.28 -1.559,0 -2.997,0.252 -4.275,0.75 -1.272,0.499 -2.359,1.223 -3.232,2.156 -0.87,0.936 -1.543,2.074 -1.997,3.381 -0.457,1.313 -0.687,2.755 -0.687,4.287 0,3.255 0.936,5.869 2.778,7.765 1.845,1.894 4.467,2.851 7.8,2.851 1.457,0 2.765,-0.188 3.883,-0.57 1.121,-0.379 2.062,-0.861 2.799,-1.438 0.733,-0.571 1.291,-1.174 1.654,-1.795 z m -13.793,-8.485 c 0.184,-1.795 0.71,-3.173 1.569,-4.099 0.864,-0.929 1.983,-1.4 3.327,-1.4 1.406,0 2.557,0.463 3.423,1.381 0.858,0.91 1.36,2.299 1.489,4.121 l 0.012,0.14 h -9.832 l 0.012,-0.143 z"
   inkscape:connector-curvature="0"
   style="fill:#2b3990" />
	<path
   id="path3323"
   d="m 490.607,312.629 c 0.383,-0.723 0.572,-1.41 0.572,-2.042 0,-0.52 -0.201,-1.017 -0.603,-1.479 -0.399,-0.457 -0.903,-0.688 -1.503,-0.688 -0.504,0 -0.936,0.156 -1.283,0.468 -0.36,0.324 -0.701,0.781 -1.014,1.353 -0.592,1.022 -1.277,1.793 -2.043,2.286 -0.767,0.5 -1.703,0.756 -2.781,0.756 -0.8,0 -1.545,-0.157 -2.213,-0.468 -0.674,-0.311 -1.255,-0.771 -1.727,-1.367 -0.475,-0.597 -0.836,-1.327 -1.086,-2.168 -0.246,-0.834 -0.371,-1.766 -0.371,-2.765 0,-2.132 0.49,-3.835 1.455,-5.07 0.975,-1.243 2.275,-1.87 3.866,-1.87 1.103,0 2.026,0.256 2.745,0.756 0.711,0.497 1.398,1.25 2.052,2.236 0.349,0.486 0.668,0.842 0.946,1.056 0.265,0.208 0.604,0.313 1.01,0.313 0.63,0 1.176,-0.213 1.617,-0.621 0.447,-0.414 0.663,-0.908 0.663,-1.508 0,-0.592 -0.204,-1.241 -0.61,-1.932 -0.406,-0.695 -1.004,-1.361 -1.782,-1.979 -0.773,-0.617 -1.735,-1.131 -2.854,-1.523 -1.119,-0.39 -2.366,-0.589 -3.711,-0.589 -2.166,0 -4.052,0.451 -5.607,1.341 -1.551,0.889 -2.756,2.165 -3.573,3.797 -0.825,1.633 -1.242,3.541 -1.242,5.668 0,3.145 0.911,5.676 2.704,7.543 1.791,1.861 4.322,2.807 7.527,2.807 1.505,0 2.881,-0.207 4.087,-0.613 1.2,-0.402 2.208,-0.944 2.997,-1.605 0.79,-0.663 1.383,-1.37 1.762,-2.093 z"
   inkscape:connector-curvature="0"
   style="fill:#2b3990" />
	<path
   id="path3325"
   d="m 513.766,312.93 c -0.33,-1.082 -0.497,-2.134 -0.497,-3.137 0.015,-1.054 0.022,-2.014 0.03,-2.873 0.007,-0.863 0.01,-1.91 0.01,-3.145 0,-1.93 -0.271,-3.491 -0.809,-4.653 -0.53,-1.147 -1.451,-1.997 -2.736,-2.532 -1.305,-0.535 -3.123,-0.806 -5.412,-0.806 -2.047,0 -3.774,0.28 -5.142,0.837 -1.362,0.554 -2.375,1.27 -3.013,2.121 -0.635,0.847 -0.957,1.729 -0.957,2.621 0,0.559 0.195,1 0.602,1.357 0.411,0.361 0.885,0.537 1.448,0.537 0.614,0 1.011,-0.104 1.183,-0.31 0.197,-0.236 0.539,-0.728 1.014,-1.461 0.493,-0.762 1.093,-1.343 1.78,-1.724 0.696,-0.381 1.733,-0.574 3.085,-0.574 1.591,0 2.661,0.346 3.18,1.023 0.51,0.666 0.802,1.719 0.865,3.129 l 0.007,0.104 -0.099,0.029 c -1.086,0.313 -2.121,0.591 -3.085,0.821 -0.934,0.223 -2.081,0.477 -3.408,0.743 -1.397,0.286 -2.166,0.448 -2.487,0.521 -1.561,0.338 -2.804,1.014 -3.693,2.006 -0.888,0.986 -1.336,2.197 -1.336,3.6 0,1.037 0.272,2.013 0.811,2.904 0.536,0.889 1.314,1.6 2.312,2.119 1,0.523 2.178,0.785 3.499,0.785 1.456,0 2.787,-0.244 3.954,-0.73 1.178,-0.492 2.409,-1.232 3.667,-2.209 l 0.112,-0.093 0.075,0.124 c 0.582,0.949 1.141,1.684 1.658,2.182 0.499,0.482 1.009,0.727 1.512,0.727 0.605,0 1.16,-0.211 1.642,-0.634 0.483,-0.419 0.717,-0.871 0.717,-1.376 -0.002,-0.29 -0.165,-0.976 -0.489,-2.033 z m -5.37,-5.662 c 0,1.84 -0.244,3.186 -0.731,4.002 -0.421,0.737 -1.092,1.346 -1.991,1.814 -0.894,0.465 -1.883,0.698 -2.943,0.698 -1.007,0 -1.833,-0.294 -2.463,-0.874 -0.629,-0.582 -0.949,-1.299 -0.949,-2.128 0,-0.81 0.276,-1.451 0.819,-1.907 0.526,-0.439 1.089,-0.74 1.672,-0.89 0.565,-0.151 1.595,-0.382 3.065,-0.698 1.463,-0.313 2.59,-0.613 3.349,-0.895 l 0.173,-0.064 v 0.942 z"
   inkscape:connector-curvature="0"
   style="fill:#2b3990" />
	<path
   id="path3327"
   d="m 530.128,296.637 c -1.017,-0.543 -2.081,-0.816 -3.161,-0.816 -1.07,0 -1.934,0.27 -2.569,0.799 -0.648,0.546 -1.292,1.357 -1.909,2.418 l -0.227,0.389 -0.016,-0.449 c -0.037,-1.051 -0.244,-1.852 -0.613,-2.379 -0.357,-0.517 -0.96,-0.777 -1.785,-0.777 -1.638,0 -2.436,1.118 -2.436,3.422 v 14.662 c 0,1.016 0.237,1.794 0.701,2.305 0.466,0.518 1.046,0.766 1.773,0.766 0.731,0 1.342,-0.254 1.816,-0.758 0.475,-0.506 0.717,-1.282 0.717,-2.312 v -4.398 c 0,-1.59 0.053,-2.944 0.154,-4.037 0.103,-1.1 0.294,-2.065 0.566,-2.875 0.277,-0.815 0.674,-1.443 1.178,-1.862 0.877,-0.729 2.178,-0.851 3.971,-0.274 0.905,0.291 1.239,0.354 1.361,0.354 0.476,0 0.932,-0.2 1.35,-0.595 0.418,-0.397 0.622,-0.889 0.622,-1.494 10e-4,-0.875 -0.486,-1.556 -1.493,-2.089 z"
   inkscape:connector-curvature="0"
   style="fill:#2b3990" />
	<path
   id="path3329"
   d="m 551.644,314.155 c 0.782,-0.905 1.406,-2.038 1.856,-3.372 0.448,-1.336 0.677,-2.825 0.677,-4.424 0,-2.165 -0.396,-4.068 -1.175,-5.656 -0.776,-1.576 -1.846,-2.79 -3.182,-3.609 -1.338,-0.819 -2.822,-1.235 -4.406,-1.235 -1.324,0 -2.524,0.286 -3.568,0.845 -1.046,0.562 -2.07,1.456 -3.047,2.659 l -0.23,0.284 v -1.004 c 0,-0.914 -0.225,-1.621 -0.669,-2.102 -0.443,-0.477 -1.023,-0.721 -1.728,-0.721 -0.72,0 -1.287,0.235 -1.699,0.699 -0.412,0.468 -0.621,1.196 -0.621,2.163 v 22.725 c 0,1.121 0.156,1.982 0.467,2.553 0.297,0.559 0.904,0.83 1.854,0.83 1.613,0 2.396,-1.094 2.396,-3.343 v -8.282 l 0.23,0.294 c 0.914,1.154 1.887,2.038 2.891,2.631 0.994,0.587 2.25,0.886 3.725,0.886 1.222,0 2.38,-0.244 3.445,-0.73 1.066,-0.484 2.001,-1.191 2.784,-2.091 z m -3.18,-4.116 c -0.459,1.033 -1.076,1.821 -1.841,2.342 -0.765,0.52 -1.606,0.787 -2.503,0.787 -1.501,0 -2.775,-0.606 -3.784,-1.795 -1.006,-1.182 -1.518,-2.855 -1.518,-4.975 0,-2.247 0.514,-3.978 1.525,-5.14 1.021,-1.17 2.289,-1.759 3.776,-1.759 0.937,0 1.804,0.273 2.571,0.822 0.771,0.545 1.379,1.336 1.811,2.353 0.432,1.007 0.647,2.226 0.647,3.629 10e-4,1.45 -0.229,2.709 -0.684,3.736 z"
   inkscape:connector-curvature="0"
   style="fill:#2b3990" />
	<path
   id="path3331"
   d="m 575.488,313.172 c 0.358,-0.613 0.541,-1.156 0.541,-1.604 0,-0.505 -0.15,-0.882 -0.459,-1.151 -0.311,-0.278 -0.713,-0.416 -1.225,-0.416 -0.468,0 -0.828,0.107 -1.074,0.318 -0.662,0.623 -1.188,1.104 -1.6,1.465 -0.413,0.363 -0.873,0.708 -1.365,1.026 -0.498,0.317 -1.018,0.558 -1.549,0.708 -0.527,0.15 -1.121,0.225 -1.764,0.225 -0.957,0 -1.848,-0.237 -2.642,-0.712 -0.798,-0.472 -1.443,-1.187 -1.919,-2.114 -0.477,-0.93 -0.727,-2.012 -0.738,-3.224 l -0.002,-0.132 h 10.432 c 1.351,0 2.405,-0.189 3.146,-0.574 0.708,-0.365 1.068,-1.192 1.068,-2.459 0,-1.396 -0.365,-2.795 -1.085,-4.145 -0.719,-1.354 -1.815,-2.465 -3.262,-3.318 -1.441,-0.851 -3.201,-1.28 -5.229,-1.28 -1.559,0 -2.998,0.252 -4.274,0.75 -1.272,0.499 -2.358,1.223 -3.232,2.157 -0.87,0.936 -1.542,2.072 -1.999,3.381 -0.455,1.312 -0.688,2.755 -0.688,4.287 0,3.254 0.936,5.868 2.781,7.764 1.842,1.895 4.467,2.852 7.796,2.852 1.459,0 2.767,-0.188 3.888,-0.57 1.122,-0.379 2.062,-0.861 2.797,-1.438 0.734,-0.569 1.292,-1.175 1.657,-1.796 z m -13.793,-8.484 c 0.181,-1.795 0.709,-3.173 1.569,-4.098 0.862,-0.93 1.981,-1.4 3.325,-1.4 1.406,0 2.56,0.463 3.423,1.381 0.858,0.909 1.36,2.299 1.492,4.121 l 0.009,0.139 h -9.833 l 0.015,-0.143 z"
   inkscape:connector-curvature="0"
   style="fill:#2b3990" />
	<path
   id="path3333"
   d="m 598.09,304.104 c 0,-1.146 -0.053,-2.099 -0.152,-2.84 -0.101,-0.726 -0.325,-1.412 -0.661,-2.037 -0.529,-1.082 -1.333,-1.926 -2.401,-2.515 -1.068,-0.589 -2.299,-0.891 -3.658,-0.891 -1.4,0 -2.656,0.285 -3.729,0.845 -1.079,0.561 -2.087,1.454 -2.997,2.654 l -0.234,0.312 v -1.026 c 0,-0.606 -0.107,-1.123 -0.323,-1.54 -0.212,-0.414 -0.497,-0.729 -0.845,-0.933 -0.355,-0.206 -0.755,-0.311 -1.19,-0.311 -0.716,0 -1.288,0.235 -1.696,0.699 -0.413,0.468 -0.624,1.196 -0.624,2.163 v 15.223 c 0,0.99 0.235,1.763 0.701,2.286 0.46,0.522 1.058,0.784 1.772,0.784 0.744,0 1.358,-0.254 1.826,-0.758 0.469,-0.504 0.708,-1.282 0.708,-2.312 v -6.6 c 0,-2.184 0.128,-3.636 0.392,-4.438 0.369,-1.004 0.955,-1.799 1.746,-2.373 0.791,-0.572 1.68,-0.862 2.641,-0.862 1.486,0 2.494,0.487 3.002,1.446 0.49,0.938 0.738,2.297 0.738,4.048 v 8.778 c 0,0.99 0.235,1.763 0.699,2.286 0.463,0.522 1.07,0.784 1.812,0.784 0.74,0 1.324,-0.248 1.784,-0.766 0.459,-0.514 0.69,-1.289 0.69,-2.305 v -9.801 z"
   inkscape:connector-curvature="0"
   style="fill:#2b3990" />
	<path
   id="path3335"
   d="m 614.598,314.484 c 0,-0.472 -0.156,-0.855 -0.475,-1.174 -0.316,-0.317 -0.662,-0.473 -1.055,-0.473 -0.283,0 -0.689,0.053 -1.209,0.158 -0.541,0.115 -0.962,0.172 -1.279,0.172 -0.602,0 -1.047,-0.159 -1.322,-0.457 -0.268,-0.299 -0.435,-0.685 -0.498,-1.156 -0.056,-0.45 -0.086,-1.098 -0.086,-1.914 v -9.815 h 1.115 c 1.02,0 1.807,-0.138 2.344,-0.411 0.516,-0.26 0.768,-0.707 0.768,-1.369 0,-0.512 -0.184,-0.936 -0.545,-1.262 -0.366,-0.331 -0.913,-0.497 -1.623,-0.497 h -2.059 v -3.72 c 0,-0.88 -0.047,-1.562 -0.143,-2.028 -0.09,-0.451 -0.306,-0.838 -0.646,-1.158 -0.51,-0.476 -1.09,-0.718 -1.723,-0.718 -0.45,0 -0.863,0.107 -1.227,0.32 -0.364,0.213 -0.647,0.491 -0.841,0.832 -0.196,0.33 -0.316,0.73 -0.362,1.19 -0.042,0.476 -0.064,1.147 -0.064,1.984 v 3.298 h -0.709 c -0.763,0 -1.348,0.166 -1.742,0.497 -0.39,0.33 -0.578,0.747 -0.578,1.262 0,0.519 0.182,0.936 0.555,1.274 0.37,0.333 0.926,0.506 1.65,0.506 h 0.824 v 10.241 c 0,1.613 0.13,2.92 0.392,3.883 0.253,0.939 0.796,1.686 1.614,2.218 0.824,0.54 2.062,0.808 3.672,0.808 1.709,0 3.033,-0.223 3.938,-0.66 0.883,-0.429 1.314,-1.03 1.314,-1.831 z"
   inkscape:connector-curvature="0"
   style="fill:#2b3990" />
	<path
   id="path3337"
   d="m 629.715,296.637 c -1.02,-0.543 -2.083,-0.816 -3.162,-0.816 -1.068,0 -1.934,0.27 -2.57,0.799 -0.65,0.546 -1.293,1.357 -1.908,2.418 l -0.229,0.389 -0.016,-0.449 c -0.037,-1.051 -0.241,-1.852 -0.614,-2.379 -0.356,-0.517 -0.956,-0.777 -1.782,-0.777 -1.641,0 -2.437,1.118 -2.437,3.422 v 14.662 c 0,1.016 0.235,1.794 0.7,2.305 0.465,0.518 1.045,0.766 1.775,0.766 0.729,0 1.341,-0.254 1.815,-0.758 0.475,-0.506 0.718,-1.282 0.718,-2.312 v -4.398 c 0,-1.59 0.051,-2.944 0.154,-4.037 0.102,-1.1 0.293,-2.065 0.564,-2.875 0.277,-0.815 0.675,-1.443 1.178,-1.862 0.881,-0.729 2.18,-0.851 3.973,-0.274 0.903,0.291 1.238,0.354 1.36,0.354 0.475,0 0.93,-0.2 1.349,-0.595 0.418,-0.397 0.623,-0.889 0.623,-1.494 10e-4,-0.875 -0.487,-1.556 -1.491,-2.089 z"
   inkscape:connector-curvature="0"
   style="fill:#2b3990" />
	<path
   id="path3339"
   d="m 641.982,322.054 c 0.56,-0.889 1.141,-2.137 1.725,-3.701 l 6.868,-17.982 c 0.171,-0.47 0.31,-0.915 0.422,-1.353 0.112,-0.441 0.194,-0.791 0.249,-1.039 -0.005,-0.349 -0.098,-0.707 -0.288,-1.046 -0.185,-0.34 -0.453,-0.614 -0.798,-0.81 -0.345,-0.2 -0.71,-0.302 -1.083,-0.302 -0.527,0 -0.935,0.089 -1.213,0.27 -0.281,0.179 -0.554,0.539 -0.812,1.064 -0.266,0.549 -0.572,1.317 -0.902,2.283 l -4.347,12.41 -4.579,-13.316 c -0.292,-0.887 -0.631,-1.571 -1,-2.034 -0.364,-0.457 -0.892,-0.677 -1.615,-0.677 -0.414,0 -0.82,0.113 -1.201,0.331 -0.383,0.219 -0.689,0.514 -0.908,0.879 -0.219,0.364 -0.328,0.763 -0.328,1.187 0,0.407 0.199,1.076 0.586,1.996 l 6.504,16.374 -0.501,1.226 c -0.364,0.867 -0.688,1.531 -0.965,1.979 -0.288,0.46 -0.622,0.789 -0.988,0.982 -0.367,0.188 -0.866,0.281 -1.485,0.281 -0.255,0 -0.557,-0.037 -0.9,-0.116 -0.262,-0.078 -0.53,-0.113 -0.799,-0.113 -0.686,0 -1.205,0.156 -1.544,0.46 -0.339,0.302 -0.506,0.729 -0.506,1.301 0,0.836 0.353,1.396 1.079,1.713 0.749,0.326 1.9,0.49 3.422,0.49 1.553,0 2.801,-0.236 3.713,-0.706 0.904,-0.474 1.643,-1.155 2.194,-2.031 z"
   inkscape:connector-curvature="0"
   style="fill:#2b3990" />
	<g
   id="g3341">
		<path
   id="path3343"
   d="m 433.483,263.627 c 0,0 -0.241,0.784 0,1.045 0.239,0.26 1.446,0.343 1.446,0.343 v 15.129 l 2.412,1.738 2.051,-1.914 v -14.821 l 0.604,-0.133 c 0.967,0.26 1.206,-0.604 1.206,-0.604 v -0.784 h -7.719 z m 5.065,16.169 -0.681,0.262 v -14.823 l 0.681,-0.221 v 14.782 z m 1.81,-15.427 c -0.723,0.042 -5.309,-0.48 -5.309,-0.48 h 5.309 c 0,0 0.724,0.433 0,0.48 z"
   inkscape:connector-curvature="0"
   style="fill:#2b3990" />
		<path
   id="path3345"
   d="m 444.807,270.206 -0.001,0.002 -0.057,-0.038 c -0.411,-0.402 -0.949,-0.623 -1.521,-0.623 -1.204,0 -2.187,0.984 -2.187,2.188 0,0.57 0.221,1.109 0.62,1.521 l 0.039,0.042 c 0.072,0.067 0.147,0.136 0.234,0.193 1.505,1.338 2.365,3.249 2.365,5.245 0,3.864 -3.146,7.012 -7.012,7.012 -3.867,0 -7.01,-3.148 -7.01,-7.012 0,-1.961 0.834,-3.848 2.291,-5.175 0.617,-0.415 0.983,-1.095 0.983,-1.826 0,-1.203 -0.981,-2.188 -2.185,-2.188 -0.575,0 -1.12,0.225 -1.529,0.628 l -0.05,0.049 -0.021,-0.02 c -2.448,2.162 -3.852,5.27 -3.852,8.53 0,6.271 5.102,11.376 11.371,11.376 6.269,0 11.373,-5.105 11.373,-11.376 0.004,-3.26 -1.4,-6.366 -3.851,-8.528 z"
   clip-rule="evenodd"
   inkscape:connector-curvature="0"
   style="fill:#2b3990;fill-rule:evenodd" />
	</g>
</g><path
     clip-rule="evenodd"
     d="m 207.58103,35.525036 c -2.258,-2.458 -13.542,-2.2 -16.704,-2.23 -17.09,-0.15 -49.102,0.866 -65.05,0.838 -0.642,0 -2.858,1.084 -2.496,1.982 -11.336,0.002 -17.382,0.038 -31.088,-0.084 -7.404,-0.076 -25.122,0.81 -25.548,-12.292 -0.22,-6.542 5.756,-12.358 12.848,-19.358 -4.52,-1.394 -9.084,1.654 -13.642,4.202 -2.236,2.194 -3.746,3.676 -5.616,5.514 -6.93,10.14 -9.632,20.314 -8.002,30.532 6.25,-1.2 10.898,7.356 6.502,11.388 l -3.91,0.054 c -1.842,0.024 -3.312,1.916 -3.274,4.218 l 0.12,9.082 c 0.04,2.3 1.558,3.844 3.404,3.816 h 19.702 c 1.848,-0.02 3.312,-1.918 3.274,-4.214 l -0.124,-9.084 c -0.032,-2.304 -1.562,-4.148 -3.396,-4.116 l -2.468,0.038 c -4.338,-12.226 9.65,-10.604 17.57,-10.526 14.896,0.13 19.84,0.086 32.946,0.098 0.754,0.902 0.386,2.572 2.452,3.422 1.272,0.536 80.032,0.35 81.452,0 1.418,-0.332 1.04,-1.008 1.558,-1.524 0.664,-2.734 2.196,-8.802 -0.51,-11.756 z m -132.846,21.996 v 9.592 c 0,0 -0.268,-6.256 -2.844,-6.67 -2.578,-0.42 -1.12,-2.922 -1.12,-2.922 h 3.964 z m 131.958,-17.716 c 0,0 -2.292,-0.78 -4.172,-1.988 -4.038,-2.584 -75.464,-0.268 -75.464,-0.268 l 2.034,-1.706 c 0,0 72.802,-1.252 75.31,0 2.5,1.252 2.292,3.962 2.292,3.962 z"
     id="path3349"
     inkscape:connector-curvature="0"
     style="fill:#2b3990;fill-rule:evenodd" /></g>

</svg>