<?xml version="1.0" encoding="UTF-8" standalone="no"?>
<!-- Generator: Adobe Illustrator 15.0.0, SVG Export Plug-In . SVG Version: 6.00 Build 0)  -->

<svg
   xmlns:dc="http://purl.org/dc/elements/1.1/"
   xmlns:cc="http://creativecommons.org/ns#"
   xmlns:rdf="http://www.w3.org/1999/02/22-rdf-syntax-ns#"
   xmlns:svg="http://www.w3.org/2000/svg"
   xmlns="http://www.w3.org/2000/svg"
   xmlns:sodipodi="http://sodipodi.sourceforge.net/DTD/sodipodi-0.dtd"
   xmlns:inkscape="http://www.inkscape.org/namespaces/inkscape"
   version="1.1"
   id="Layer_1"
   x="0px"
   y="0px"
   width="355.758"
   height="71.954124"
   viewBox="0 0 355.75799 71.954126"
   enable-background="new 0 0 792 612"
   xml:space="preserve"
   inkscape:version="0.48.2 r9819"
   sodipodi:docname="swc-logo.svg"><metadata
   id="metadata209"><rdf:RDF><cc:Work
       rdf:about=""><dc:format>image/svg+xml</dc:format><dc:type
         rdf:resource="http://purl.org/dc/dcmitype/StillImage" /><dc:title></dc:title></cc:Work></rdf:RDF></metadata><defs
   id="defs207" /><sodipodi:namedview
   pagecolor="#ffffff"
   bordercolor="#666666"
   borderopacity="1"
   objecttolerance="10"
   gridtolerance="10"
   guidetolerance="10"
   inkscape:pageopacity="0"
   inkscape:pageshadow="2"
   inkscape:window-width="1277"
   inkscape:window-height="749"
   id="namedview205"
   showgrid="false"
   fit-margin-top="0"
   fit-margin-left="0"
   fit-margin-right="0"
   fit-margin-bottom="0"
   inkscape:zoom="0.38562092"
   inkscape:cx="45.308002"
   inkscape:cy="-116.96101"
   inkscape:window-x="0"
   inkscape:window-y="0"
   inkscape:window-maximized="0"
   inkscape:current-layer="Layer_1" />
<g
   id="g3"
   transform="translate(-350.692,-117.08488)">
	<g
   id="g5">
		<path
   d="m 172.116,394.002 0.947,0.238 c -0.199,0.778 -0.556,1.371 -1.072,1.78 -0.516,0.409 -1.146,0.612 -1.892,0.612 -0.771,0 -1.399,-0.156 -1.882,-0.471 -0.483,-0.315 -0.851,-0.77 -1.104,-1.365 -0.253,-0.595 -0.378,-1.234 -0.378,-1.918 0,-0.746 0.143,-1.396 0.427,-1.951 0.284,-0.555 0.69,-0.977 1.216,-1.265 0.526,-0.288 1.104,-0.433 1.736,-0.433 0.716,0 1.318,0.183 1.807,0.547 0.488,0.365 0.829,0.878 1.021,1.539 l -0.933,0.219 c -0.166,-0.521 -0.407,-0.899 -0.723,-1.137 -0.316,-0.238 -0.713,-0.357 -1.191,-0.357 -0.55,0 -1.01,0.133 -1.379,0.396 -0.369,0.263 -0.629,0.617 -0.779,1.062 -0.15,0.445 -0.225,0.902 -0.225,1.374 0,0.609 0.089,1.141 0.266,1.595 0.177,0.454 0.453,0.794 0.828,1.019 0.375,0.225 0.78,0.336 1.216,0.336 0.531,0 0.98,-0.152 1.348,-0.459 0.366,-0.305 0.615,-0.759 0.746,-1.361 z"
   id="path7"
   inkscape:connector-curvature="0" />
		<path
   d="m 181.52,392.303 h -4.727 v -0.82 h 4.727 v 0.82 z m 0,2.172 h -4.727 v -0.82 h 4.727 v 0.82 z"
   id="path9"
   inkscape:connector-curvature="0" />
		<path
   d="m 188.58,396.512 h -0.879 v -5.602 c -0.212,0.202 -0.489,0.404 -0.833,0.605 -0.343,0.202 -0.651,0.354 -0.925,0.455 v -0.85 c 0.491,-0.231 0.921,-0.512 1.289,-0.84 0.368,-0.329 0.628,-0.648 0.781,-0.957 h 0.566 v 7.189 z"
   id="path11"
   inkscape:connector-curvature="0" />
		<path
   d="m 190.832,392.98 c 0,-0.846 0.087,-1.527 0.261,-2.043 0.175,-0.516 0.434,-0.914 0.777,-1.193 0.343,-0.28 0.775,-0.42 1.296,-0.42 0.384,0 0.721,0.076 1.011,0.231 0.29,0.155 0.529,0.378 0.718,0.669 0.189,0.291 0.337,0.646 0.444,1.064 0.107,0.418 0.161,0.982 0.161,1.691 0,0.84 -0.086,1.518 -0.259,2.034 -0.173,0.516 -0.431,0.915 -0.773,1.196 -0.344,0.281 -0.777,0.422 -1.302,0.422 -0.69,0 -1.232,-0.247 -1.626,-0.742 -0.472,-0.594 -0.708,-1.564 -0.708,-2.909 z m 0.903,0 c 0,1.176 0.138,1.957 0.412,2.347 0.275,0.39 0.615,0.583 1.019,0.583 0.404,0 0.743,-0.195 1.019,-0.586 0.274,-0.391 0.412,-1.172 0.412,-2.344 0,-1.178 -0.138,-1.961 -0.412,-2.348 -0.275,-0.388 -0.618,-0.582 -1.028,-0.582 -0.403,0 -0.726,0.172 -0.967,0.514 -0.303,0.436 -0.455,1.242 -0.455,2.416 z"
   id="path13"
   inkscape:connector-curvature="0" />
		<path
   d="m 196.393,392.98 c 0,-0.846 0.087,-1.527 0.261,-2.043 0.175,-0.516 0.434,-0.914 0.777,-1.193 0.343,-0.28 0.775,-0.42 1.296,-0.42 0.384,0 0.721,0.076 1.011,0.231 0.29,0.155 0.529,0.378 0.718,0.669 0.189,0.291 0.337,0.646 0.444,1.064 0.107,0.418 0.161,0.982 0.161,1.691 0,0.84 -0.086,1.518 -0.259,2.034 -0.173,0.516 -0.431,0.915 -0.773,1.196 -0.344,0.281 -0.777,0.422 -1.302,0.422 -0.69,0 -1.232,-0.247 -1.626,-0.742 -0.472,-0.594 -0.708,-1.564 -0.708,-2.909 z m 0.903,0 c 0,1.176 0.138,1.957 0.412,2.347 0.275,0.39 0.615,0.583 1.019,0.583 0.404,0 0.743,-0.195 1.019,-0.586 0.274,-0.391 0.412,-1.172 0.412,-2.344 0,-1.178 -0.138,-1.961 -0.412,-2.348 -0.275,-0.388 -0.618,-0.582 -1.028,-0.582 -0.403,0 -0.726,0.172 -0.967,0.514 -0.304,0.436 -0.455,1.242 -0.455,2.416 z"
   id="path15"
   inkscape:connector-curvature="0" />
		<path
   d="m 166.979,407.512 v -7.158 h 1.426 l 1.694,5.068 c 0.156,0.472 0.27,0.824 0.342,1.059 0.082,-0.26 0.208,-0.643 0.381,-1.146 l 1.714,-4.98 h 1.274 v 7.158 h -0.913 v -5.992 l -2.08,5.992 h -0.854 l -2.07,-6.094 v 6.094 h -0.914 z"
   id="path17"
   inkscape:connector-curvature="0" />
		<path
   d="m 182.628,403.303 h -4.727 v -0.82 h 4.727 v 0.82 z m 0,2.172 h -4.727 v -0.82 h 4.727 v 0.82 z"
   id="path19"
   inkscape:connector-curvature="0" />
		<path
   d="m 186.511,405.855 0.845,-0.078 c 0.071,0.397 0.208,0.686 0.41,0.865 0.202,0.179 0.461,0.268 0.776,0.268 0.271,0 0.507,-0.062 0.711,-0.186 0.203,-0.123 0.37,-0.289 0.5,-0.495 0.13,-0.206 0.239,-0.485 0.327,-0.837 0.088,-0.352 0.132,-0.71 0.132,-1.074 0,-0.039 -0.002,-0.098 -0.005,-0.176 -0.176,0.279 -0.416,0.506 -0.72,0.681 -0.305,0.175 -0.635,0.261 -0.989,0.261 -0.593,0 -1.094,-0.215 -1.504,-0.645 -0.41,-0.43 -0.615,-0.996 -0.615,-1.699 0,-0.726 0.214,-1.31 0.642,-1.752 0.429,-0.443 0.965,-0.664 1.609,-0.664 0.466,0 0.891,0.125 1.277,0.375 0.385,0.251 0.678,0.608 0.879,1.072 0.199,0.464 0.3,1.135 0.3,2.014 0,0.915 -0.1,1.644 -0.298,2.186 -0.198,0.542 -0.494,0.955 -0.887,1.238 -0.392,0.283 -0.852,0.424 -1.379,0.424 -0.56,0 -1.018,-0.154 -1.372,-0.466 -0.354,-0.312 -0.568,-0.748 -0.639,-1.312 z m 3.598,-3.158 c 0,-0.505 -0.134,-0.905 -0.403,-1.201 -0.268,-0.297 -0.591,-0.445 -0.969,-0.445 -0.391,0 -0.73,0.16 -1.021,0.479 -0.29,0.319 -0.435,0.732 -0.435,1.24 0,0.456 0.138,0.826 0.412,1.111 0.275,0.285 0.615,0.428 1.019,0.428 0.407,0 0.741,-0.143 1.003,-0.428 0.264,-0.285 0.394,-0.68 0.394,-1.184 z"
   id="path21"
   inkscape:connector-curvature="0" />
		<path
   d="m 191.939,405.637 0.923,-0.078 c 0.068,0.449 0.227,0.787 0.477,1.013 0.248,0.226 0.549,0.339 0.9,0.339 0.423,0 0.781,-0.159 1.074,-0.479 0.293,-0.318 0.439,-0.742 0.439,-1.27 0,-0.501 -0.141,-0.896 -0.422,-1.186 -0.282,-0.29 -0.65,-0.436 -1.106,-0.436 -0.283,0 -0.539,0.064 -0.767,0.193 -0.228,0.129 -0.407,0.295 -0.537,0.5 l -0.825,-0.107 0.693,-3.676 h 3.56 v 0.84 h -2.856 l -0.386,1.924 c 0.43,-0.3 0.881,-0.449 1.353,-0.449 0.625,0 1.152,0.216 1.582,0.648 0.43,0.434 0.645,0.99 0.645,1.67 0,0.648 -0.188,1.208 -0.566,1.68 -0.459,0.58 -1.086,0.869 -1.88,0.869 -0.651,0 -1.183,-0.182 -1.594,-0.547 -0.413,-0.363 -0.648,-0.847 -0.707,-1.448 z"
   id="path23"
   inkscape:connector-curvature="0" />
		<path
   d="m 169.025,418.512 v -3.033 l -2.759,-4.125 h 1.152 l 1.411,2.158 c 0.26,0.403 0.503,0.807 0.728,1.211 0.215,-0.375 0.475,-0.797 0.781,-1.266 l 1.387,-2.104 h 1.104 l -2.856,4.125 v 3.033 h -0.948 z"
   id="path25"
   inkscape:connector-curvature="0" />
		<path
   d="m 180.788,414.303 h -4.727 v -0.82 h 4.727 v 0.82 z m 0,2.172 h -4.727 v -0.82 h 4.727 v 0.82 z"
   id="path27"
   inkscape:connector-curvature="0" />
		<path
   d="m 184.537,416.637 0.923,-0.078 c 0.068,0.449 0.227,0.787 0.477,1.013 0.248,0.226 0.549,0.339 0.9,0.339 0.423,0 0.781,-0.159 1.074,-0.479 0.293,-0.318 0.439,-0.742 0.439,-1.27 0,-0.501 -0.141,-0.896 -0.422,-1.186 -0.282,-0.29 -0.65,-0.436 -1.106,-0.436 -0.283,0 -0.539,0.064 -0.767,0.193 -0.228,0.129 -0.407,0.295 -0.537,0.5 l -0.825,-0.107 0.693,-3.676 h 3.56 v 0.84 h -2.856 l -0.386,1.924 c 0.43,-0.3 0.881,-0.449 1.353,-0.449 0.625,0 1.152,0.216 1.582,0.648 0.43,0.434 0.645,0.99 0.645,1.67 0,0.648 -0.188,1.208 -0.566,1.68 -0.459,0.58 -1.086,0.869 -1.88,0.869 -0.651,0 -1.183,-0.182 -1.594,-0.547 -0.413,-0.363 -0.648,-0.847 -0.707,-1.448 z"
   id="path29"
   inkscape:connector-curvature="0" />
		<path
   d="m 166.969,429.512 v -7.158 h 0.947 v 3.549 l 3.555,-3.549 h 1.284 l -3.003,2.9 3.135,4.258 h -1.25 l -2.549,-3.623 -1.172,1.143 v 2.48 h -0.947 z"
   id="path31"
   inkscape:connector-curvature="0" />
		<path
   d="m 180.968,425.303 h -4.727 v -0.82 h 4.727 v 0.82 z m 0,2.172 h -4.727 v -0.82 h 4.727 v 0.82 z"
   id="path33"
   inkscape:connector-curvature="0" />
		<path
   d="m 184.719,425.98 c 0,-0.846 0.087,-1.527 0.261,-2.043 0.175,-0.516 0.434,-0.914 0.777,-1.193 0.343,-0.28 0.775,-0.42 1.296,-0.42 0.384,0 0.721,0.076 1.011,0.231 0.29,0.155 0.529,0.378 0.718,0.669 0.189,0.291 0.337,0.646 0.444,1.064 0.107,0.418 0.161,0.982 0.161,1.691 0,0.84 -0.086,1.518 -0.259,2.034 -0.173,0.516 -0.431,0.915 -0.773,1.196 -0.344,0.281 -0.777,0.422 -1.302,0.422 -0.69,0 -1.232,-0.247 -1.626,-0.742 -0.472,-0.594 -0.708,-1.564 -0.708,-2.909 z m 0.903,0 c 0,1.176 0.138,1.957 0.412,2.347 0.275,0.39 0.615,0.583 1.019,0.583 0.404,0 0.743,-0.195 1.019,-0.586 0.274,-0.391 0.412,-1.172 0.412,-2.344 0,-1.178 -0.138,-1.961 -0.412,-2.348 -0.275,-0.388 -0.618,-0.582 -1.028,-0.582 -0.403,0 -0.726,0.172 -0.967,0.514 -0.304,0.436 -0.455,1.242 -0.455,2.416 z"
   id="path35"
   inkscape:connector-curvature="0" />
	</g>
</g>
<g
   id="g37"
   transform="translate(-350.692,-117.08488)">
	<g
   id="g39">
		<path
   d="m 234.148,402.012 v -7.158 h 3.174 c 0.638,0 1.123,0.064 1.455,0.192 0.332,0.128 0.597,0.355 0.796,0.681 0.199,0.326 0.298,0.686 0.298,1.08 0,0.508 -0.165,0.936 -0.493,1.283 -0.329,0.349 -0.836,0.57 -1.523,0.664 0.25,0.121 0.441,0.24 0.571,0.357 0.277,0.254 0.539,0.57 0.786,0.951 l 1.245,1.949 h -1.191 l -0.947,-1.49 c -0.277,-0.43 -0.504,-0.758 -0.684,-0.986 -0.179,-0.228 -0.339,-0.387 -0.481,-0.479 -0.142,-0.091 -0.286,-0.154 -0.432,-0.189 -0.107,-0.023 -0.283,-0.035 -0.527,-0.035 h -1.099 v 3.18 h -0.948 z m 0.947,-4 h 2.036 c 0.433,0 0.771,-0.045 1.016,-0.134 0.245,-0.089 0.43,-0.233 0.557,-0.43 0.127,-0.197 0.19,-0.411 0.19,-0.642 0,-0.339 -0.123,-0.617 -0.369,-0.836 -0.246,-0.218 -0.634,-0.326 -1.165,-0.326 h -2.266 v 2.368 z"
   id="path41"
   inkscape:connector-curvature="0" />
		<path
   d="m 248.645,397.803 h -4.727 v -0.82 h 4.727 v 0.82 z m 0,2.172 h -4.727 v -0.82 h 4.727 v 0.82 z"
   id="path43"
   inkscape:connector-curvature="0" />
		<path
   d="m 255.212,402.012 v -1.715 h -3.105 v -0.805 l 3.267,-4.639 h 0.718 v 4.639 h 0.967 v 0.805 h -0.967 v 1.715 h -0.88 z m 0,-2.52 v -3.229 l -2.241,3.229 h 2.241 z"
   id="path45"
   inkscape:connector-curvature="0" />
		<path
   d="m 257.962,400.121 0.879,-0.117 c 0.101,0.498 0.272,0.857 0.516,1.077 0.242,0.22 0.537,0.329 0.886,0.329 0.413,0 0.763,-0.143 1.048,-0.43 0.284,-0.286 0.427,-0.641 0.427,-1.064 0,-0.403 -0.132,-0.736 -0.396,-0.998 -0.264,-0.262 -0.599,-0.393 -1.006,-0.393 -0.166,0 -0.373,0.032 -0.62,0.098 l 0.098,-0.771 c 0.059,0.006 0.105,0.01 0.142,0.01 0.374,0 0.711,-0.098 1.011,-0.293 0.3,-0.195 0.449,-0.497 0.449,-0.904 0,-0.322 -0.109,-0.589 -0.327,-0.801 -0.218,-0.211 -0.5,-0.316 -0.845,-0.316 -0.342,0 -0.627,0.107 -0.854,0.322 -0.227,0.215 -0.374,0.537 -0.439,0.967 l -0.879,-0.156 c 0.107,-0.59 0.352,-1.047 0.732,-1.37 0.38,-0.323 0.854,-0.485 1.421,-0.485 0.391,0 0.75,0.084 1.079,0.251 0.329,0.167 0.58,0.396 0.754,0.687 0.175,0.289 0.262,0.597 0.262,0.922 0,0.31 -0.083,0.592 -0.249,0.846 -0.166,0.254 -0.412,0.455 -0.737,0.605 0.423,0.098 0.752,0.3 0.986,0.607 0.234,0.307 0.352,0.692 0.352,1.154 0,0.625 -0.228,1.155 -0.684,1.59 -0.456,0.435 -1.032,0.652 -1.729,0.652 -0.628,0 -1.15,-0.188 -1.564,-0.562 -0.418,-0.376 -0.654,-0.861 -0.713,-1.457 z"
   id="path47"
   inkscape:connector-curvature="0" />
		<path
   d="m 237.483,410.203 v -0.84 l 3.032,-0.004 v 2.656 c -0.465,0.371 -0.946,0.65 -1.44,0.837 -0.494,0.187 -1.002,0.28 -1.523,0.28 -0.703,0 -1.342,-0.15 -1.917,-0.451 -0.575,-0.301 -1.008,-0.736 -1.301,-1.307 -0.293,-0.569 -0.439,-1.205 -0.439,-1.908 0,-0.697 0.146,-1.348 0.437,-1.951 0.291,-0.603 0.71,-1.053 1.257,-1.346 0.547,-0.293 1.177,-0.439 1.89,-0.439 0.518,0 0.985,0.084 1.404,0.252 0.419,0.168 0.746,0.401 0.984,0.701 0.238,0.299 0.418,0.689 0.542,1.172 l -0.854,0.234 c -0.107,-0.365 -0.241,-0.651 -0.4,-0.859 -0.16,-0.209 -0.387,-0.375 -0.684,-0.501 -0.297,-0.126 -0.625,-0.188 -0.986,-0.188 -0.433,0 -0.807,0.066 -1.123,0.198 -0.316,0.132 -0.57,0.306 -0.764,0.521 -0.194,0.215 -0.344,0.45 -0.452,0.707 -0.182,0.443 -0.273,0.924 -0.273,1.441 0,0.638 0.11,1.172 0.33,1.602 0.22,0.43 0.54,0.748 0.959,0.957 0.42,0.208 0.866,0.312 1.338,0.312 0.41,0 0.811,-0.08 1.201,-0.237 0.39,-0.157 0.687,-0.326 0.889,-0.505 v -1.334 h -2.107 z"
   id="path49"
   inkscape:connector-curvature="0" />
		<path
   d="m 249.202,408.803 h -4.727 v -0.82 h 4.727 v 0.82 z m 0,2.172 h -4.727 v -0.82 h 4.727 v 0.82 z"
   id="path51"
   inkscape:connector-curvature="0" />
		<path
   d="m 252.951,411.137 0.923,-0.078 c 0.068,0.449 0.227,0.787 0.477,1.013 0.248,0.226 0.549,0.339 0.9,0.339 0.423,0 0.781,-0.159 1.074,-0.479 0.293,-0.318 0.439,-0.742 0.439,-1.27 0,-0.501 -0.141,-0.896 -0.422,-1.186 -0.282,-0.29 -0.65,-0.436 -1.106,-0.436 -0.283,0 -0.539,0.064 -0.767,0.193 -0.228,0.129 -0.407,0.295 -0.537,0.5 l -0.825,-0.107 0.693,-3.676 h 3.56 v 0.84 h -2.856 l -0.386,1.924 c 0.43,-0.3 0.881,-0.449 1.353,-0.449 0.625,0 1.152,0.216 1.582,0.648 0.43,0.434 0.645,0.99 0.645,1.67 0,0.648 -0.188,1.208 -0.566,1.68 -0.459,0.58 -1.086,0.869 -1.88,0.869 -0.651,0 -1.183,-0.182 -1.594,-0.547 -0.413,-0.363 -0.648,-0.847 -0.707,-1.448 z"
   id="path53"
   inkscape:connector-curvature="0" />
		<path
   d="m 258.572,406.791 v -0.846 h 4.634 v 0.684 c -0.456,0.485 -0.907,1.13 -1.355,1.934 -0.447,0.805 -0.793,1.631 -1.037,2.48 -0.176,0.6 -0.288,1.256 -0.337,1.969 h -0.903 c 0.01,-0.563 0.12,-1.244 0.332,-2.041 0.212,-0.798 0.516,-1.566 0.91,-2.308 0.396,-0.741 0.816,-1.364 1.263,-1.872 h -3.507 z"
   id="path55"
   inkscape:connector-curvature="0" />
		<path
   d="m 234.094,424.012 v -7.158 h 2.686 c 0.547,0 0.985,0.072 1.316,0.217 0.331,0.145 0.589,0.367 0.776,0.669 0.187,0.302 0.281,0.616 0.281,0.944 0,0.307 -0.083,0.595 -0.249,0.865 -0.166,0.27 -0.417,0.488 -0.752,0.654 0.433,0.127 0.766,0.343 0.999,0.648 0.233,0.307 0.349,0.668 0.349,1.084 0,0.336 -0.071,0.647 -0.212,0.936 -0.141,0.289 -0.316,0.51 -0.525,0.666 -0.209,0.156 -0.47,0.275 -0.784,0.354 -0.314,0.079 -0.699,0.12 -1.155,0.12 h -2.73 z m 0.948,-4.151 h 1.548 c 0.42,0 0.721,-0.028 0.903,-0.084 0.241,-0.071 0.422,-0.189 0.544,-0.355 0.122,-0.166 0.183,-0.375 0.183,-0.625 0,-0.238 -0.057,-0.447 -0.171,-0.628 -0.114,-0.181 -0.277,-0.304 -0.488,-0.371 -0.211,-0.067 -0.575,-0.101 -1.089,-0.101 h -1.431 v 2.164 z m 0,3.305 h 1.782 c 0.306,0 0.521,-0.011 0.645,-0.033 0.218,-0.039 0.4,-0.104 0.547,-0.195 0.146,-0.092 0.267,-0.225 0.361,-0.398 0.094,-0.173 0.142,-0.375 0.142,-0.604 0,-0.267 -0.068,-0.498 -0.205,-0.695 -0.137,-0.197 -0.326,-0.336 -0.569,-0.415 -0.243,-0.079 -0.592,-0.12 -1.047,-0.12 h -1.655 v 2.46 z"
   id="path57"
   inkscape:connector-curvature="0" />
		<path
   d="m 248.093,419.803 h -4.727 v -0.82 h 4.727 v 0.82 z m 0,2.172 h -4.727 v -0.82 h 4.727 v 0.82 z"
   id="path59"
   inkscape:connector-curvature="0" />
		<path
   d="m 255.154,424.012 h -0.879 v -5.602 c -0.212,0.202 -0.489,0.404 -0.833,0.605 -0.343,0.202 -0.651,0.354 -0.925,0.455 v -0.85 c 0.491,-0.231 0.921,-0.512 1.289,-0.84 0.368,-0.329 0.628,-0.648 0.781,-0.957 h 0.566 v 7.189 z"
   id="path61"
   inkscape:connector-curvature="0" />
		<path
   d="m 260.222,424.012 v -1.715 h -3.105 v -0.805 l 3.267,-4.639 h 0.718 v 4.639 h 0.967 v 0.805 h -0.967 v 1.715 h -0.88 z m 0,-2.52 v -3.229 l -2.241,3.229 h 2.241 z"
   id="path63"
   inkscape:connector-curvature="0" />
		<path
   d="m 265.784,424.012 v -1.715 h -3.105 v -0.805 l 3.267,-4.639 h 0.718 v 4.639 h 0.967 v 0.805 h -0.967 v 1.715 h -0.88 z m 0,-2.52 v -3.229 l -2.241,3.229 h 2.241 z"
   id="path65"
   inkscape:connector-curvature="0" />
	</g>
</g>
<rect
   x="-242.02501"
   y="272.43112"
   width="41.657001"
   height="41.657001"
   id="rect67"
   style="fill:#2b3990" />
<g
   id="g69"
   transform="translate(-350.692,-117.08488)">
	<path
   d="m 154.607,173.425 c 0,0 -1.448,4.702 0,6.271 1.452,1.567 8.704,2.067 8.704,2.067 v 90.946 l 14.501,10.45 12.326,-11.496 v -89.092 l 3.628,-0.808 c 5.802,1.543 7.25,-3.635 7.25,-3.635 v -4.702 h -46.409 z m 30.457,97.193 -4.106,1.568 v -89.093 l 4.106,-1.331 v 88.856 z m 10.88,-92.751 c -4.351,0.261 -31.91,-2.873 -31.91,-2.873 h 31.91 c 0,0 4.352,2.612 0,2.873 z"
   id="path71"
   inkscape:connector-curvature="0"
   style="fill:#2b3990" />
	<path
   clip-rule="evenodd"
   d="m 222.687,212.972 -0.014,0.014 -0.334,-0.245 c -2.467,-2.397 -5.715,-3.718 -9.146,-3.718 -7.244,0 -13.136,5.892 -13.136,13.135 0,3.43 1.321,6.678 3.72,9.146 l 0.241,0.248 c 0.429,0.414 0.879,0.792 1.403,1.178 9.044,8.028 14.214,19.507 14.214,31.519 0,23.239 -18.906,42.146 -42.145,42.146 -23.239,0 -42.145,-18.906 -42.145,-42.146 0,-11.794 5.022,-23.136 13.778,-31.116 3.72,-2.486 5.912,-6.574 5.912,-10.974 0,-7.243 -5.892,-13.135 -13.135,-13.135 -3.46,0 -6.729,1.339 -9.204,3.77 l -0.295,0.29 -0.11,-0.11 c -14.733,12.996 -23.174,31.662 -23.174,51.275 0,37.7 30.672,68.373 68.373,68.373 37.7,0 68.371,-30.673 68.371,-68.373 0,-19.616 -8.442,-38.282 -23.174,-51.277 z"
   id="path73"
   inkscape:connector-curvature="0"
   style="fill:#2b3990;fill-rule:evenodd" />
</g>
<g
   id="g75"
   transform="translate(-350.692,-117.08488)">
	<path
   d="m 367.454,425.599 c 0.689,-1.009 1.039,-2.239 1.039,-3.661 0,-0.93 -0.263,-1.771 -0.778,-2.498 -0.517,-0.731 -1.296,-1.377 -2.307,-1.916 -1.027,-0.548 -2.365,-1.025 -3.976,-1.419 -1.402,-0.34 -2.464,-0.62 -3.247,-0.849 -0.798,-0.237 -1.44,-0.543 -1.914,-0.904 -0.493,-0.375 -0.745,-0.867 -0.745,-1.46 0,-0.651 0.339,-1.197 1.006,-1.626 0.645,-0.416 1.467,-0.625 2.443,-0.625 0.943,0 1.706,0.162 2.262,0.48 0.553,0.312 1.039,0.742 1.449,1.267 0.478,0.606 0.912,1.065 1.281,1.37 0.353,0.285 0.792,0.431 1.297,0.431 0.708,0 1.259,-0.181 1.637,-0.541 0.382,-0.364 0.567,-0.817 0.567,-1.394 0,-0.524 -0.184,-1.07 -0.547,-1.627 -0.367,-0.558 -0.912,-1.079 -1.623,-1.542 -0.713,-0.469 -1.615,-0.845 -2.68,-1.12 -1.073,-0.281 -2.301,-0.424 -3.643,-0.424 -1.713,0 -3.191,0.279 -4.394,0.828 -1.198,0.546 -2.12,1.287 -2.735,2.203 -0.613,0.913 -0.922,1.894 -0.922,2.916 0,1.149 0.334,2.124 0.993,2.91 0.664,0.788 1.565,1.434 2.681,1.922 1.129,0.49 2.614,0.965 4.408,1.41 1.609,0.387 2.787,0.799 3.499,1.23 0.739,0.449 1.114,1.166 1.114,2.137 0,0.648 -0.36,1.227 -1.069,1.717 -0.692,0.482 -1.59,0.729 -2.669,0.729 -1.318,0 -2.376,-0.242 -3.146,-0.715 -0.767,-0.47 -1.434,-1.195 -1.985,-2.146 -0.26,-0.477 -0.539,-0.851 -0.822,-1.108 -0.27,-0.247 -0.667,-0.371 -1.188,-0.371 -0.6,0 -1.081,0.191 -1.468,0.578 -0.392,0.391 -0.581,0.848 -0.581,1.394 0,0.845 0.317,1.696 0.938,2.536 0.626,0.844 1.615,1.56 2.937,2.128 1.331,0.571 2.949,0.856 4.811,0.856 1.955,0 3.636,-0.265 5,-0.791 1.352,-0.519 2.385,-1.294 3.077,-2.305 z"
   id="path77"
   inkscape:connector-curvature="0"
   style="fill:#2b3990" />
	<path
   d="m 404.852,399.709 c -1.708,0 -3.07,0.221 -4.048,0.654 -0.962,0.43 -1.653,1.121 -2.057,2.055 -0.405,0.951 -0.616,2.254 -0.616,3.877 v 1.713 h -1.383 c -1.692,0 -2.512,0.573 -2.512,1.76 0,0.528 0.191,0.945 0.59,1.279 0.397,0.33 0.98,0.5 1.729,0.5 h 1.576 v 14.079 c 0,1.007 0.24,1.774 0.709,2.294 0.475,0.524 1.054,0.775 1.768,0.775 0.74,0 1.354,-0.257 1.823,-0.775 0.469,-0.52 0.71,-1.293 0.71,-2.294 v -14.079 h 1.42 c 0.918,0 1.643,-0.116 2.158,-0.338 0.486,-0.21 0.723,-0.708 0.723,-1.521 0,-1.13 -0.942,-1.68 -2.881,-1.68 h -1.42 v -1.387 c 0,-1.055 0.141,-1.883 0.414,-2.461 0.294,-0.603 0.951,-0.91 1.952,-0.91 0.353,0 0.788,0.041 1.294,0.117 0.493,0.076 0.843,0.113 1.041,0.113 0.402,0 0.744,-0.155 1.043,-0.48 0.303,-0.324 0.448,-0.703 0.448,-1.164 0,-1.412 -1.509,-2.127 -4.481,-2.127 z"
   id="path79"
   inkscape:connector-curvature="0"
   style="fill:#2b3990" />
	<path
   d="m 423.168,426.205 c 0,-0.465 -0.16,-0.859 -0.475,-1.176 -0.317,-0.314 -0.664,-0.471 -1.056,-0.471 -0.283,0 -0.688,0.054 -1.208,0.159 -0.535,0.114 -0.967,0.171 -1.281,0.171 -0.602,0 -1.047,-0.158 -1.32,-0.457 -0.268,-0.299 -0.434,-0.686 -0.496,-1.155 -0.059,-0.444 -0.088,-1.089 -0.088,-1.915 v -9.814 h 1.114 c 1.019,0 1.808,-0.139 2.344,-0.412 0.515,-0.26 0.768,-0.707 0.768,-1.367 0,-0.514 -0.184,-0.937 -0.546,-1.264 -0.367,-0.33 -0.908,-0.496 -1.619,-0.496 h -2.061 v -3.721 c 0,-0.875 -0.047,-1.561 -0.142,-2.031 -0.091,-0.455 -0.302,-0.835 -0.646,-1.154 -0.515,-0.477 -1.095,-0.718 -1.727,-0.718 -0.447,0 -0.861,0.106 -1.227,0.319 -0.363,0.214 -0.646,0.492 -0.842,0.832 -0.194,0.33 -0.316,0.73 -0.357,1.189 -0.047,0.477 -0.068,1.147 -0.068,1.984 v 3.299 h -0.708 c -0.761,0 -1.349,0.166 -1.74,0.496 -0.39,0.33 -0.579,0.746 -0.579,1.264 0,0.518 0.182,0.935 0.555,1.273 0.371,0.332 0.924,0.506 1.648,0.506 h 0.824 v 10.24 c 0,1.613 0.133,2.922 0.391,3.883 0.255,0.94 0.798,1.686 1.617,2.219 0.824,0.539 2.059,0.807 3.672,0.807 1.707,0 3.032,-0.222 3.936,-0.66 0.887,-0.428 1.317,-1.028 1.317,-1.83 z"
   id="path81"
   inkscape:connector-curvature="0"
   style="fill:#2b3990" />
	<path
   d="m 448.99,424.635 4.306,-12.616 c 0.39,-1.073 0.589,-1.886 0.589,-2.405 0,-0.554 -0.22,-1.04 -0.652,-1.451 -0.438,-0.408 -0.96,-0.621 -1.551,-0.621 -0.596,0 -1.055,0.135 -1.363,0.402 -0.316,0.275 -0.543,0.596 -0.678,0.951 -0.139,0.367 -0.324,0.987 -0.555,1.833 l -3.6,12.199 -3.249,-11.368 c -0.319,-1.093 -0.571,-1.861 -0.748,-2.297 -0.171,-0.418 -0.472,-0.814 -0.899,-1.184 -0.416,-0.355 -1.009,-0.537 -1.758,-0.537 -0.736,0 -1.323,0.182 -1.74,0.537 -0.426,0.369 -0.717,0.753 -0.869,1.146 -0.16,0.411 -0.406,1.197 -0.738,2.334 l -3.251,11.371 -3.559,-12.2 c -0.344,-1.182 -0.669,-2.024 -0.972,-2.507 -0.281,-0.451 -0.842,-0.682 -1.662,-0.682 -0.617,0 -1.145,0.217 -1.568,0.639 -0.428,0.429 -0.637,0.896 -0.637,1.434 0,0.434 0.213,1.244 0.628,2.405 l 4.266,12.62 c 0.116,0.334 0.274,0.784 0.48,1.355 0.202,0.563 0.438,1.056 0.702,1.46 0.258,0.399 0.583,0.71 0.968,0.923 0.386,0.215 0.858,0.318 1.411,0.318 1.078,0 1.84,-0.342 2.262,-1.025 0.442,-0.715 0.859,-1.79 1.24,-3.197 l 3.037,-10.699 3.137,10.697 c 0.253,0.917 0.494,1.671 0.71,2.246 0.21,0.557 0.537,1.033 0.978,1.414 0.431,0.378 1.034,0.564 1.795,0.564 0.736,0 1.321,-0.174 1.74,-0.529 0.424,-0.355 0.74,-0.768 0.938,-1.227 0.202,-0.467 0.493,-1.243 0.862,-2.303 z"
   id="path83"
   inkscape:connector-curvature="0"
   style="fill:#2b3990" />
	<path
   d="m 475.305,424.651 c -0.33,-1.085 -0.497,-2.136 -0.497,-3.138 0.012,-1.053 0.021,-2.014 0.028,-2.873 0.007,-0.863 0.01,-1.909 0.01,-3.145 0,-1.926 -0.27,-3.49 -0.809,-4.652 -0.53,-1.148 -1.451,-1.997 -2.738,-2.532 -1.301,-0.534 -3.121,-0.806 -5.409,-0.806 -2.047,0 -3.776,0.279 -5.142,0.838 -1.363,0.554 -2.375,1.27 -3.012,2.119 -0.637,0.848 -0.959,1.73 -0.959,2.622 0,0.559 0.197,1 0.602,1.358 0.402,0.355 0.892,0.535 1.449,0.535 0.613,0 1.012,-0.103 1.183,-0.309 0.194,-0.235 0.536,-0.725 1.013,-1.464 0.492,-0.759 1.095,-1.341 1.782,-1.721 0.693,-0.382 1.731,-0.575 3.084,-0.575 1.59,0 2.659,0.347 3.181,1.023 0.508,0.668 0.8,1.722 0.865,3.129 l 0.004,0.105 -0.098,0.029 c -1.08,0.313 -2.116,0.59 -3.084,0.821 -0.941,0.224 -2.088,0.477 -3.408,0.743 -1.399,0.285 -2.166,0.447 -2.486,0.521 -1.561,0.337 -2.804,1.013 -3.695,2.005 -0.887,0.986 -1.336,2.198 -1.336,3.6 0,1.037 0.272,2.014 0.812,2.904 0.537,0.889 1.313,1.604 2.312,2.119 0.999,0.523 2.178,0.785 3.5,0.785 1.454,0 2.785,-0.244 3.952,-0.73 1.178,-0.492 2.41,-1.234 3.665,-2.209 l 0.115,-0.092 0.076,0.123 c 0.582,0.949 1.139,1.685 1.658,2.183 0.499,0.481 1.007,0.726 1.51,0.726 0.606,0 1.159,-0.211 1.643,-0.633 0.482,-0.42 0.718,-0.871 0.718,-1.377 -0.002,-0.292 -0.165,-0.974 -0.489,-2.032 z m -5.369,-5.663 c 0,1.842 -0.246,3.189 -0.731,4.002 -0.422,0.737 -1.092,1.346 -1.991,1.814 -0.896,0.465 -1.887,0.699 -2.945,0.699 -1.005,0 -1.833,-0.294 -2.461,-0.874 -0.631,-0.583 -0.949,-1.3 -0.949,-2.128 0,-0.811 0.275,-1.451 0.819,-1.906 0.526,-0.439 1.089,-0.742 1.671,-0.891 0.565,-0.152 1.596,-0.383 3.064,-0.699 1.465,-0.313 2.592,-0.612 3.348,-0.894 l 0.176,-0.065 v 0.942 z"
   id="path85"
   inkscape:connector-curvature="0"
   style="fill:#2b3990" />
	<path
   d="m 491.664,408.357 c -1.016,-0.543 -2.081,-0.816 -3.16,-0.816 -1.07,0 -1.934,0.271 -2.57,0.799 -0.648,0.545 -1.289,1.357 -1.908,2.418 l -0.227,0.387 -0.018,-0.447 c -0.037,-1.051 -0.242,-1.851 -0.611,-2.379 -0.359,-0.517 -0.96,-0.777 -1.786,-0.777 -1.638,0 -2.435,1.119 -2.435,3.423 v 14.662 c 0,1.017 0.236,1.79 0.701,2.304 0.459,0.509 1.055,0.766 1.773,0.766 0.731,0 1.341,-0.254 1.815,-0.758 0.476,-0.506 0.718,-1.281 0.718,-2.312 v -4.399 c 0,-1.58 0.051,-2.938 0.151,-4.037 0.106,-1.1 0.296,-2.064 0.569,-2.874 0.276,-0.815 0.672,-1.443 1.178,-1.862 0.879,-0.73 2.176,-0.852 3.973,-0.274 0.902,0.291 1.238,0.354 1.359,0.354 0.477,0 0.93,-0.201 1.348,-0.595 0.42,-0.396 0.624,-0.884 0.624,-1.495 10e-4,-0.873 -0.486,-1.553 -1.494,-2.088 z"
   id="path87"
   inkscape:connector-curvature="0"
   style="fill:#2b3990" />
	<path
   d="m 512.329,424.894 c 0.359,-0.614 0.542,-1.157 0.542,-1.604 0,-0.505 -0.148,-0.883 -0.457,-1.152 -0.307,-0.275 -0.721,-0.416 -1.227,-0.416 -0.468,0 -0.828,0.108 -1.072,0.319 -0.664,0.622 -1.191,1.103 -1.602,1.465 -0.409,0.362 -0.87,0.703 -1.363,1.026 -0.5,0.316 -1.02,0.558 -1.552,0.707 -0.528,0.151 -1.12,0.227 -1.761,0.227 -0.958,0 -1.85,-0.238 -2.645,-0.713 -0.795,-0.473 -1.442,-1.188 -1.918,-2.115 -0.479,-0.93 -0.727,-2.012 -0.738,-3.223 l -0.004,-0.133 h 10.436 c 1.348,0 2.406,-0.189 3.145,-0.573 0.707,-0.366 1.067,-1.192 1.067,-2.459 0,-1.397 -0.365,-2.796 -1.085,-4.146 -0.719,-1.348 -1.815,-2.465 -3.26,-3.317 -1.443,-0.851 -3.204,-1.28 -5.23,-1.28 -1.558,0 -2.996,0.252 -4.274,0.75 -1.272,0.498 -2.36,1.223 -3.232,2.156 -0.87,0.936 -1.542,2.073 -1.997,3.381 -0.457,1.313 -0.688,2.756 -0.688,4.287 0,3.255 0.936,5.869 2.779,7.765 1.844,1.894 4.467,2.851 7.799,2.851 1.458,0 2.766,-0.187 3.884,-0.57 1.121,-0.379 2.062,-0.861 2.798,-1.438 0.734,-0.571 1.293,-1.175 1.655,-1.795 z m -13.792,-8.486 c 0.182,-1.794 0.709,-3.172 1.568,-4.098 0.863,-0.93 1.982,-1.4 3.326,-1.4 1.408,0 2.559,0.463 3.424,1.381 0.857,0.91 1.359,2.299 1.49,4.121 l 0.01,0.141 h -9.831 l 0.013,-0.145 z"
   id="path89"
   inkscape:connector-curvature="0"
   style="fill:#2b3990" />
	<path
   d="m 545.81,424.35 c 0.382,-0.723 0.573,-1.41 0.573,-2.041 0,-0.52 -0.203,-1.017 -0.604,-1.48 -0.398,-0.457 -0.903,-0.687 -1.503,-0.687 -0.505,0 -0.935,0.156 -1.283,0.468 -0.36,0.324 -0.702,0.781 -1.015,1.353 -0.59,1.022 -1.276,1.792 -2.042,2.286 -0.767,0.5 -1.703,0.756 -2.78,0.756 -0.801,0 -1.546,-0.158 -2.214,-0.469 -0.674,-0.31 -1.256,-0.77 -1.726,-1.367 -0.475,-0.596 -0.837,-1.326 -1.087,-2.168 -0.246,-0.834 -0.37,-1.766 -0.37,-2.764 0,-2.132 0.49,-3.835 1.455,-5.07 0.973,-1.243 2.273,-1.869 3.865,-1.869 1.102,0 2.025,0.255 2.746,0.756 0.71,0.496 1.396,1.248 2.051,2.235 0.348,0.485 0.668,0.842 0.945,1.056 0.266,0.208 0.605,0.312 1.01,0.312 0.631,0 1.177,-0.213 1.619,-0.62 0.446,-0.414 0.662,-0.908 0.662,-1.509 0,-0.592 -0.205,-1.24 -0.609,-1.932 -0.406,-0.695 -1.004,-1.36 -1.783,-1.978 -0.773,-0.618 -1.734,-1.132 -2.854,-1.524 -1.12,-0.39 -2.366,-0.588 -3.71,-0.588 -2.166,0 -4.053,0.451 -5.607,1.341 -1.551,0.888 -2.757,2.165 -3.574,3.797 -0.824,1.632 -1.242,3.54 -1.242,5.667 0,3.145 0.912,5.678 2.705,7.544 1.791,1.86 4.321,2.806 7.526,2.806 1.505,0 2.88,-0.206 4.087,-0.611 1.199,-0.404 2.207,-0.945 2.997,-1.607 0.788,-0.664 1.382,-1.37 1.762,-2.093 z"
   id="path91"
   inkscape:connector-curvature="0"
   style="fill:#2b3990" />
	<path
   d="m 568.969,424.651 c -0.33,-1.083 -0.498,-2.134 -0.498,-3.138 0.014,-1.053 0.023,-2.014 0.03,-2.873 0.007,-0.863 0.01,-1.909 0.01,-3.145 0,-1.929 -0.271,-3.49 -0.808,-4.652 -0.531,-1.148 -1.453,-1.997 -2.738,-2.532 -1.303,-0.534 -3.123,-0.806 -5.412,-0.806 -2.045,0 -3.773,0.279 -5.141,0.838 -1.362,0.554 -2.375,1.27 -3.013,2.119 -0.635,0.848 -0.956,1.73 -0.956,2.622 0,0.559 0.195,1 0.601,1.358 0.411,0.36 0.884,0.535 1.448,0.535 0.613,0 1.012,-0.103 1.184,-0.309 0.197,-0.236 0.537,-0.728 1.012,-1.461 0.494,-0.762 1.094,-1.344 1.781,-1.724 0.695,-0.382 1.732,-0.575 3.084,-0.575 1.592,0 2.662,0.347 3.181,1.023 0.51,0.667 0.801,1.72 0.865,3.129 l 0.006,0.105 -0.099,0.029 c -1.085,0.313 -2.121,0.591 -3.084,0.821 -0.934,0.222 -2.082,0.477 -3.409,0.743 -1.397,0.285 -2.165,0.447 -2.486,0.521 -1.562,0.337 -2.804,1.013 -3.693,2.005 -0.888,0.986 -1.337,2.198 -1.337,3.6 0,1.037 0.273,2.014 0.811,2.904 0.537,0.889 1.316,1.6 2.312,2.119 1.001,0.523 2.179,0.785 3.501,0.785 1.455,0 2.785,-0.244 3.953,-0.73 1.178,-0.492 2.41,-1.231 3.667,-2.209 l 0.111,-0.092 0.077,0.123 c 0.58,0.949 1.141,1.685 1.657,2.183 0.499,0.481 1.009,0.726 1.512,0.726 0.605,0 1.159,-0.211 1.642,-0.633 0.482,-0.42 0.717,-0.871 0.717,-1.377 -0.002,-0.288 -0.165,-0.974 -0.488,-2.032 z m -5.37,-5.663 c 0,1.84 -0.245,3.186 -0.731,4.002 -0.42,0.738 -1.092,1.346 -1.992,1.814 -0.893,0.465 -1.882,0.699 -2.941,0.699 -1.008,0 -1.834,-0.294 -2.463,-0.874 -0.63,-0.583 -0.949,-1.3 -0.949,-2.128 0,-0.811 0.275,-1.451 0.818,-1.906 0.525,-0.439 1.088,-0.742 1.672,-0.891 0.565,-0.152 1.595,-0.383 3.066,-0.699 1.462,-0.312 2.589,-0.612 3.348,-0.894 l 0.173,-0.065 v 0.942 z"
   id="path93"
   inkscape:connector-curvature="0"
   style="fill:#2b3990" />
	<path
   d="m 585.33,408.357 c -1.017,-0.543 -2.082,-0.816 -3.16,-0.816 -1.07,0 -1.935,0.271 -2.57,0.799 -0.649,0.547 -1.292,1.357 -1.91,2.418 l -0.226,0.389 -0.016,-0.449 c -0.038,-1.051 -0.244,-1.851 -0.613,-2.379 -0.358,-0.517 -0.96,-0.777 -1.784,-0.777 -1.639,0 -2.437,1.119 -2.437,3.423 v 14.662 c 0,1.017 0.236,1.794 0.7,2.304 0.467,0.519 1.047,0.766 1.775,0.766 0.73,0 1.341,-0.254 1.814,-0.758 0.476,-0.506 0.717,-1.281 0.717,-2.312 v -4.399 c 0,-1.589 0.054,-2.943 0.156,-4.037 0.101,-1.1 0.293,-2.064 0.565,-2.874 0.278,-0.815 0.673,-1.443 1.178,-1.862 0.878,-0.73 2.179,-0.852 3.972,-0.274 0.904,0.291 1.238,0.354 1.359,0.354 0.477,0 0.932,-0.201 1.351,-0.595 0.419,-0.397 0.622,-0.888 0.622,-1.495 10e-4,-0.873 -0.485,-1.553 -1.493,-2.088 z"
   id="path95"
   inkscape:connector-curvature="0"
   style="fill:#2b3990" />
	<path
   d="m 606.846,425.877 c 0.782,-0.904 1.406,-2.039 1.856,-3.372 0.447,-1.337 0.677,-2.825 0.677,-4.425 0,-2.164 -0.396,-4.068 -1.174,-5.655 -0.778,-1.577 -1.848,-2.79 -3.184,-3.61 -1.336,-0.818 -2.821,-1.234 -4.406,-1.234 -1.322,0 -2.523,0.285 -3.567,0.845 -1.046,0.562 -2.071,1.456 -3.048,2.659 l -0.229,0.283 v -1.002 c 0,-0.916 -0.224,-1.623 -0.67,-2.104 -0.442,-0.477 -1.022,-0.721 -1.728,-0.721 -0.719,0 -1.287,0.236 -1.697,0.699 -0.413,0.469 -0.623,1.195 -0.623,2.162 v 22.727 c 0,1.12 0.157,1.98 0.467,2.552 0.299,0.56 0.904,0.829 1.854,0.829 1.613,0 2.397,-1.093 2.397,-3.342 v -8.282 l 0.231,0.294 c 0.912,1.154 1.886,2.037 2.889,2.631 0.996,0.586 2.25,0.885 3.725,0.885 1.222,0 2.381,-0.244 3.445,-0.73 1.066,-0.484 2.001,-1.19 2.785,-2.089 z m -3.18,-4.117 c -0.459,1.034 -1.076,1.822 -1.84,2.342 -0.766,0.521 -1.607,0.787 -2.504,0.787 -1.501,0 -2.775,-0.605 -3.785,-1.795 -1.006,-1.182 -1.516,-2.855 -1.516,-4.974 0,-2.247 0.513,-3.978 1.525,-5.14 1.021,-1.17 2.289,-1.759 3.775,-1.759 0.938,0 1.803,0.272 2.572,0.821 0.769,0.545 1.378,1.336 1.811,2.354 0.43,1.006 0.646,2.225 0.646,3.629 0.002,1.45 -0.229,2.707 -0.684,3.735 z"
   id="path97"
   inkscape:connector-curvature="0"
   style="fill:#2b3990" />
	<path
   d="m 630.689,424.894 c 0.359,-0.614 0.543,-1.157 0.543,-1.604 0,-0.505 -0.151,-0.883 -0.459,-1.152 -0.312,-0.277 -0.714,-0.416 -1.226,-0.416 -0.468,0 -0.829,0.108 -1.073,0.319 -0.663,0.622 -1.189,1.103 -1.6,1.465 -0.414,0.362 -0.874,0.708 -1.366,1.026 -0.497,0.316 -1.019,0.558 -1.549,0.707 -0.527,0.151 -1.122,0.227 -1.763,0.227 -0.959,0 -1.848,-0.238 -2.643,-0.713 -0.798,-0.473 -1.443,-1.188 -1.92,-2.115 -0.476,-0.93 -0.726,-2.012 -0.738,-3.223 l -0.002,-0.133 h 10.434 c 1.35,0 2.404,-0.189 3.145,-0.573 0.707,-0.366 1.068,-1.192 1.068,-2.459 0,-1.397 -0.365,-2.796 -1.084,-4.146 -0.719,-1.352 -1.816,-2.465 -3.263,-3.317 -1.441,-0.851 -3.201,-1.28 -5.228,-1.28 -1.561,0 -2.999,0.252 -4.275,0.75 -1.273,0.498 -2.359,1.223 -3.232,2.156 -0.87,0.936 -1.543,2.073 -1.998,3.381 -0.457,1.313 -0.688,2.756 -0.688,4.287 0,3.255 0.935,5.869 2.78,7.765 1.843,1.894 4.467,2.851 7.796,2.851 1.459,0 2.768,-0.187 3.888,-0.57 1.122,-0.379 2.062,-0.861 2.798,-1.438 0.734,-0.568 1.291,-1.175 1.655,-1.795 z m -13.793,-8.486 c 0.182,-1.794 0.71,-3.172 1.569,-4.098 0.864,-0.93 1.981,-1.4 3.325,-1.4 1.406,0 2.561,0.463 3.424,1.381 0.857,0.91 1.361,2.299 1.492,4.121 l 0.01,0.141 h -9.834 l 0.014,-0.145 z"
   id="path99"
   inkscape:connector-curvature="0"
   style="fill:#2b3990" />
	<path
   d="m 653.291,415.825 c 0,-1.146 -0.051,-2.099 -0.151,-2.84 -0.101,-0.726 -0.325,-1.413 -0.661,-2.037 -0.529,-1.083 -1.333,-1.927 -2.4,-2.516 -1.069,-0.589 -2.301,-0.892 -3.66,-0.892 -1.4,0 -2.654,0.285 -3.729,0.846 -1.078,0.561 -2.085,1.454 -2.996,2.654 l -0.233,0.311 v -1.025 c 0,-0.607 -0.107,-1.123 -0.324,-1.54 -0.213,-0.414 -0.497,-0.729 -0.846,-0.934 -0.354,-0.206 -0.754,-0.312 -1.189,-0.312 -0.717,0 -1.289,0.236 -1.696,0.699 -0.414,0.469 -0.625,1.195 -0.625,2.162 v 15.224 c 0,0.99 0.235,1.763 0.702,2.286 0.461,0.521 1.059,0.783 1.771,0.783 0.745,0 1.358,-0.254 1.826,-0.758 0.471,-0.504 0.709,-1.281 0.709,-2.312 v -6.601 c 0,-2.184 0.129,-3.635 0.391,-4.438 0.371,-1.003 0.956,-1.799 1.747,-2.373 0.791,-0.571 1.681,-0.861 2.64,-0.861 1.486,0 2.494,0.486 3.002,1.445 0.49,0.939 0.739,2.298 0.739,4.049 v 8.778 c 0,0.99 0.235,1.763 0.7,2.286 0.461,0.521 1.07,0.783 1.811,0.783 0.741,0 1.324,-0.247 1.785,-0.766 0.459,-0.514 0.689,-1.287 0.689,-2.304 v -9.797 z"
   id="path101"
   inkscape:connector-curvature="0"
   style="fill:#2b3990" />
	<path
   d="m 669.801,426.205 c 0,-0.471 -0.157,-0.855 -0.475,-1.174 -0.316,-0.316 -0.663,-0.473 -1.055,-0.473 -0.285,0 -0.689,0.054 -1.21,0.159 -0.542,0.114 -0.962,0.171 -1.28,0.171 -0.601,0 -1.045,-0.158 -1.321,-0.457 -0.267,-0.299 -0.435,-0.684 -0.497,-1.155 -0.057,-0.45 -0.086,-1.099 -0.086,-1.915 v -9.814 h 1.113 c 1.02,0 1.808,-0.139 2.346,-0.412 0.515,-0.26 0.766,-0.707 0.766,-1.367 0,-0.514 -0.182,-0.937 -0.545,-1.264 -0.365,-0.33 -0.912,-0.496 -1.622,-0.496 h -2.058 v -3.721 c 0,-0.879 -0.049,-1.562 -0.143,-2.027 -0.09,-0.451 -0.307,-0.839 -0.647,-1.158 -0.511,-0.477 -1.091,-0.718 -1.724,-0.718 -0.449,0 -0.861,0.106 -1.227,0.319 -0.363,0.214 -0.646,0.492 -0.84,0.832 -0.196,0.33 -0.316,0.73 -0.361,1.189 -0.043,0.477 -0.065,1.147 -0.065,1.984 v 3.299 h -0.71 c -0.762,0 -1.348,0.166 -1.74,0.496 -0.391,0.33 -0.578,0.746 -0.578,1.264 0,0.518 0.181,0.935 0.553,1.273 0.371,0.332 0.927,0.506 1.651,0.506 h 0.824 v 10.24 c 0,1.613 0.13,2.922 0.392,3.883 0.254,0.94 0.797,1.686 1.614,2.219 0.824,0.539 2.062,0.807 3.671,0.807 1.709,0 3.035,-0.222 3.938,-0.66 0.884,-0.428 1.316,-1.028 1.316,-1.83 z"
   id="path103"
   inkscape:connector-curvature="0"
   style="fill:#2b3990" />
	<path
   d="m 684.916,408.357 c -1.02,-0.543 -2.082,-0.816 -3.162,-0.816 -1.067,0 -1.933,0.271 -2.568,0.799 -0.65,0.547 -1.294,1.357 -1.91,2.418 l -0.228,0.389 -0.017,-0.449 c -0.036,-1.051 -0.241,-1.851 -0.613,-2.379 -0.356,-0.517 -0.957,-0.777 -1.782,-0.777 -1.641,0 -2.437,1.119 -2.437,3.423 v 14.662 c 0,1.017 0.234,1.794 0.7,2.304 0.466,0.519 1.046,0.766 1.774,0.766 0.729,0 1.342,-0.254 1.816,-0.758 0.475,-0.506 0.717,-1.281 0.717,-2.312 v -4.399 c 0,-1.589 0.052,-2.943 0.154,-4.037 0.104,-1.1 0.293,-2.064 0.565,-2.874 0.277,-0.815 0.674,-1.443 1.178,-1.862 0.88,-0.73 2.18,-0.852 3.973,-0.274 0.903,0.291 1.238,0.354 1.359,0.354 0.476,0 0.931,-0.201 1.349,-0.595 0.419,-0.397 0.625,-0.888 0.625,-1.495 10e-4,-0.873 -0.488,-1.553 -1.493,-2.088 z"
   id="path105"
   inkscape:connector-curvature="0"
   style="fill:#2b3990" />
	<path
   d="m 697.184,433.775 c 0.561,-0.889 1.142,-2.137 1.725,-3.701 l 6.869,-17.982 c 0.17,-0.471 0.31,-0.915 0.422,-1.354 0.112,-0.44 0.195,-0.791 0.25,-1.039 -0.006,-0.348 -0.099,-0.707 -0.289,-1.046 -0.186,-0.341 -0.454,-0.613 -0.799,-0.81 -0.344,-0.2 -0.709,-0.303 -1.082,-0.303 -0.527,0 -0.936,0.09 -1.213,0.271 -0.281,0.179 -0.553,0.538 -0.812,1.063 -0.267,0.549 -0.571,1.318 -0.901,2.283 l -4.349,12.41 -4.579,-13.315 c -0.291,-0.887 -0.63,-1.571 -1,-2.034 -0.363,-0.457 -0.891,-0.678 -1.615,-0.678 -0.414,0 -0.819,0.113 -1.201,0.331 -0.383,0.219 -0.689,0.515 -0.908,0.88 -0.219,0.365 -0.327,0.763 -0.327,1.186 0,0.408 0.198,1.078 0.586,1.996 l 6.504,16.375 -0.501,1.225 c -0.365,0.867 -0.689,1.531 -0.966,1.979 -0.288,0.461 -0.621,0.791 -0.987,0.982 -0.367,0.188 -0.866,0.283 -1.486,0.283 -0.254,0 -0.556,-0.039 -0.898,-0.117 -0.262,-0.078 -0.531,-0.113 -0.801,-0.113 -0.685,0 -1.204,0.156 -1.543,0.46 -0.34,0.302 -0.507,0.729 -0.507,1.301 0,0.836 0.354,1.396 1.08,1.712 0.749,0.327 1.9,0.49 3.422,0.49 1.553,0 2.8,-0.236 3.712,-0.705 0.905,-0.473 1.643,-1.155 2.194,-2.03 z"
   id="path107"
   inkscape:connector-curvature="0"
   style="fill:#2b3990" />
	<g
   id="g109">
		<path
   d="m 378.281,402.475 c 0,0 -0.241,0.784 0,1.045 0.239,0.26 1.447,0.343 1.447,0.343 v 15.13 l 2.412,1.738 2.051,-1.914 v -14.821 l 0.603,-0.133 c 0.967,0.261 1.206,-0.604 1.206,-0.604 v -0.784 h -7.719 z m 5.064,16.17 -0.681,0.262 v -14.823 l 0.681,-0.221 v 14.782 z m 1.811,-15.428 c -0.722,0.042 -5.309,-0.48 -5.309,-0.48 h 5.309 c 0,-0.001 0.724,0.433 0,0.48 z"
   id="path111"
   inkscape:connector-curvature="0"
   style="fill:#2b3990" />
		<path
   clip-rule="evenodd"
   d="m 389.605,409.053 -0.002,0.003 -0.056,-0.038 c -0.411,-0.401 -0.949,-0.621 -1.521,-0.621 -1.203,0 -2.186,0.984 -2.186,2.188 0,0.568 0.22,1.108 0.62,1.52 l 0.039,0.041 c 0.073,0.067 0.147,0.137 0.233,0.193 1.506,1.34 2.365,3.249 2.365,5.246 0,3.863 -3.146,7.012 -7.01,7.012 -3.867,0 -7.01,-3.148 -7.01,-7.012 0,-1.962 0.834,-3.848 2.291,-5.176 0.619,-0.414 0.983,-1.094 0.983,-1.824 0,-1.203 -0.98,-2.188 -2.185,-2.188 -0.574,0 -1.119,0.225 -1.528,0.628 l -0.05,0.049 -0.02,-0.021 c -2.449,2.162 -3.853,5.271 -3.853,8.531 0,6.27 5.102,11.375 11.373,11.375 6.27,0 11.373,-5.105 11.373,-11.375 -0.001,-3.263 -1.406,-6.369 -3.856,-8.531 z"
   id="path113"
   inkscape:connector-curvature="0"
   style="fill:#2b3990;fill-rule:evenodd" />
	</g>
</g>
<g
   id="g115"
   transform="translate(-350.692,-117.08488)">
	<path
   d="m 422.657,286.751 c 0.688,-1.008 1.038,-2.24 1.038,-3.661 0,-0.93 -0.264,-1.772 -0.778,-2.499 -0.517,-0.731 -1.296,-1.376 -2.306,-1.916 -1.027,-0.547 -2.366,-1.025 -3.977,-1.418 -1.402,-0.34 -2.463,-0.62 -3.246,-0.848 -0.799,-0.238 -1.44,-0.543 -1.915,-0.904 -0.492,-0.375 -0.744,-0.868 -0.744,-1.461 0,-0.651 0.339,-1.197 1.007,-1.625 0.645,-0.417 1.467,-0.626 2.441,-0.626 0.943,0 1.707,0.162 2.262,0.481 0.554,0.313 1.04,0.742 1.45,1.267 0.479,0.606 0.911,1.065 1.28,1.37 0.354,0.286 0.793,0.431 1.297,0.431 0.709,0 1.26,-0.181 1.637,-0.542 0.383,-0.364 0.567,-0.817 0.567,-1.394 0,-0.523 -0.184,-1.069 -0.546,-1.626 -0.368,-0.558 -0.913,-1.079 -1.623,-1.542 -0.714,-0.468 -1.615,-0.844 -2.681,-1.121 -1.073,-0.281 -2.301,-0.422 -3.644,-0.422 -1.713,0 -3.191,0.279 -4.393,0.827 -1.199,0.547 -2.121,1.288 -2.735,2.204 -0.612,0.913 -0.921,1.894 -0.921,2.916 0,1.15 0.333,2.125 0.992,2.91 0.663,0.789 1.564,1.434 2.682,1.922 1.128,0.49 2.613,0.965 4.407,1.41 1.609,0.387 2.787,0.8 3.499,1.231 0.738,0.448 1.114,1.166 1.114,2.137 0,0.647 -0.36,1.226 -1.069,1.716 -0.691,0.482 -1.59,0.729 -2.67,0.729 -1.318,0 -2.376,-0.243 -3.145,-0.714 -0.768,-0.47 -1.434,-1.195 -1.985,-2.146 -0.259,-0.476 -0.538,-0.851 -0.821,-1.108 -0.27,-0.247 -0.666,-0.371 -1.188,-0.371 -0.6,0 -1.082,0.19 -1.469,0.577 -0.392,0.391 -0.58,0.848 -0.58,1.394 0,0.845 0.316,1.697 0.938,2.537 0.627,0.843 1.615,1.559 2.938,2.128 1.33,0.571 2.949,0.857 4.811,0.857 1.955,0 3.637,-0.266 5,-0.791 1.35,-0.523 2.384,-1.298 3.076,-2.309 z"
   id="path117"
   inkscape:connector-curvature="0"
   style="fill:#2b3990" />
	<path
   d="m 460.055,260.862 c -1.709,0 -3.071,0.221 -4.049,0.654 -0.961,0.429 -1.654,1.121 -2.057,2.054 -0.406,0.951 -0.615,2.254 -0.615,3.876 v 1.713 h -1.384 c -1.692,0 -2.513,0.574 -2.513,1.759 0,0.529 0.191,0.947 0.59,1.28 0.398,0.331 0.98,0.5 1.73,0.5 h 1.576 v 14.079 c 0,1.006 0.239,1.775 0.709,2.294 0.475,0.525 1.053,0.776 1.767,0.776 0.739,0 1.354,-0.258 1.823,-0.776 0.469,-0.519 0.709,-1.292 0.709,-2.294 v -14.079 h 1.422 c 0.916,0 1.642,-0.116 2.158,-0.338 0.485,-0.209 0.722,-0.708 0.722,-1.521 0,-1.13 -0.942,-1.68 -2.88,-1.68 h -1.422 v -1.386 c 0,-1.056 0.141,-1.883 0.416,-2.461 0.293,-0.603 0.95,-0.911 1.951,-0.911 0.353,0 0.789,0.042 1.294,0.117 0.493,0.076 0.843,0.114 1.04,0.114 0.403,0 0.745,-0.156 1.044,-0.481 0.302,-0.324 0.448,-0.703 0.448,-1.164 0.001,-1.411 -1.507,-2.125 -4.479,-2.125 z"
   id="path119"
   inkscape:connector-curvature="0"
   style="fill:#2b3990" />
	<path
   d="m 478.371,287.357 c 0,-0.465 -0.161,-0.859 -0.475,-1.176 -0.318,-0.314 -0.664,-0.47 -1.057,-0.47 -0.283,0 -0.688,0.054 -1.207,0.159 -0.535,0.114 -0.967,0.171 -1.282,0.171 -0.601,0 -1.046,-0.159 -1.319,-0.457 -0.269,-0.299 -0.435,-0.687 -0.496,-1.156 -0.061,-0.445 -0.088,-1.089 -0.088,-1.915 v -9.815 h 1.113 c 1.019,0 1.809,-0.138 2.344,-0.411 0.516,-0.26 0.768,-0.708 0.768,-1.369 0,-0.512 -0.184,-0.936 -0.546,-1.263 -0.366,-0.331 -0.909,-0.497 -1.62,-0.497 h -2.059 v -3.72 c 0,-0.876 -0.048,-1.561 -0.143,-2.032 -0.09,-0.455 -0.301,-0.835 -0.646,-1.154 -0.514,-0.477 -1.094,-0.718 -1.725,-0.718 -0.448,0 -0.862,0.107 -1.227,0.32 -0.364,0.213 -0.647,0.491 -0.843,0.831 -0.194,0.331 -0.316,0.73 -0.356,1.19 -0.048,0.476 -0.068,1.147 -0.068,1.984 v 3.298 h -0.709 c -0.761,0 -1.348,0.166 -1.74,0.497 -0.389,0.33 -0.579,0.746 -0.579,1.263 0,0.518 0.181,0.935 0.555,1.273 0.372,0.333 0.925,0.506 1.649,0.506 h 0.824 v 10.241 c 0,1.613 0.131,2.92 0.39,3.882 0.255,0.94 0.798,1.686 1.617,2.219 0.825,0.54 2.059,0.808 3.671,0.808 1.708,0 3.033,-0.223 3.936,-0.66 0.887,-0.427 1.318,-1.027 1.318,-1.829 z"
   id="path121"
   inkscape:connector-curvature="0"
   style="fill:#2b3990" />
	<path
   d="m 504.193,285.788 4.305,-12.617 c 0.391,-1.073 0.59,-1.886 0.59,-2.406 0,-0.554 -0.221,-1.04 -0.653,-1.451 -0.438,-0.408 -0.96,-0.62 -1.55,-0.62 -0.596,0 -1.057,0.133 -1.364,0.401 -0.316,0.275 -0.542,0.596 -0.677,0.951 -0.139,0.368 -0.325,0.988 -0.555,1.833 l -3.602,12.199 -3.248,-11.369 c -0.32,-1.093 -0.571,-1.861 -0.748,-2.296 -0.171,-0.419 -0.472,-0.815 -0.898,-1.184 -0.417,-0.356 -1.01,-0.537 -1.758,-0.537 -0.736,0 -1.324,0.181 -1.74,0.537 -0.427,0.369 -0.718,0.752 -0.869,1.146 -0.161,0.411 -0.407,1.198 -0.74,2.333 l -3.25,11.372 -3.559,-12.201 c -0.344,-1.181 -0.668,-2.024 -0.971,-2.506 -0.282,-0.451 -0.842,-0.681 -1.663,-0.681 -0.617,0 -1.145,0.216 -1.569,0.638 -0.427,0.429 -0.636,0.896 -0.636,1.434 0,0.434 0.212,1.244 0.628,2.406 l 4.266,12.619 c 0.116,0.334 0.275,0.785 0.48,1.356 0.203,0.563 0.438,1.055 0.701,1.459 0.259,0.399 0.584,0.71 0.969,0.923 0.385,0.215 0.858,0.319 1.411,0.319 1.078,0 1.839,-0.343 2.263,-1.026 0.441,-0.715 0.859,-1.79 1.24,-3.197 l 3.037,-10.699 3.136,10.696 c 0.253,0.918 0.494,1.672 0.71,2.248 0.211,0.556 0.537,1.032 0.978,1.413 0.431,0.378 1.034,0.565 1.795,0.565 0.736,0 1.321,-0.175 1.74,-0.53 0.423,-0.356 0.739,-0.767 0.938,-1.226 0.203,-0.467 0.494,-1.242 0.863,-2.302 z"
   id="path123"
   inkscape:connector-curvature="0"
   style="fill:#2b3990" />
	<path
   d="m 530.508,285.803 c -0.33,-1.084 -0.498,-2.135 -0.498,-3.137 0.012,-1.054 0.021,-2.015 0.028,-2.873 0.007,-0.864 0.01,-1.91 0.01,-3.145 0,-1.925 -0.27,-3.491 -0.809,-4.653 -0.53,-1.148 -1.451,-1.997 -2.739,-2.532 -1.299,-0.534 -3.12,-0.806 -5.408,-0.806 -2.047,0 -3.776,0.28 -5.142,0.837 -1.363,0.555 -2.374,1.27 -3.012,2.12 -0.637,0.847 -0.958,1.729 -0.958,2.622 0,0.559 0.197,1 0.602,1.358 0.402,0.357 0.891,0.536 1.447,0.536 0.614,0 1.012,-0.103 1.184,-0.309 0.194,-0.235 0.537,-0.725 1.014,-1.463 0.492,-0.76 1.094,-1.34 1.781,-1.721 0.693,-0.381 1.732,-0.575 3.084,-0.575 1.59,0 2.66,0.346 3.181,1.024 0.509,0.668 0.8,1.721 0.865,3.129 l 0.005,0.104 -0.1,0.029 c -1.078,0.313 -2.115,0.589 -3.082,0.822 -0.941,0.224 -2.088,0.476 -3.409,0.743 -1.399,0.286 -2.167,0.448 -2.486,0.521 -1.562,0.336 -2.804,1.013 -3.694,2.005 -0.887,0.986 -1.338,2.198 -1.338,3.6 0,1.037 0.273,2.013 0.812,2.904 0.537,0.889 1.314,1.603 2.312,2.119 0.999,0.523 2.179,0.786 3.501,0.786 1.453,0 2.785,-0.245 3.951,-0.73 1.178,-0.492 2.41,-1.235 3.665,-2.209 l 0.115,-0.092 0.077,0.124 c 0.581,0.949 1.139,1.684 1.657,2.182 0.499,0.481 1.007,0.726 1.51,0.726 0.606,0 1.159,-0.211 1.643,-0.634 0.482,-0.419 0.718,-0.871 0.718,-1.376 -10e-4,-0.297 -0.164,-0.978 -0.487,-2.036 z m -5.37,-5.662 c 0,1.841 -0.246,3.189 -0.731,4.002 -0.422,0.736 -1.092,1.346 -1.992,1.814 -0.895,0.465 -1.886,0.699 -2.943,0.699 -1.006,0 -1.834,-0.293 -2.461,-0.874 -0.631,-0.583 -0.949,-1.3 -0.949,-2.129 0,-0.809 0.275,-1.451 0.818,-1.906 0.527,-0.439 1.088,-0.741 1.672,-0.89 0.564,-0.152 1.595,-0.382 3.064,-0.699 1.464,-0.314 2.591,-0.613 3.348,-0.894 l 0.175,-0.065 v 0.942 z"
   id="path125"
   inkscape:connector-curvature="0"
   style="fill:#2b3990" />
	<path
   d="m 546.867,269.51 c -1.017,-0.543 -2.082,-0.816 -3.161,-0.816 -1.069,0 -1.934,0.27 -2.569,0.799 -0.648,0.544 -1.29,1.357 -1.91,2.418 l -0.225,0.387 -0.018,-0.448 c -0.037,-1.051 -0.243,-1.851 -0.612,-2.379 -0.358,-0.517 -0.96,-0.777 -1.786,-0.777 -1.639,0 -2.435,1.118 -2.435,3.422 v 14.662 c 0,1.016 0.237,1.791 0.702,2.305 0.458,0.508 1.055,0.766 1.773,0.766 0.73,0 1.34,-0.254 1.814,-0.759 0.477,-0.505 0.719,-1.281 0.719,-2.312 v -4.399 c 0,-1.581 0.051,-2.938 0.15,-4.037 0.106,-1.101 0.295,-2.065 0.57,-2.875 0.275,-0.815 0.671,-1.443 1.178,-1.862 0.879,-0.729 2.176,-0.851 3.973,-0.274 0.902,0.291 1.236,0.354 1.358,0.354 0.478,0 0.93,-0.201 1.349,-0.594 0.42,-0.396 0.623,-0.884 0.623,-1.495 10e-4,-0.872 -0.485,-1.553 -1.493,-2.086 z"
   id="path127"
   inkscape:connector-curvature="0"
   style="fill:#2b3990" />
	<path
   d="m 567.531,286.046 c 0.359,-0.614 0.541,-1.158 0.541,-1.605 0,-0.504 -0.148,-0.882 -0.457,-1.152 -0.307,-0.275 -0.721,-0.416 -1.226,-0.416 -0.468,0 -0.827,0.108 -1.072,0.319 -0.664,0.623 -1.19,1.103 -1.601,1.465 -0.411,0.362 -0.871,0.703 -1.365,1.026 -0.498,0.317 -1.02,0.558 -1.551,0.708 -0.528,0.151 -1.119,0.226 -1.76,0.226 -0.959,0 -1.85,-0.238 -2.645,-0.713 -0.796,-0.472 -1.443,-1.187 -1.92,-2.114 -0.477,-0.929 -0.726,-2.012 -0.738,-3.223 l -0.002,-0.132 h 10.436 c 1.348,0 2.405,-0.19 3.145,-0.574 0.707,-0.366 1.066,-1.193 1.066,-2.459 0,-1.396 -0.365,-2.796 -1.084,-4.145 -0.719,-1.347 -1.816,-2.465 -3.261,-3.318 -1.443,-0.851 -3.204,-1.28 -5.229,-1.28 -1.559,0 -2.997,0.252 -4.275,0.75 -1.272,0.499 -2.359,1.223 -3.232,2.156 -0.87,0.936 -1.543,2.074 -1.997,3.381 -0.457,1.313 -0.687,2.755 -0.687,4.287 0,3.255 0.936,5.869 2.778,7.765 1.845,1.894 4.467,2.851 7.8,2.851 1.457,0 2.765,-0.188 3.883,-0.57 1.121,-0.379 2.062,-0.861 2.799,-1.438 0.733,-0.571 1.291,-1.174 1.654,-1.795 z m -13.793,-8.485 c 0.184,-1.795 0.71,-3.173 1.569,-4.099 0.864,-0.929 1.983,-1.4 3.327,-1.4 1.406,0 2.557,0.463 3.423,1.381 0.858,0.91 1.36,2.299 1.489,4.121 l 0.012,0.14 h -9.832 l 0.012,-0.143 z"
   id="path129"
   inkscape:connector-curvature="0"
   style="fill:#2b3990" />
	<path
   d="m 490.607,312.629 c 0.383,-0.723 0.572,-1.41 0.572,-2.042 0,-0.52 -0.201,-1.017 -0.603,-1.479 -0.399,-0.457 -0.903,-0.688 -1.503,-0.688 -0.504,0 -0.936,0.156 -1.283,0.468 -0.36,0.324 -0.701,0.781 -1.014,1.353 -0.592,1.022 -1.277,1.793 -2.043,2.286 -0.767,0.5 -1.703,0.756 -2.781,0.756 -0.8,0 -1.545,-0.157 -2.213,-0.468 -0.674,-0.311 -1.255,-0.771 -1.727,-1.367 -0.475,-0.597 -0.836,-1.327 -1.086,-2.168 -0.246,-0.834 -0.371,-1.766 -0.371,-2.765 0,-2.132 0.49,-3.835 1.455,-5.07 0.975,-1.243 2.275,-1.87 3.866,-1.87 1.103,0 2.026,0.256 2.745,0.756 0.711,0.497 1.398,1.25 2.052,2.236 0.349,0.486 0.668,0.842 0.946,1.056 0.265,0.208 0.604,0.313 1.01,0.313 0.63,0 1.176,-0.213 1.617,-0.621 0.447,-0.414 0.663,-0.908 0.663,-1.508 0,-0.592 -0.204,-1.241 -0.61,-1.932 -0.406,-0.695 -1.004,-1.361 -1.782,-1.979 -0.773,-0.617 -1.735,-1.131 -2.854,-1.523 -1.119,-0.39 -2.366,-0.589 -3.711,-0.589 -2.166,0 -4.052,0.451 -5.607,1.341 -1.551,0.889 -2.756,2.165 -3.573,3.797 -0.825,1.633 -1.242,3.541 -1.242,5.668 0,3.145 0.911,5.676 2.704,7.543 1.791,1.861 4.322,2.807 7.527,2.807 1.505,0 2.881,-0.207 4.087,-0.613 1.2,-0.402 2.208,-0.944 2.997,-1.605 0.79,-0.663 1.383,-1.37 1.762,-2.093 z"
   id="path131"
   inkscape:connector-curvature="0"
   style="fill:#2b3990" />
	<path
   d="m 513.766,312.93 c -0.33,-1.082 -0.497,-2.134 -0.497,-3.137 0.015,-1.054 0.022,-2.014 0.03,-2.873 0.007,-0.863 0.01,-1.91 0.01,-3.145 0,-1.93 -0.271,-3.491 -0.809,-4.653 -0.53,-1.147 -1.451,-1.997 -2.736,-2.532 -1.305,-0.535 -3.123,-0.806 -5.412,-0.806 -2.047,0 -3.774,0.28 -5.142,0.837 -1.362,0.554 -2.375,1.27 -3.013,2.121 -0.635,0.847 -0.957,1.729 -0.957,2.621 0,0.559 0.195,1 0.602,1.357 0.411,0.361 0.885,0.537 1.448,0.537 0.614,0 1.011,-0.104 1.183,-0.31 0.197,-0.236 0.539,-0.728 1.014,-1.461 0.493,-0.762 1.093,-1.343 1.78,-1.724 0.696,-0.381 1.733,-0.574 3.085,-0.574 1.591,0 2.661,0.346 3.18,1.023 0.51,0.666 0.802,1.719 0.865,3.129 l 0.007,0.104 -0.099,0.029 c -1.086,0.313 -2.121,0.591 -3.085,0.821 -0.934,0.223 -2.081,0.477 -3.408,0.743 -1.397,0.286 -2.166,0.448 -2.487,0.521 -1.561,0.338 -2.804,1.014 -3.693,2.006 -0.888,0.986 -1.336,2.197 -1.336,3.6 0,1.037 0.272,2.013 0.811,2.904 0.536,0.889 1.314,1.6 2.312,2.119 1,0.523 2.178,0.785 3.499,0.785 1.456,0 2.787,-0.244 3.954,-0.73 1.178,-0.492 2.409,-1.232 3.667,-2.209 l 0.112,-0.093 0.075,0.124 c 0.582,0.949 1.141,1.684 1.658,2.182 0.499,0.482 1.009,0.727 1.512,0.727 0.605,0 1.16,-0.211 1.642,-0.634 0.483,-0.419 0.717,-0.871 0.717,-1.376 -0.002,-0.29 -0.165,-0.976 -0.489,-2.033 z m -5.37,-5.662 c 0,1.84 -0.244,3.186 -0.731,4.002 -0.421,0.737 -1.092,1.346 -1.991,1.814 -0.894,0.465 -1.883,0.698 -2.943,0.698 -1.007,0 -1.833,-0.294 -2.463,-0.874 -0.629,-0.582 -0.949,-1.299 -0.949,-2.128 0,-0.81 0.276,-1.451 0.819,-1.907 0.526,-0.439 1.089,-0.74 1.672,-0.89 0.565,-0.151 1.595,-0.382 3.065,-0.698 1.463,-0.313 2.59,-0.613 3.349,-0.895 l 0.173,-0.064 v 0.942 z"
   id="path133"
   inkscape:connector-curvature="0"
   style="fill:#2b3990" />
	<path
   d="m 530.128,296.637 c -1.017,-0.543 -2.081,-0.816 -3.161,-0.816 -1.07,0 -1.934,0.27 -2.569,0.799 -0.648,0.546 -1.292,1.357 -1.909,2.418 l -0.227,0.389 -0.016,-0.449 c -0.037,-1.051 -0.244,-1.852 -0.613,-2.379 -0.357,-0.517 -0.96,-0.777 -1.785,-0.777 -1.638,0 -2.436,1.118 -2.436,3.422 v 14.662 c 0,1.016 0.237,1.794 0.701,2.305 0.466,0.518 1.046,0.766 1.773,0.766 0.731,0 1.342,-0.254 1.816,-0.758 0.475,-0.506 0.717,-1.282 0.717,-2.312 v -4.398 c 0,-1.59 0.053,-2.944 0.154,-4.037 0.103,-1.1 0.294,-2.065 0.566,-2.875 0.277,-0.815 0.674,-1.443 1.178,-1.862 0.877,-0.729 2.178,-0.851 3.971,-0.274 0.905,0.291 1.239,0.354 1.361,0.354 0.476,0 0.932,-0.2 1.35,-0.595 0.418,-0.397 0.622,-0.889 0.622,-1.494 10e-4,-0.875 -0.486,-1.556 -1.493,-2.089 z"
   id="path135"
   inkscape:connector-curvature="0"
   style="fill:#2b3990" />
	<path
   d="m 551.644,314.155 c 0.782,-0.905 1.406,-2.038 1.856,-3.372 0.448,-1.336 0.677,-2.825 0.677,-4.424 0,-2.165 -0.396,-4.068 -1.175,-5.656 -0.776,-1.576 -1.846,-2.79 -3.182,-3.609 -1.338,-0.819 -2.822,-1.235 -4.406,-1.235 -1.324,0 -2.524,0.286 -3.568,0.845 -1.046,0.562 -2.07,1.456 -3.047,2.659 l -0.23,0.284 v -1.004 c 0,-0.914 -0.225,-1.621 -0.669,-2.102 -0.443,-0.477 -1.023,-0.721 -1.728,-0.721 -0.72,0 -1.287,0.235 -1.699,0.699 -0.412,0.468 -0.621,1.196 -0.621,2.163 v 22.725 c 0,1.121 0.156,1.982 0.467,2.553 0.297,0.559 0.904,0.83 1.854,0.83 1.613,0 2.396,-1.094 2.396,-3.343 v -8.282 l 0.23,0.294 c 0.914,1.154 1.887,2.038 2.891,2.631 0.994,0.587 2.25,0.886 3.725,0.886 1.222,0 2.38,-0.244 3.445,-0.73 1.066,-0.484 2.001,-1.191 2.784,-2.091 z m -3.18,-4.116 c -0.459,1.033 -1.076,1.821 -1.841,2.342 -0.765,0.52 -1.606,0.787 -2.503,0.787 -1.501,0 -2.775,-0.606 -3.784,-1.795 -1.006,-1.182 -1.518,-2.855 -1.518,-4.975 0,-2.247 0.514,-3.978 1.525,-5.14 1.021,-1.17 2.289,-1.759 3.776,-1.759 0.937,0 1.804,0.273 2.571,0.822 0.771,0.545 1.379,1.336 1.811,2.353 0.432,1.007 0.647,2.226 0.647,3.629 10e-4,1.45 -0.229,2.709 -0.684,3.736 z"
   id="path137"
   inkscape:connector-curvature="0"
   style="fill:#2b3990" />
	<path
   d="m 575.488,313.172 c 0.358,-0.613 0.541,-1.156 0.541,-1.604 0,-0.505 -0.15,-0.882 -0.459,-1.151 -0.311,-0.278 -0.713,-0.416 -1.225,-0.416 -0.468,0 -0.828,0.107 -1.074,0.318 -0.662,0.623 -1.188,1.104 -1.6,1.465 -0.413,0.363 -0.873,0.708 -1.365,1.026 -0.498,0.317 -1.018,0.558 -1.549,0.708 -0.527,0.15 -1.121,0.225 -1.764,0.225 -0.957,0 -1.848,-0.237 -2.642,-0.712 -0.798,-0.472 -1.443,-1.187 -1.919,-2.114 -0.477,-0.93 -0.727,-2.012 -0.738,-3.224 l -0.002,-0.132 h 10.432 c 1.351,0 2.405,-0.189 3.146,-0.574 0.708,-0.365 1.068,-1.192 1.068,-2.459 0,-1.396 -0.365,-2.795 -1.085,-4.145 -0.719,-1.354 -1.815,-2.465 -3.262,-3.318 -1.441,-0.851 -3.201,-1.28 -5.229,-1.28 -1.559,0 -2.998,0.252 -4.274,0.75 -1.272,0.499 -2.358,1.223 -3.232,2.157 -0.87,0.936 -1.542,2.072 -1.999,3.381 -0.455,1.312 -0.688,2.755 -0.688,4.287 0,3.254 0.936,5.868 2.781,7.764 1.842,1.895 4.467,2.852 7.796,2.852 1.459,0 2.767,-0.188 3.888,-0.57 1.122,-0.379 2.062,-0.861 2.797,-1.438 0.734,-0.569 1.292,-1.175 1.657,-1.796 z m -13.793,-8.484 c 0.181,-1.795 0.709,-3.173 1.569,-4.098 0.862,-0.93 1.981,-1.4 3.325,-1.4 1.406,0 2.56,0.463 3.423,1.381 0.858,0.909 1.36,2.299 1.492,4.121 l 0.009,0.139 h -9.833 l 0.015,-0.143 z"
   id="path139"
   inkscape:connector-curvature="0"
   style="fill:#2b3990" />
	<path
   d="m 598.09,304.104 c 0,-1.146 -0.053,-2.099 -0.152,-2.84 -0.101,-0.726 -0.325,-1.412 -0.661,-2.037 -0.529,-1.082 -1.333,-1.926 -2.401,-2.515 -1.068,-0.589 -2.299,-0.891 -3.658,-0.891 -1.4,0 -2.656,0.285 -3.729,0.845 -1.079,0.561 -2.087,1.454 -2.997,2.654 l -0.234,0.312 v -1.026 c 0,-0.606 -0.107,-1.123 -0.323,-1.54 -0.212,-0.414 -0.497,-0.729 -0.845,-0.933 -0.355,-0.206 -0.755,-0.311 -1.19,-0.311 -0.716,0 -1.288,0.235 -1.696,0.699 -0.413,0.468 -0.624,1.196 -0.624,2.163 v 15.223 c 0,0.99 0.235,1.763 0.701,2.286 0.46,0.522 1.058,0.784 1.772,0.784 0.744,0 1.358,-0.254 1.826,-0.758 0.469,-0.504 0.708,-1.282 0.708,-2.312 v -6.6 c 0,-2.184 0.128,-3.636 0.392,-4.438 0.369,-1.004 0.955,-1.799 1.746,-2.373 0.791,-0.572 1.68,-0.862 2.641,-0.862 1.486,0 2.494,0.487 3.002,1.446 0.49,0.938 0.738,2.297 0.738,4.048 v 8.778 c 0,0.99 0.235,1.763 0.699,2.286 0.463,0.522 1.07,0.784 1.812,0.784 0.74,0 1.324,-0.248 1.784,-0.766 0.459,-0.514 0.69,-1.289 0.69,-2.305 v -9.801 z"
   id="path141"
   inkscape:connector-curvature="0"
   style="fill:#2b3990" />
	<path
   d="m 614.598,314.484 c 0,-0.472 -0.156,-0.855 -0.475,-1.174 -0.316,-0.317 -0.662,-0.473 -1.055,-0.473 -0.283,0 -0.689,0.053 -1.209,0.158 -0.541,0.115 -0.962,0.172 -1.279,0.172 -0.602,0 -1.047,-0.159 -1.322,-0.457 -0.268,-0.299 -0.435,-0.685 -0.498,-1.156 -0.056,-0.45 -0.086,-1.098 -0.086,-1.914 v -9.815 h 1.115 c 1.02,0 1.807,-0.138 2.344,-0.411 0.516,-0.26 0.768,-0.707 0.768,-1.369 0,-0.512 -0.184,-0.936 -0.545,-1.262 -0.366,-0.331 -0.913,-0.497 -1.623,-0.497 h -2.059 v -3.72 c 0,-0.88 -0.047,-1.562 -0.143,-2.028 -0.09,-0.451 -0.306,-0.838 -0.646,-1.158 -0.51,-0.476 -1.09,-0.718 -1.723,-0.718 -0.45,0 -0.863,0.107 -1.227,0.32 -0.364,0.213 -0.647,0.491 -0.841,0.832 -0.196,0.33 -0.316,0.73 -0.362,1.19 -0.042,0.476 -0.064,1.147 -0.064,1.984 v 3.298 h -0.709 c -0.763,0 -1.348,0.166 -1.742,0.497 -0.39,0.33 -0.578,0.747 -0.578,1.262 0,0.519 0.182,0.936 0.555,1.274 0.37,0.333 0.926,0.506 1.65,0.506 h 0.824 v 10.241 c 0,1.613 0.13,2.92 0.392,3.883 0.253,0.939 0.796,1.686 1.614,2.218 0.824,0.54 2.062,0.808 3.672,0.808 1.709,0 3.033,-0.223 3.938,-0.66 0.883,-0.429 1.314,-1.03 1.314,-1.831 z"
   id="path143"
   inkscape:connector-curvature="0"
   style="fill:#2b3990" />
	<path
   d="m 629.715,296.637 c -1.02,-0.543 -2.083,-0.816 -3.162,-0.816 -1.068,0 -1.934,0.27 -2.57,0.799 -0.65,0.546 -1.293,1.357 -1.908,2.418 l -0.229,0.389 -0.016,-0.449 c -0.037,-1.051 -0.241,-1.852 -0.614,-2.379 -0.356,-0.517 -0.956,-0.777 -1.782,-0.777 -1.641,0 -2.437,1.118 -2.437,3.422 v 14.662 c 0,1.016 0.235,1.794 0.7,2.305 0.465,0.518 1.045,0.766 1.775,0.766 0.729,0 1.341,-0.254 1.815,-0.758 0.475,-0.506 0.718,-1.282 0.718,-2.312 v -4.398 c 0,-1.59 0.051,-2.944 0.154,-4.037 0.102,-1.1 0.293,-2.065 0.564,-2.875 0.277,-0.815 0.675,-1.443 1.178,-1.862 0.881,-0.729 2.18,-0.851 3.973,-0.274 0.903,0.291 1.238,0.354 1.36,0.354 0.475,0 0.93,-0.2 1.349,-0.595 0.418,-0.397 0.623,-0.889 0.623,-1.494 10e-4,-0.875 -0.487,-1.556 -1.491,-2.089 z"
   id="path145"
   inkscape:connector-curvature="0"
   style="fill:#2b3990" />
	<path
   d="m 641.982,322.054 c 0.56,-0.889 1.141,-2.137 1.725,-3.701 l 6.868,-17.982 c 0.171,-0.47 0.31,-0.915 0.422,-1.353 0.112,-0.441 0.194,-0.791 0.249,-1.039 -0.005,-0.349 -0.098,-0.707 -0.288,-1.046 -0.185,-0.34 -0.453,-0.614 -0.798,-0.81 -0.345,-0.2 -0.71,-0.302 -1.083,-0.302 -0.527,0 -0.935,0.089 -1.213,0.27 -0.281,0.179 -0.554,0.539 -0.812,1.064 -0.266,0.549 -0.572,1.317 -0.902,2.283 l -4.347,12.41 -4.579,-13.316 c -0.292,-0.887 -0.631,-1.571 -1,-2.034 -0.364,-0.457 -0.892,-0.677 -1.615,-0.677 -0.414,0 -0.82,0.113 -1.201,0.331 -0.383,0.219 -0.689,0.514 -0.908,0.879 -0.219,0.364 -0.328,0.763 -0.328,1.187 0,0.407 0.199,1.076 0.586,1.996 l 6.504,16.374 -0.501,1.226 c -0.364,0.867 -0.688,1.531 -0.965,1.979 -0.288,0.46 -0.622,0.789 -0.988,0.982 -0.367,0.188 -0.866,0.281 -1.485,0.281 -0.255,0 -0.557,-0.037 -0.9,-0.116 -0.262,-0.078 -0.53,-0.113 -0.799,-0.113 -0.686,0 -1.205,0.156 -1.544,0.46 -0.339,0.302 -0.506,0.729 -0.506,1.301 0,0.836 0.353,1.396 1.079,1.713 0.749,0.326 1.9,0.49 3.422,0.49 1.553,0 2.801,-0.236 3.713,-0.706 0.904,-0.474 1.643,-1.155 2.194,-2.031 z"
   id="path147"
   inkscape:connector-curvature="0"
   style="fill:#2b3990" />
	<g
   id="g149">
		<path
   d="m 433.483,263.627 c 0,0 -0.241,0.784 0,1.045 0.239,0.26 1.446,0.343 1.446,0.343 v 15.129 l 2.412,1.738 2.051,-1.914 v -14.821 l 0.604,-0.133 c 0.967,0.26 1.206,-0.604 1.206,-0.604 v -0.784 h -7.719 z m 5.065,16.169 -0.681,0.262 v -14.823 l 0.681,-0.221 v 14.782 z m 1.81,-15.427 c -0.723,0.042 -5.309,-0.48 -5.309,-0.48 h 5.309 c 0,0 0.724,0.433 0,0.48 z"
   id="path151"
   inkscape:connector-curvature="0"
   style="fill:#2b3990" />
		<path
   clip-rule="evenodd"
   d="m 444.807,270.206 -0.001,0.002 -0.057,-0.038 c -0.411,-0.402 -0.949,-0.623 -1.521,-0.623 -1.204,0 -2.187,0.984 -2.187,2.188 0,0.57 0.221,1.109 0.62,1.521 l 0.039,0.042 c 0.072,0.067 0.147,0.136 0.234,0.193 1.505,1.338 2.365,3.249 2.365,5.245 0,3.864 -3.146,7.012 -7.012,7.012 -3.867,0 -7.01,-3.148 -7.01,-7.012 0,-1.961 0.834,-3.848 2.291,-5.175 0.617,-0.415 0.983,-1.095 0.983,-1.826 0,-1.203 -0.981,-2.188 -2.185,-2.188 -0.575,0 -1.12,0.225 -1.529,0.628 l -0.05,0.049 -0.021,-0.02 c -2.448,2.162 -3.852,5.27 -3.852,8.53 0,6.271 5.102,11.376 11.371,11.376 6.269,0 11.373,-5.105 11.373,-11.376 0.004,-3.26 -1.4,-6.366 -3.851,-8.528 z"
   id="path153"
   inkscape:connector-curvature="0"
   style="fill:#2b3990;fill-rule:evenodd" />
	</g>
</g>
<g
   id="g155"
   transform="translate(-350.692,-117.08488)">
	<path
   clip-rule="evenodd"
   d="m 452.725,132.832 c -1.129,-1.229 -6.771,-1.1 -8.352,-1.115 -8.545,-0.075 -24.551,0.433 -32.525,0.419 -0.321,0 -1.429,0.542 -1.248,0.991 -5.668,10e-4 -8.691,0.019 -15.544,-0.042 -3.702,-0.038 -12.561,0.405 -12.774,-6.146 -0.11,-3.271 2.878,-6.179 6.424,-9.679 -2.26,-0.697 -4.542,0.827 -6.821,2.101 -1.118,1.097 -1.873,1.838 -2.808,2.757 -3.465,5.07 -4.816,10.157 -4.001,15.266 3.125,-0.6 5.449,3.678 3.251,5.694 l -1.955,0.027 c -0.921,0.012 -1.656,0.958 -1.637,2.109 l 0.06,4.541 c 0.02,1.15 0.779,1.922 1.702,1.908 h 9.851 c 0.924,-0.01 1.656,-0.959 1.637,-2.107 l -0.062,-4.542 c -0.016,-1.152 -0.781,-2.074 -1.698,-2.058 l -1.234,0.019 c -2.169,-6.113 4.825,-5.302 8.785,-5.263 7.448,0.065 9.92,0.043 16.473,0.049 0.377,0.451 0.193,1.286 1.226,1.711 0.636,0.268 40.016,0.175 40.726,0 0.709,-0.166 0.52,-0.504 0.779,-0.762 0.332,-1.367 1.098,-4.401 -0.255,-5.878 z m -66.423,10.998 v 4.796 c 0,0 -0.134,-3.128 -1.422,-3.335 -1.289,-0.21 -0.56,-1.461 -0.56,-1.461 h 1.982 z m 65.979,-8.858 c 0,0 -1.146,-0.39 -2.086,-0.994 -2.019,-1.292 -37.732,-0.134 -37.732,-0.134 l 1.017,-0.853 c 0,0 36.401,-0.626 37.655,0 1.25,0.626 1.146,1.981 1.146,1.981 z"
   id="path157"
   inkscape:connector-curvature="0"
   style="fill:#2b3990;fill-rule:evenodd" />
	<g
   id="g159">
		<path
   d="m 367.453,178.126 c 0.691,-1.008 1.041,-2.24 1.041,-3.659 0,-0.933 -0.261,-1.773 -0.778,-2.5 -0.519,-0.732 -1.296,-1.378 -2.307,-1.919 -1.026,-0.547 -2.365,-1.022 -3.976,-1.416 -1.402,-0.341 -2.464,-0.619 -3.248,-0.851 -0.795,-0.232 -1.439,-0.536 -1.913,-0.902 -0.493,-0.375 -0.745,-0.87 -0.745,-1.46 0,-0.653 0.336,-1.197 1.006,-1.624 0.645,-0.419 1.467,-0.626 2.443,-0.626 0.945,0 1.706,0.158 2.265,0.477 0.552,0.316 1.037,0.745 1.444,1.268 0.481,0.61 0.911,1.067 1.282,1.369 0.353,0.289 0.792,0.432 1.297,0.432 0.71,0 1.259,-0.178 1.637,-0.54 0.382,-0.365 0.567,-0.822 0.567,-1.394 0,-0.524 -0.184,-1.071 -0.547,-1.625 -0.367,-0.559 -0.912,-1.078 -1.623,-1.546 -0.713,-0.465 -1.615,-0.841 -2.68,-1.118 -1.073,-0.28 -2.301,-0.422 -3.643,-0.422 -1.713,0 -3.189,0.279 -4.394,0.829 -1.198,0.544 -2.12,1.286 -2.735,2.2 -0.61,0.913 -0.922,1.896 -0.922,2.918 0,1.148 0.334,2.125 0.993,2.909 0.664,0.787 1.565,1.437 2.681,1.919 1.129,0.492 2.614,0.968 4.408,1.41 1.611,0.389 2.787,0.805 3.499,1.235 0.739,0.449 1.114,1.164 1.114,2.133 0,0.651 -0.36,1.226 -1.067,1.718 -0.694,0.484 -1.591,0.729 -2.671,0.729 -1.318,0 -2.376,-0.242 -3.145,-0.713 -0.768,-0.474 -1.433,-1.195 -1.983,-2.15 -0.263,-0.476 -0.542,-0.849 -0.823,-1.108 -0.271,-0.244 -0.668,-0.369 -1.189,-0.369 -0.6,0 -1.081,0.192 -1.468,0.58 -0.392,0.394 -0.581,0.844 -0.581,1.39 0,0.845 0.317,1.697 0.94,2.537 0.625,0.848 1.613,1.562 2.936,2.13 1.331,0.571 2.949,0.86 4.811,0.86 1.955,0 3.636,-0.266 5,-0.793 1.35,-0.522 2.383,-1.297 3.074,-2.308 z"
   id="path161"
   inkscape:connector-curvature="0"
   style="fill:#2b3990" />
		<path
   d="m 404.852,152.236 c -1.711,0 -3.07,0.222 -4.048,0.653 -0.962,0.43 -1.653,1.122 -2.055,2.056 -0.407,0.949 -0.618,2.257 -0.618,3.876 v 1.711 h -1.383 c -1.692,0 -2.512,0.579 -2.512,1.761 0,0.532 0.191,0.948 0.59,1.281 0.397,0.331 0.978,0.499 1.729,0.499 h 1.576 v 14.08 c 0,1.003 0.24,1.776 0.711,2.295 0.477,0.521 1.052,0.778 1.766,0.778 0.74,0 1.354,-0.264 1.823,-0.778 0.469,-0.519 0.71,-1.292 0.71,-2.295 v -14.08 h 1.422 c 0.916,0 1.641,-0.114 2.156,-0.335 0.486,-0.213 0.723,-0.713 0.723,-1.522 0,-1.132 -0.942,-1.683 -2.879,-1.683 h -1.422 v -1.384 c 0,-1.056 0.141,-1.882 0.418,-2.457 0.29,-0.606 0.949,-0.913 1.948,-0.913 0.353,0 0.788,0.037 1.294,0.116 0.493,0.076 0.843,0.114 1.041,0.114 0.402,0 0.744,-0.156 1.045,-0.48 0.301,-0.327 0.446,-0.708 0.446,-1.164 0,-1.41 -1.509,-2.129 -4.481,-2.129 z"
   id="path163"
   inkscape:connector-curvature="0"
   style="fill:#2b3990" />
		<path
   d="m 423.168,178.733 c 0,-0.466 -0.162,-0.862 -0.475,-1.175 -0.317,-0.315 -0.663,-0.471 -1.056,-0.471 -0.283,0 -0.688,0.054 -1.208,0.158 -0.535,0.112 -0.967,0.169 -1.283,0.169 -0.6,0 -1.043,-0.155 -1.318,-0.457 -0.268,-0.295 -0.436,-0.683 -0.496,-1.151 -0.059,-0.447 -0.088,-1.092 -0.088,-1.919 v -9.813 h 1.114 c 1.019,0 1.808,-0.136 2.343,-0.41 0.516,-0.262 0.769,-0.709 0.769,-1.37 0,-0.511 -0.183,-0.938 -0.546,-1.263 -0.365,-0.329 -0.908,-0.498 -1.619,-0.498 h -2.061 v -3.718 c 0,-0.876 -0.047,-1.558 -0.144,-2.03 -0.089,-0.457 -0.3,-0.835 -0.644,-1.156 -0.515,-0.475 -1.095,-0.721 -1.727,-0.721 -0.449,0 -0.861,0.11 -1.227,0.323 -0.363,0.213 -0.646,0.492 -0.838,0.833 -0.198,0.329 -0.32,0.729 -0.361,1.189 -0.045,0.476 -0.066,1.144 -0.066,1.984 v 3.295 h -0.71 c -0.761,0 -1.349,0.169 -1.738,0.502 -0.392,0.329 -0.581,0.74 -0.581,1.259 0,0.52 0.182,0.937 0.555,1.273 0.371,0.335 0.924,0.506 1.648,0.506 h 0.826 v 10.239 c 0,1.617 0.131,2.927 0.389,3.886 0.255,0.939 0.798,1.686 1.617,2.217 0.824,0.538 2.059,0.811 3.672,0.811 1.707,0 3.034,-0.222 3.934,-0.664 0.889,-0.43 1.319,-1.024 1.319,-1.828 z"
   id="path165"
   inkscape:connector-curvature="0"
   style="fill:#2b3990" />
		<path
   d="m 448.99,177.164 4.306,-12.617 c 0.39,-1.077 0.589,-1.886 0.589,-2.408 0,-0.552 -0.219,-1.042 -0.654,-1.449 -0.434,-0.413 -0.956,-0.621 -1.549,-0.621 -0.594,0 -1.055,0.134 -1.363,0.403 -0.316,0.272 -0.543,0.593 -0.676,0.949 -0.141,0.371 -0.326,0.987 -0.557,1.833 l -3.6,12.199 -3.249,-11.37 c -0.319,-1.089 -0.571,-1.859 -0.747,-2.292 -0.172,-0.422 -0.473,-0.822 -0.9,-1.188 -0.416,-0.355 -1.009,-0.536 -1.758,-0.536 -0.735,0 -1.323,0.181 -1.74,0.536 -0.426,0.366 -0.717,0.75 -0.867,1.146 -0.162,0.413 -0.408,1.197 -0.74,2.333 l -3.249,11.37 -3.562,-12.199 c -0.341,-1.18 -0.668,-2.026 -0.971,-2.505 -0.281,-0.451 -0.842,-0.681 -1.662,-0.681 -0.619,0 -1.145,0.216 -1.568,0.638 -0.428,0.429 -0.637,0.896 -0.637,1.432 0,0.435 0.211,1.242 0.63,2.406 l 4.265,12.619 c 0.115,0.336 0.273,0.788 0.479,1.359 0.2,0.561 0.438,1.055 0.7,1.459 0.26,0.4 0.585,0.709 0.97,0.922 0.386,0.212 0.858,0.322 1.411,0.322 1.078,0 1.84,-0.348 2.262,-1.028 0.442,-0.716 0.859,-1.791 1.24,-3.197 l 3.037,-10.703 3.137,10.696 c 0.253,0.92 0.494,1.674 0.71,2.251 0.21,0.556 0.537,1.032 0.978,1.413 0.431,0.378 1.034,0.568 1.795,0.568 0.736,0 1.321,-0.181 1.74,-0.53 0.424,-0.356 0.74,-0.768 0.938,-1.226 0.202,-0.469 0.493,-1.243 0.862,-2.304 z"
   id="path167"
   inkscape:connector-curvature="0"
   style="fill:#2b3990" />
		<path
   d="m 475.305,177.175 c -0.33,-1.079 -0.495,-2.137 -0.495,-3.133 0.01,-1.051 0.021,-2.014 0.024,-2.874 0.009,-0.859 0.012,-1.911 0.012,-3.145 0,-1.925 -0.271,-3.492 -0.807,-4.652 -0.532,-1.146 -1.453,-2 -2.74,-2.532 -1.301,-0.536 -3.121,-0.807 -5.409,-0.807 -2.047,0 -3.778,0.281 -5.142,0.838 -1.361,0.558 -2.375,1.269 -3.012,2.119 -0.637,0.847 -0.959,1.73 -0.959,2.623 0,0.556 0.197,1 0.602,1.359 0.404,0.356 0.892,0.535 1.449,0.535 0.613,0 1.012,-0.104 1.183,-0.31 0.196,-0.235 0.536,-0.723 1.013,-1.463 0.492,-0.757 1.095,-1.337 1.783,-1.722 0.692,-0.383 1.73,-0.575 3.083,-0.575 1.59,0 2.659,0.344 3.181,1.022 0.511,0.67 0.8,1.724 0.865,3.131 l 0.004,0.104 -0.098,0.028 c -1.078,0.313 -2.116,0.593 -3.081,0.825 -0.942,0.223 -2.091,0.473 -3.411,0.743 -1.402,0.286 -2.165,0.447 -2.486,0.52 -1.561,0.337 -2.804,1.012 -3.695,2.004 -0.885,0.991 -1.335,2.2 -1.335,3.6 0,1.038 0.271,2.015 0.811,2.905 0.538,0.891 1.313,1.601 2.312,2.121 0.999,0.521 2.178,0.787 3.499,0.787 1.457,0 2.785,-0.248 3.953,-0.733 1.178,-0.492 2.41,-1.238 3.665,-2.211 l 0.115,-0.088 0.076,0.122 c 0.582,0.951 1.139,1.684 1.658,2.184 0.499,0.482 1.007,0.727 1.512,0.727 0.605,0 1.157,-0.212 1.64,-0.634 0.483,-0.425 0.719,-0.874 0.719,-1.378 -0.002,-0.297 -0.165,-0.982 -0.489,-2.04 z m -5.369,-5.659 c 0,1.841 -0.246,3.188 -0.731,4.001 -0.422,0.738 -1.092,1.347 -1.991,1.813 -0.896,0.463 -1.887,0.7 -2.945,0.7 -1.005,0 -1.831,-0.294 -2.459,-0.875 -0.631,-0.584 -0.949,-1.298 -0.949,-2.131 0,-0.805 0.273,-1.447 0.817,-1.902 0.524,-0.44 1.09,-0.742 1.671,-0.894 0.566,-0.149 1.596,-0.382 3.064,-0.695 1.465,-0.314 2.594,-0.614 3.348,-0.894 l 0.176,-0.065 v 0.942 z"
   id="path169"
   inkscape:connector-curvature="0"
   style="fill:#2b3990" />
		<path
   d="m 491.664,160.882 c -1.016,-0.54 -2.081,-0.813 -3.16,-0.813 -1.07,0 -1.934,0.27 -2.567,0.8 -0.651,0.542 -1.292,1.356 -1.911,2.416 l -0.227,0.388 -0.018,-0.448 c -0.037,-1.049 -0.242,-1.854 -0.613,-2.382 -0.357,-0.515 -0.958,-0.773 -1.784,-0.773 -1.638,0 -2.435,1.117 -2.435,3.419 v 14.665 c 0,1.016 0.238,1.791 0.701,2.304 0.459,0.511 1.055,0.77 1.771,0.77 0.733,0 1.344,-0.257 1.817,-0.765 0.476,-0.501 0.718,-1.279 0.718,-2.309 v -4.397 c 0,-1.583 0.051,-2.94 0.151,-4.035 0.104,-1.105 0.297,-2.07 0.569,-2.878 0.274,-0.817 0.672,-1.441 1.178,-1.862 0.879,-0.729 2.176,-0.854 3.973,-0.274 0.902,0.29 1.238,0.353 1.359,0.353 0.477,0 0.93,-0.199 1.346,-0.593 0.422,-0.397 0.626,-0.886 0.626,-1.499 10e-4,-0.871 -0.486,-1.551 -1.494,-2.087 z"
   id="path171"
   inkscape:connector-curvature="0"
   style="fill:#2b3990" />
		<path
   d="m 512.329,177.42 c 0.36,-0.613 0.542,-1.156 0.542,-1.604 0,-0.501 -0.148,-0.882 -0.455,-1.152 -0.311,-0.273 -0.723,-0.417 -1.229,-0.417 -0.468,0 -0.828,0.11 -1.072,0.318 -0.664,0.622 -1.191,1.105 -1.602,1.466 -0.409,0.36 -0.87,0.705 -1.363,1.026 -0.5,0.317 -1.02,0.556 -1.551,0.709 -0.529,0.149 -1.121,0.224 -1.761,0.224 -0.959,0 -1.851,-0.238 -2.646,-0.711 -0.797,-0.473 -1.44,-1.187 -1.918,-2.116 -0.479,-0.926 -0.725,-2.009 -0.74,-3.224 v -0.13 h 10.434 c 1.348,0 2.406,-0.191 3.145,-0.571 0.707,-0.368 1.068,-1.195 1.068,-2.462 0,-1.399 -0.366,-2.795 -1.086,-4.145 -0.719,-1.351 -1.815,-2.465 -3.26,-3.318 -1.443,-0.851 -3.204,-1.282 -5.23,-1.282 -1.558,0 -2.996,0.253 -4.274,0.752 -1.274,0.498 -2.36,1.224 -3.232,2.154 -0.87,0.937 -1.542,2.073 -1.997,3.381 -0.457,1.312 -0.688,2.753 -0.688,4.287 0,3.257 0.936,5.869 2.779,7.766 1.844,1.893 4.469,2.854 7.799,2.854 1.459,0 2.764,-0.19 3.884,-0.573 1.121,-0.378 2.06,-0.867 2.798,-1.438 0.734,-0.569 1.293,-1.172 1.655,-1.794 z m -13.791,-8.485 c 0.181,-1.793 0.71,-3.172 1.569,-4.096 0.861,-0.931 1.98,-1.402 3.324,-1.402 1.408,0 2.561,0.465 3.424,1.382 0.855,0.912 1.361,2.298 1.49,4.118 l 0.01,0.144 h -9.833 l 0.016,-0.146 z"
   id="path173"
   inkscape:connector-curvature="0"
   style="fill:#2b3990" />
		<path
   d="m 545.81,176.876 c 0.382,-0.723 0.576,-1.41 0.576,-2.041 0,-0.518 -0.206,-1.018 -0.608,-1.48 -0.396,-0.457 -0.899,-0.689 -1.501,-0.689 -0.505,0 -0.935,0.159 -1.283,0.467 -0.36,0.327 -0.703,0.785 -1.015,1.356 -0.592,1.022 -1.276,1.791 -2.04,2.285 -0.769,0.501 -1.704,0.756 -2.782,0.756 -0.801,0 -1.546,-0.158 -2.214,-0.466 -0.674,-0.308 -1.256,-0.771 -1.726,-1.371 -0.475,-0.594 -0.837,-1.324 -1.087,-2.166 -0.246,-0.833 -0.369,-1.763 -0.369,-2.765 0,-2.129 0.489,-3.836 1.454,-5.069 0.973,-1.24 2.274,-1.87 3.865,-1.87 1.104,0 2.025,0.253 2.746,0.757 0.71,0.495 1.4,1.247 2.051,2.231 0.348,0.488 0.668,0.845 0.945,1.058 0.266,0.21 0.605,0.311 1.01,0.311 0.631,0 1.177,-0.207 1.617,-0.619 0.448,-0.413 0.664,-0.905 0.664,-1.506 0,-0.593 -0.205,-1.24 -0.609,-1.932 -0.404,-0.692 -1.004,-1.362 -1.781,-1.981 -0.775,-0.616 -1.736,-1.127 -2.856,-1.521 -1.12,-0.39 -2.366,-0.589 -3.71,-0.589 -2.164,0 -4.053,0.45 -5.607,1.339 -1.551,0.892 -2.755,2.168 -3.574,3.797 -0.824,1.635 -1.242,3.54 -1.242,5.67 0,3.143 0.912,5.676 2.705,7.54 1.791,1.863 4.321,2.807 7.526,2.807 1.505,0 2.88,-0.203 4.087,-0.608 1.199,-0.406 2.207,-0.946 2.997,-1.607 0.787,-0.664 1.381,-1.369 1.761,-2.094 z"
   id="path175"
   inkscape:connector-curvature="0"
   style="fill:#2b3990" />
		<path
   d="m 568.969,177.175 c -0.33,-1.077 -0.496,-2.134 -0.496,-3.133 0.012,-1.051 0.021,-2.014 0.028,-2.874 0.007,-0.859 0.01,-1.911 0.01,-3.145 0,-1.927 -0.271,-3.494 -0.806,-4.652 -0.535,-1.146 -1.455,-2 -2.74,-2.532 -1.303,-0.536 -3.123,-0.807 -5.412,-0.807 -2.045,0 -3.773,0.281 -5.141,0.838 -1.362,0.558 -2.375,1.269 -3.013,2.119 -0.635,0.847 -0.956,1.73 -0.956,2.623 0,0.556 0.195,1 0.601,1.359 0.411,0.362 0.884,0.535 1.448,0.535 0.613,0 1.012,-0.104 1.184,-0.31 0.197,-0.237 0.537,-0.729 1.012,-1.461 0.494,-0.759 1.094,-1.339 1.783,-1.724 0.693,-0.383 1.732,-0.575 3.082,-0.575 1.592,0 2.662,0.344 3.181,1.022 0.51,0.67 0.801,1.724 0.866,3.131 l 0.005,0.104 -0.099,0.028 c -1.086,0.319 -2.121,0.596 -3.084,0.825 -0.934,0.222 -2.082,0.473 -3.409,0.743 -1.397,0.286 -2.165,0.447 -2.484,0.52 -1.563,0.337 -2.804,1.012 -3.695,2.004 -0.888,0.991 -1.337,2.2 -1.337,3.6 0,1.038 0.273,2.015 0.812,2.905 0.535,0.886 1.314,1.601 2.31,2.121 1.001,0.521 2.179,0.787 3.501,0.787 1.455,0 2.785,-0.248 3.953,-0.733 1.178,-0.492 2.41,-1.236 3.667,-2.211 l 0.111,-0.088 0.077,0.122 c 0.58,0.951 1.141,1.684 1.658,2.184 0.498,0.482 1.008,0.727 1.511,0.727 0.605,0 1.159,-0.212 1.642,-0.634 0.482,-0.425 0.717,-0.874 0.717,-1.378 -10e-4,-0.293 -0.164,-0.98 -0.487,-2.04 z m -5.369,-5.659 c 0,1.839 -0.246,3.186 -0.732,4.001 -0.42,0.738 -1.092,1.347 -1.992,1.813 -0.893,0.463 -1.882,0.7 -2.94,0.7 -1.007,0 -1.835,-0.294 -2.464,-0.875 -0.63,-0.581 -0.949,-1.298 -0.949,-2.131 0,-0.805 0.275,-1.447 0.818,-1.902 0.525,-0.44 1.088,-0.742 1.672,-0.894 0.566,-0.149 1.595,-0.382 3.066,-0.695 1.462,-0.313 2.59,-0.614 3.348,-0.894 l 0.174,-0.065 v 0.942 z"
   id="path177"
   inkscape:connector-curvature="0"
   style="fill:#2b3990" />
		<path
   d="m 585.33,160.882 c -1.017,-0.54 -2.079,-0.813 -3.16,-0.813 -1.07,0 -1.935,0.27 -2.57,0.8 -0.649,0.543 -1.292,1.357 -1.908,2.416 l -0.226,0.388 -0.018,-0.448 c -0.038,-1.049 -0.244,-1.854 -0.613,-2.382 -0.358,-0.515 -0.96,-0.773 -1.784,-0.773 -1.639,0 -2.437,1.117 -2.437,3.419 v 14.665 c 0,1.016 0.237,1.791 0.7,2.304 0.468,0.516 1.047,0.77 1.775,0.77 0.728,0 1.341,-0.257 1.814,-0.765 0.477,-0.501 0.717,-1.279 0.717,-2.309 v -4.397 c 0,-1.587 0.056,-2.946 0.156,-4.035 0.101,-1.105 0.293,-2.07 0.565,-2.878 0.278,-0.817 0.673,-1.445 1.178,-1.862 0.879,-0.729 2.179,-0.854 3.972,-0.274 0.904,0.29 1.238,0.353 1.358,0.353 0.478,0 0.933,-0.199 1.352,-0.593 0.419,-0.397 0.62,-0.889 0.62,-1.499 10e-4,-0.871 -0.483,-1.551 -1.491,-2.087 z"
   id="path179"
   inkscape:connector-curvature="0"
   style="fill:#2b3990" />
		<path
   d="m 606.846,178.406 c 0.782,-0.905 1.406,-2.04 1.856,-3.374 0.447,-1.336 0.679,-2.825 0.679,-4.425 0,-2.164 -0.397,-4.067 -1.176,-5.654 -0.778,-1.577 -1.849,-2.792 -3.184,-3.607 -1.336,-0.822 -2.82,-1.238 -4.406,-1.238 -1.322,0 -2.521,0.283 -3.567,0.845 -1.046,0.561 -2.071,1.456 -3.046,2.661 l -0.231,0.281 v -1.004 c 0,-0.912 -0.224,-1.619 -0.669,-2.1 -0.443,-0.48 -1.023,-0.721 -1.729,-0.721 -0.719,0 -1.287,0.236 -1.699,0.699 -0.411,0.467 -0.619,1.196 -0.619,2.162 v 22.725 c 0,1.12 0.155,1.978 0.465,2.553 0.302,0.559 0.904,0.83 1.854,0.83 1.613,0 2.397,-1.093 2.397,-3.343 v -8.285 l 0.231,0.295 c 0.912,1.156 1.886,2.038 2.889,2.628 0.996,0.593 2.249,0.892 3.725,0.892 1.222,0 2.381,-0.244 3.445,-0.733 1.066,-0.482 2.001,-1.187 2.785,-2.087 z m -3.18,-4.117 c -0.459,1.032 -1.078,1.821 -1.84,2.34 -0.766,0.521 -1.607,0.784 -2.504,0.784 -1.501,0 -2.775,-0.604 -3.785,-1.794 -1.008,-1.181 -1.516,-2.854 -1.516,-4.976 0,-2.245 0.513,-3.972 1.525,-5.136 1.021,-1.169 2.289,-1.762 3.775,-1.762 0.938,0 1.803,0.276 2.572,0.822 0.769,0.547 1.378,1.339 1.809,2.353 0.434,1.01 0.648,2.229 0.648,3.631 0.002,1.452 -0.229,2.71 -0.684,3.738 z"
   id="path181"
   inkscape:connector-curvature="0"
   style="fill:#2b3990" />
		<path
   d="m 630.689,177.42 c 0.359,-0.613 0.543,-1.156 0.543,-1.604 0,-0.501 -0.151,-0.882 -0.457,-1.152 -0.314,-0.28 -0.716,-0.417 -1.228,-0.417 -0.468,0 -0.829,0.11 -1.072,0.318 -0.664,0.622 -1.19,1.105 -1.601,1.466 -0.414,0.362 -0.874,0.707 -1.366,1.026 -0.497,0.317 -1.019,0.556 -1.547,0.709 -0.529,0.149 -1.124,0.224 -1.765,0.224 -0.959,0 -1.848,-0.238 -2.643,-0.711 -0.798,-0.473 -1.443,-1.187 -1.92,-2.116 -0.476,-0.926 -0.726,-2.009 -0.738,-3.224 l -0.002,-0.13 h 10.434 c 1.35,0 2.406,-0.191 3.145,-0.571 0.707,-0.368 1.068,-1.195 1.068,-2.462 0,-1.399 -0.365,-2.795 -1.084,-4.145 -0.719,-1.351 -1.816,-2.465 -3.261,-3.318 -1.443,-0.851 -3.203,-1.282 -5.229,-1.282 -1.561,0 -2.999,0.253 -4.275,0.752 -1.273,0.498 -2.359,1.224 -3.232,2.154 -0.87,0.937 -1.543,2.073 -1.997,3.381 -0.458,1.312 -0.688,2.753 -0.688,4.287 0,3.257 0.937,5.87 2.78,7.766 1.845,1.893 4.467,2.854 7.796,2.854 1.461,0 2.768,-0.19 3.888,-0.573 1.122,-0.38 2.062,-0.867 2.796,-1.438 0.734,-0.568 1.291,-1.172 1.655,-1.794 z m -13.793,-8.485 c 0.182,-1.793 0.71,-3.172 1.568,-4.096 0.863,-0.931 1.982,-1.402 3.326,-1.402 1.406,0 2.561,0.465 3.424,1.382 0.857,0.912 1.361,2.298 1.492,4.118 l 0.01,0.144 h -9.836 l 0.016,-0.146 z"
   id="path183"
   inkscape:connector-curvature="0"
   style="fill:#2b3990" />
		<path
   d="m 653.291,168.352 c 0,-1.145 -0.051,-2.098 -0.151,-2.84 -0.101,-0.725 -0.325,-1.412 -0.661,-2.038 -0.529,-1.081 -1.335,-1.926 -2.397,-2.513 -1.072,-0.592 -2.304,-0.892 -3.663,-0.892 -1.4,0 -2.652,0.286 -3.73,0.845 -1.077,0.559 -2.084,1.454 -2.995,2.654 l -0.233,0.308 v -1.022 c 0,-0.606 -0.107,-1.126 -0.324,-1.54 -0.213,-0.416 -0.497,-0.73 -0.846,-0.937 -0.354,-0.203 -0.756,-0.308 -1.189,-0.308 -0.715,0 -1.289,0.236 -1.696,0.699 -0.414,0.467 -0.625,1.196 -0.625,2.162 v 15.223 c 0,0.992 0.237,1.76 0.702,2.286 0.461,0.521 1.059,0.787 1.773,0.787 0.743,0 1.356,-0.257 1.824,-0.762 0.471,-0.504 0.71,-1.282 0.71,-2.312 v -6.599 c 0,-2.186 0.128,-3.637 0.39,-4.438 0.369,-1.001 0.958,-1.798 1.747,-2.373 0.791,-0.571 1.681,-0.86 2.64,-0.86 1.486,0 2.494,0.484 3,1.448 0.492,0.933 0.738,2.294 0.738,4.044 v 8.779 c 0,0.992 0.238,1.76 0.703,2.286 0.461,0.521 1.07,0.787 1.811,0.787 0.743,0 1.324,-0.254 1.785,-0.768 0.457,-0.514 0.689,-1.289 0.689,-2.305 v -9.801 z"
   id="path185"
   inkscape:connector-curvature="0"
   style="fill:#2b3990" />
		<path
   d="m 669.801,178.733 c 0,-0.472 -0.157,-0.856 -0.474,-1.175 -0.317,-0.315 -0.664,-0.471 -1.056,-0.471 -0.285,0 -0.688,0.054 -1.208,0.158 -0.544,0.112 -0.964,0.169 -1.282,0.169 -0.601,0 -1.045,-0.155 -1.318,-0.457 -0.27,-0.295 -0.438,-0.683 -0.498,-1.151 -0.059,-0.453 -0.088,-1.097 -0.088,-1.919 v -9.813 h 1.113 c 1.02,0 1.808,-0.136 2.346,-0.41 0.515,-0.262 0.768,-0.709 0.768,-1.37 0,-0.511 -0.186,-0.938 -0.547,-1.263 -0.365,-0.329 -0.912,-0.498 -1.622,-0.498 h -2.058 v -3.718 c 0,-0.879 -0.049,-1.562 -0.143,-2.03 -0.09,-0.452 -0.307,-0.839 -0.646,-1.156 -0.513,-0.475 -1.093,-0.721 -1.726,-0.721 -0.449,0 -0.861,0.11 -1.226,0.323 -0.365,0.213 -0.647,0.492 -0.841,0.833 -0.198,0.329 -0.316,0.729 -0.361,1.189 -0.043,0.476 -0.067,1.146 -0.067,1.984 v 3.295 h -0.708 c -0.762,0 -1.345,0.169 -1.74,0.502 -0.389,0.329 -0.578,0.743 -0.578,1.259 0,0.52 0.181,0.937 0.553,1.273 0.373,0.335 0.927,0.506 1.651,0.506 h 0.822 v 10.239 c 0,1.617 0.132,2.927 0.394,3.886 0.252,0.939 0.797,1.686 1.614,2.217 0.824,0.538 2.058,0.811 3.671,0.811 1.709,0 3.031,-0.222 3.938,-0.664 0.887,-0.43 1.317,-1.024 1.317,-1.828 z"
   id="path187"
   inkscape:connector-curvature="0"
   style="fill:#2b3990" />
		<path
   d="m 684.916,160.882 c -1.02,-0.54 -2.082,-0.813 -3.162,-0.813 -1.07,0 -1.933,0.27 -2.568,0.8 -0.648,0.543 -1.294,1.357 -1.91,2.416 l -0.228,0.388 -0.017,-0.448 c -0.035,-1.049 -0.241,-1.854 -0.613,-2.382 -0.356,-0.515 -0.957,-0.773 -1.783,-0.773 -1.64,0 -2.436,1.117 -2.436,3.419 v 14.665 c 0,1.016 0.234,1.791 0.698,2.304 0.47,0.516 1.05,0.77 1.776,0.77 0.73,0 1.342,-0.257 1.816,-0.765 0.475,-0.501 0.716,-1.279 0.716,-2.309 v -4.397 c 0,-1.587 0.052,-2.946 0.155,-4.035 0.104,-1.105 0.293,-2.07 0.566,-2.878 0.276,-0.817 0.673,-1.445 1.178,-1.862 0.877,-0.729 2.179,-0.854 3.972,-0.274 0.905,0.29 1.239,0.353 1.359,0.353 0.476,0 0.933,-0.199 1.349,-0.593 0.419,-0.397 0.625,-0.889 0.625,-1.499 10e-4,-0.871 -0.488,-1.551 -1.493,-2.087 z"
   id="path189"
   inkscape:connector-curvature="0"
   style="fill:#2b3990" />
		<path
   d="m 697.183,186.301 c 0.563,-0.887 1.143,-2.135 1.728,-3.7 l 6.867,-17.982 c 0.17,-0.47 0.308,-0.914 0.42,-1.354 0.114,-0.44 0.197,-0.788 0.252,-1.039 -0.006,-0.347 -0.099,-0.709 -0.289,-1.046 -0.186,-0.339 -0.454,-0.613 -0.799,-0.811 -0.342,-0.198 -0.709,-0.3 -1.082,-0.3 -0.527,0 -0.936,0.092 -1.213,0.27 -0.279,0.178 -0.553,0.536 -0.813,1.067 -0.265,0.545 -0.569,1.315 -0.899,2.281 l -4.349,12.412 -4.579,-13.32 c -0.291,-0.886 -0.63,-1.571 -1.002,-2.034 -0.361,-0.457 -0.889,-0.676 -1.613,-0.676 -0.414,0 -0.819,0.11 -1.201,0.331 -0.383,0.219 -0.688,0.514 -0.908,0.879 -0.219,0.365 -0.327,0.765 -0.327,1.187 0,0.407 0.198,1.077 0.588,1.993 l 6.501,16.377 -0.5,1.225 c -0.363,0.865 -0.689,1.53 -0.967,1.978 -0.287,0.461 -0.619,0.791 -0.986,0.982 -0.367,0.189 -0.866,0.286 -1.486,0.286 -0.254,0 -0.556,-0.039 -0.898,-0.121 -0.262,-0.074 -0.531,-0.111 -0.801,-0.111 -0.685,0 -1.204,0.155 -1.541,0.457 -0.342,0.305 -0.509,0.73 -0.509,1.306 0,0.835 0.354,1.396 1.082,1.707 0.747,0.327 1.899,0.494 3.42,0.494 1.553,0 2.802,-0.239 3.712,-0.708 0.904,-0.47 1.644,-1.153 2.192,-2.03 z"
   id="path191"
   inkscape:connector-curvature="0"
   style="fill:#2b3990" />
		<g
   id="g193">
			<path
   d="m 378.281,155.002 c 0,0 -0.241,0.784 0,1.042 0.241,0.262 1.447,0.344 1.447,0.344 v 15.129 l 2.412,1.739 2.051,-1.915 v -14.82 l 0.603,-0.134 c 0.967,0.256 1.206,-0.603 1.206,-0.603 V 155 h -7.719 z m 5.064,16.169 -0.681,0.259 v -14.821 l 0.681,-0.22 v 14.782 z m 1.811,-15.429 c -0.722,0.044 -5.309,-0.479 -5.309,-0.479 h 5.309 c 0,0 0.725,0.435 0,0.479 z"
   id="path195"
   inkscape:connector-curvature="0"
   style="fill:#2b3990" />
			<path
   clip-rule="evenodd"
   d="m 389.605,161.58 -0.002,0.003 -0.056,-0.038 c -0.41,-0.402 -0.949,-0.623 -1.521,-0.623 -1.203,0 -2.183,0.981 -2.183,2.186 0,0.569 0.218,1.109 0.62,1.522 l 0.037,0.041 c 0.073,0.067 0.147,0.133 0.235,0.197 1.504,1.336 2.363,3.244 2.363,5.242 0,3.866 -3.146,7.009 -7.01,7.009 -3.867,0 -7.01,-3.143 -7.01,-7.009 0,-1.961 0.834,-3.849 2.291,-5.175 0.62,-0.415 0.985,-1.096 0.985,-1.827 0,-1.205 -0.981,-2.186 -2.187,-2.186 -0.574,0 -1.121,0.224 -1.528,0.628 l -0.052,0.049 -0.018,-0.021 c -2.451,2.162 -3.854,5.266 -3.854,8.532 0,6.271 5.103,11.372 11.374,11.372 6.27,0 11.373,-5.101 11.373,-11.372 -0.002,-3.264 -1.407,-6.369 -3.857,-8.53 z"
   id="path197"
   inkscape:connector-curvature="0"
   style="fill:#2b3990;fill-rule:evenodd" />
		</g>
	</g>
</g>
<g
   id="g199"
   transform="translate(-350.692,-117.08488)">
	<path
   d="m 211.332,410.419 c 0,-0.96 0.267,-1.672 0.801,-2.134 0.446,-0.384 0.99,-0.576 1.631,-0.576 0.713,0 1.295,0.233 1.748,0.701 0.453,0.467 0.679,1.112 0.679,1.936 0,0.667 -0.1,1.192 -0.3,1.574 -0.2,0.383 -0.492,0.68 -0.874,0.892 -0.382,0.212 -0.8,0.317 -1.252,0.317 -0.726,0 -1.312,-0.232 -1.76,-0.698 -0.448,-0.466 -0.673,-1.136 -0.673,-2.012 z m 0.903,0 c 0,0.664 0.145,1.161 0.435,1.491 0.29,0.331 0.654,0.496 1.094,0.496 0.436,0 0.799,-0.166 1.089,-0.498 0.29,-0.332 0.435,-0.838 0.435,-1.519 0,-0.642 -0.146,-1.127 -0.437,-1.458 -0.292,-0.33 -0.653,-0.495 -1.086,-0.495 -0.439,0 -0.804,0.164 -1.094,0.493 -0.29,0.329 -0.436,0.826 -0.436,1.49 z"
   id="path201"
   inkscape:connector-curvature="0" />
	<path
   d="m 217.211,413.012 v -5.186 h 0.791 v 0.786 c 0.202,-0.368 0.388,-0.61 0.559,-0.728 0.171,-0.118 0.359,-0.176 0.564,-0.176 0.296,0 0.597,0.095 0.903,0.283 l -0.303,0.815 c -0.215,-0.127 -0.43,-0.19 -0.645,-0.19 -0.192,0 -0.365,0.058 -0.518,0.174 -0.153,0.115 -0.262,0.275 -0.327,0.48 -0.098,0.312 -0.146,0.654 -0.146,1.025 v 2.715 h -0.878 z"
   id="path203"
   inkscape:connector-curvature="0" />
</g>
<g
   id="g3218"
   transform="translate(-350.692,-117.08488)">
	<path
   id="path3220"
   d="m 154.607,173.425 c 0,0 -1.448,4.702 0,6.271 1.452,1.567 8.704,2.067 8.704,2.067 v 90.946 l 14.501,10.45 12.326,-11.496 v -89.092 l 3.628,-0.808 c 5.802,1.543 7.25,-3.635 7.25,-3.635 v -4.702 h -46.409 z m 30.457,97.193 -4.106,1.568 v -89.093 l 4.106,-1.331 v 88.856 z m 10.88,-92.751 c -4.351,0.261 -31.91,-2.873 -31.91,-2.873 h 31.91 c 0,0 4.352,2.612 0,2.873 z"
   inkscape:connector-curvature="0"
   style="fill:#2b3990" />
	<path
   id="path3222"
   d="m 222.687,212.972 -0.014,0.014 -0.334,-0.245 c -2.467,-2.397 -5.715,-3.718 -9.146,-3.718 -7.244,0 -13.136,5.892 -13.136,13.135 0,3.43 1.321,6.678 3.72,9.146 l 0.241,0.248 c 0.429,0.414 0.879,0.792 1.403,1.178 9.044,8.028 14.214,19.507 14.214,31.519 0,23.239 -18.906,42.146 -42.145,42.146 -23.239,0 -42.145,-18.906 -42.145,-42.146 0,-11.794 5.022,-23.136 13.778,-31.116 3.72,-2.486 5.912,-6.574 5.912,-10.974 0,-7.243 -5.892,-13.135 -13.135,-13.135 -3.46,0 -6.729,1.339 -9.204,3.77 l -0.295,0.29 -0.11,-0.11 c -14.733,12.996 -23.174,31.662 -23.174,51.275 0,37.7 30.672,68.373 68.373,68.373 37.7,0 68.371,-30.673 68.371,-68.373 0,-19.616 -8.442,-38.282 -23.174,-51.277 z"
   clip-rule="evenodd"
   inkscape:connector-curvature="0"
   style="fill:#2b3990;fill-rule:evenodd" />
</g></svg>